solid Frame. STL generated by ONSHAPE BY PTC INC, 1.220. Units = meters
   facet normal 0 0 -1
      outer loop
         vertex 0 -0.02 0.05
         vertex -0.0198828 -0.0178376 0.05
         vertex -0.0195324 -0.0157006 0.05
      endloop
   endfacet
   facet normal 0 0 -1
      outer loop
         vertex -0.0195324 -0.0157006 0.05
         vertex -0.0189531 -0.013614 0.05
         vertex 0 -0.02 0.05
      endloop
   endfacet
   facet normal 0 0 -1
      outer loop
         vertex -0.0189531 -0.013614 0.05
         vertex -0.0181515 -0.0116022 0.05
         vertex 0 -0.02 0.05
      endloop
   endfacet
   facet normal 0 0 -1
      outer loop
         vertex -0.0181515 -0.0116022 0.05
         vertex -0.0171371 -0.00968892 0.05
         vertex 0 -0.02 0.05
      endloop
   endfacet
   facet normal 0 0 -1
      outer loop
         vertex -0.0171371 -0.00968892 0.05
         vertex -0.0159219 -0.00789652 0.05
         vertex 0 -0.02 0.05
      endloop
   endfacet
   facet normal 0 0 -1
      outer loop
         vertex -0.0159219 -0.00789652 0.05
         vertex -0.0145199 -0.00624601 0.05
         vertex 0 -0.02 0.05
      endloop
   endfacet
   facet normal 0 0 -1
      outer loop
         vertex -0.0145199 -0.00624601 0.05
         vertex -0.0129477 -0.00475676 0.05
         vertex 0 -0.02 0.05
      endloop
   endfacet
   facet normal 0 0 -1
      outer loop
         vertex -0.0129477 -0.00475676 0.05
         vertex -0.0112237 -0.00344622 0.05
         vertex 0 -0.02 0.05
      endloop
   endfacet
   facet normal 0 0 -1
      outer loop
         vertex -0.0112237 -0.00344622 0.05
         vertex -0.00936817 -0.00232976 0.05
         vertex 0 -0.02 0.05
      endloop
   endfacet
   facet normal 0 0 -1
      outer loop
         vertex -0.00936817 -0.00232976 0.05
         vertex -0.00740276 -0.00142047 0.05
         vertex 0 -0.02 0.05
      endloop
   endfacet
   facet normal 0 0 -1
      outer loop
         vertex -0.00740276 -0.00142047 0.05
         vertex -0.00535057 -0.000729 0.05
         vertex 0 -0.02 0.05
      endloop
   endfacet
   facet normal 0 0 -1
      outer loop
         vertex -0.00535057 -0.000729 0.05
         vertex -0.00323564 -0.00026347 0.05
         vertex 0 -0.02 0.05
      endloop
   endfacet
   facet normal 0 0 -1
      outer loop
         vertex -0.00323564 -0.00026347 0.05
         vertex -0.00108278 -2.93317e-05 0.05
         vertex 0 -0.02 0.05
      endloop
   endfacet
   facet normal 0 0 -1
      outer loop
         vertex -0.00108278 -2.93317e-05 0.05
         vertex 0.00108278 -2.93317e-05 0.05
         vertex 0 -0.02 0.05
      endloop
   endfacet
   facet normal 0 0 -1
      outer loop
         vertex 0.00108278 -2.93317e-05 0.05
         vertex 0.00323564 -0.00026347 0.05
         vertex 0 -0.02 0.05
      endloop
   endfacet
   facet normal 0 0 -1
      outer loop
         vertex 0.00323564 -0.00026347 0.05
         vertex 0.00535057 -0.000729 0.05
         vertex 0 -0.02 0.05
      endloop
   endfacet
   facet normal 0 0 -1
      outer loop
         vertex 0.00535057 -0.000729 0.05
         vertex 0.00740276 -0.00142047 0.05
         vertex 0 -0.02 0.05
      endloop
   endfacet
   facet normal 0 0 -1
      outer loop
         vertex 0.00740276 -0.00142047 0.05
         vertex 0.00936817 -0.00232976 0.05
         vertex 0 -0.02 0.05
      endloop
   endfacet
   facet normal 0 0 -1
      outer loop
         vertex 0.00936817 -0.00232976 0.05
         vertex 0.0112237 -0.00344622 0.05
         vertex 0 -0.02 0.05
      endloop
   endfacet
   facet normal 0 0 -1
      outer loop
         vertex 0.0112237 -0.00344622 0.05
         vertex 0.0129477 -0.00475676 0.05
         vertex 0 -0.02 0.05
      endloop
   endfacet
   facet normal 0 0 -1
      outer loop
         vertex 0.0129477 -0.00475676 0.05
         vertex 0.0145199 -0.00624601 0.05
         vertex 0 -0.02 0.05
      endloop
   endfacet
   facet normal 0 0 -1
      outer loop
         vertex 0.0145199 -0.00624601 0.05
         vertex 0.0159219 -0.00789652 0.05
         vertex 0 -0.02 0.05
      endloop
   endfacet
   facet normal 0 0 -1
      outer loop
         vertex 0.0159219 -0.00789652 0.05
         vertex 0.0171371 -0.00968892 0.05
         vertex 0 -0.02 0.05
      endloop
   endfacet
   facet normal 0 0 -1
      outer loop
         vertex 0.0171371 -0.00968892 0.05
         vertex 0.0181515 -0.0116022 0.05
         vertex 0 -0.02 0.05
      endloop
   endfacet
   facet normal 0 0 -1
      outer loop
         vertex 0.0181515 -0.0116022 0.05
         vertex 0.0189531 -0.013614 0.05
         vertex 0 -0.02 0.05
      endloop
   endfacet
   facet normal 0 0 -1
      outer loop
         vertex 0.0189531 -0.013614 0.05
         vertex 0.0195324 -0.0157006 0.05
         vertex 0 -0.02 0.05
      endloop
   endfacet
   facet normal 0 0 -1
      outer loop
         vertex 0.0195324 -0.0157006 0.05
         vertex 0.0198828 -0.0178376 0.05
         vertex 0 -0.02 0.05
      endloop
   endfacet
   facet normal 0 0 -1
      outer loop
         vertex 0.0198828 -0.0178376 0.05
         vertex 0.02 -0.02 0.05
         vertex 0 -0.02 0.05
      endloop
   endfacet
   facet normal 0 0 -1
      outer loop
         vertex 0.02 -0.02 0.05
         vertex 0.0198828 -0.0221624 0.05
         vertex 0 -0.02 0.05
      endloop
   endfacet
   facet normal 0 0 -1
      outer loop
         vertex 0.0198828 -0.0221624 0.05
         vertex 0.0195324 -0.0242994 0.05
         vertex 0 -0.02 0.05
      endloop
   endfacet
   facet normal 0 0 -1
      outer loop
         vertex 0.0195324 -0.0242994 0.05
         vertex 0.0189531 -0.026386 0.05
         vertex 0 -0.02 0.05
      endloop
   endfacet
   facet normal 0 0 -1
      outer loop
         vertex 0.0189531 -0.026386 0.05
         vertex 0.0181515 -0.0283978 0.05
         vertex 0 -0.02 0.05
      endloop
   endfacet
   facet normal 0 0 -1
      outer loop
         vertex 0.0181515 -0.0283978 0.05
         vertex 0.0171371 -0.0303111 0.05
         vertex 0 -0.02 0.05
      endloop
   endfacet
   facet normal 0 0 -1
      outer loop
         vertex 0.0171371 -0.0303111 0.05
         vertex 0.0159219 -0.0321035 0.05
         vertex 0 -0.02 0.05
      endloop
   endfacet
   facet normal 0 0 -1
      outer loop
         vertex 0.0159219 -0.0321035 0.05
         vertex 0.0145199 -0.033754 0.05
         vertex 0 -0.02 0.05
      endloop
   endfacet
   facet normal 0 0 -1
      outer loop
         vertex 0.0145199 -0.033754 0.05
         vertex 0.0129477 -0.0352432 0.05
         vertex 0 -0.02 0.05
      endloop
   endfacet
   facet normal 0 0 -1
      outer loop
         vertex 0.0129477 -0.0352432 0.05
         vertex 0.0112237 -0.0365538 0.05
         vertex 0 -0.02 0.05
      endloop
   endfacet
   facet normal 0 0 -1
      outer loop
         vertex 0.0112237 -0.0365538 0.05
         vertex 0.00936817 -0.0376702 0.05
         vertex 0 -0.02 0.05
      endloop
   endfacet
   facet normal 0 0 -1
      outer loop
         vertex 0.00936817 -0.0376702 0.05
         vertex 0.00740276 -0.0385795 0.05
         vertex 0 -0.02 0.05
      endloop
   endfacet
   facet normal 0 0 -1
      outer loop
         vertex 0.00740276 -0.0385795 0.05
         vertex 0.00535057 -0.039271 0.05
         vertex 0 -0.02 0.05
      endloop
   endfacet
   facet normal 0 0 -1
      outer loop
         vertex 0.00535057 -0.039271 0.05
         vertex 0.00323564 -0.0397365 0.05
         vertex 0 -0.02 0.05
      endloop
   endfacet
   facet normal 0 0 -1
      outer loop
         vertex 0.00323564 -0.0397365 0.05
         vertex 0.00108278 -0.0399707 0.05
         vertex 0 -0.02 0.05
      endloop
   endfacet
   facet normal 0 0 -1
      outer loop
         vertex 0.00108278 -0.0399707 0.05
         vertex -0.00108278 -0.0399707 0.05
         vertex 0 -0.02 0.05
      endloop
   endfacet
   facet normal 0 0 -1
      outer loop
         vertex -0.00108278 -0.0399707 0.05
         vertex -0.00323564 -0.0397365 0.05
         vertex 0 -0.02 0.05
      endloop
   endfacet
   facet normal 0 0 -1
      outer loop
         vertex -0.00323564 -0.0397365 0.05
         vertex -0.00535057 -0.039271 0.05
         vertex 0 -0.02 0.05
      endloop
   endfacet
   facet normal 0 0 -1
      outer loop
         vertex -0.00535057 -0.039271 0.05
         vertex -0.00740276 -0.0385795 0.05
         vertex 0 -0.02 0.05
      endloop
   endfacet
   facet normal 0 0 -1
      outer loop
         vertex -0.00740276 -0.0385795 0.05
         vertex -0.00936817 -0.0376702 0.05
         vertex 0 -0.02 0.05
      endloop
   endfacet
   facet normal 0 0 -1
      outer loop
         vertex -0.00936817 -0.0376702 0.05
         vertex -0.0112237 -0.0365538 0.05
         vertex 0 -0.02 0.05
      endloop
   endfacet
   facet normal 0 0 -1
      outer loop
         vertex -0.0112237 -0.0365538 0.05
         vertex -0.0129477 -0.0352432 0.05
         vertex 0 -0.02 0.05
      endloop
   endfacet
   facet normal 0 0 -1
      outer loop
         vertex -0.0129477 -0.0352432 0.05
         vertex -0.0145199 -0.033754 0.05
         vertex 0 -0.02 0.05
      endloop
   endfacet
   facet normal 0 0 -1
      outer loop
         vertex -0.0145199 -0.033754 0.05
         vertex -0.0159219 -0.0321035 0.05
         vertex 0 -0.02 0.05
      endloop
   endfacet
   facet normal 0 0 -1
      outer loop
         vertex -0.0159219 -0.0321035 0.05
         vertex -0.0171371 -0.0303111 0.05
         vertex 0 -0.02 0.05
      endloop
   endfacet
   facet normal 0 0 -1
      outer loop
         vertex -0.0171371 -0.0303111 0.05
         vertex -0.0181515 -0.0283978 0.05
         vertex 0 -0.02 0.05
      endloop
   endfacet
   facet normal 0 0 -1
      outer loop
         vertex -0.0181515 -0.0283978 0.05
         vertex -0.0189531 -0.026386 0.05
         vertex 0 -0.02 0.05
      endloop
   endfacet
   facet normal 0 0 -1
      outer loop
         vertex -0.0189531 -0.026386 0.05
         vertex -0.0195324 -0.0242994 0.05
         vertex 0 -0.02 0.05
      endloop
   endfacet
   facet normal 0 0 -1
      outer loop
         vertex -0.0195324 -0.0242994 0.05
         vertex -0.0198828 -0.0221624 0.05
         vertex 0 -0.02 0.05
      endloop
   endfacet
   facet normal 0 0 -1
      outer loop
         vertex -0.0198828 -0.0221624 0.05
         vertex -0.02 -0.02 0.05
         vertex 0 -0.02 0.05
      endloop
   endfacet
   facet normal 0 0 -1
      outer loop
         vertex -0.02 -0.02 0.05
         vertex -0.0198828 -0.0178376 0.05
         vertex 0 -0.02 0.05
      endloop
   endfacet
   facet normal 1 0 0
      outer loop
         vertex 0.02 -0.02 0.35
         vertex 0.02 -0.02 0.05
         vertex 0.0198828 -0.0178376 0.05
      endloop
   endfacet
   facet normal 0.994138 0.108119 0
      outer loop
         vertex 0.0198828 -0.0178376 0.35
         vertex 0.0198828 -0.0178376 0.05
         vertex 0.0195324 -0.0157006 0.05
      endloop
   endfacet
   facet normal 0.976621 0.21497 0
      outer loop
         vertex 0.0195324 -0.0157006 0.35
         vertex 0.0195324 -0.0157006 0.05
         vertex 0.0189531 -0.013614 0.05
      endloop
   endfacet
   facet normal 0.947653 0.319302 0
      outer loop
         vertex 0.0189531 -0.013614 0.35
         vertex 0.0189531 -0.013614 0.05
         vertex 0.0181515 -0.0116022 0.05
      endloop
   endfacet
   facet normal 0.907575 0.419889 0
      outer loop
         vertex 0.0181515 -0.0116022 0.35
         vertex 0.0181515 -0.0116022 0.05
         vertex 0.0171371 -0.00968892 0.05
      endloop
   endfacet
   facet normal 0.856857 0.515554 0
      outer loop
         vertex 0.0171371 -0.00968892 0.35
         vertex 0.0171371 -0.00968892 0.05
         vertex 0.0159219 -0.00789652 0.05
      endloop
   endfacet
   facet normal 0.796093 0.605174 0
      outer loop
         vertex 0.0159219 -0.00789652 0.35
         vertex 0.0159219 -0.00789652 0.05
         vertex 0.0145199 -0.00624601 0.05
      endloop
   endfacet
   facet normal 0.725995 0.687699 0
      outer loop
         vertex 0.0145199 -0.00624601 0.35
         vertex 0.0145199 -0.00624601 0.05
         vertex 0.0129477 -0.00475676 0.05
      endloop
   endfacet
   facet normal 0.647386 0.762162 0
      outer loop
         vertex 0.0129477 -0.00475676 0.35
         vertex 0.0129477 -0.00475676 0.05
         vertex 0.0112237 -0.00344622 0.05
      endloop
   endfacet
   facet normal 0.561187 0.827689 0
      outer loop
         vertex 0.0112237 -0.00344622 0.35
         vertex 0.0112237 -0.00344622 0.05
         vertex 0.00936817 -0.00232976 0.05
      endloop
   endfacet
   facet normal 0.468408 0.883512 0
      outer loop
         vertex 0.00936817 -0.00232976 0.35
         vertex 0.00936817 -0.00232976 0.05
         vertex 0.00740276 -0.00142047 0.05
      endloop
   endfacet
   facet normal 0.370138 0.928977 0
      outer loop
         vertex 0.00740276 -0.00142047 0.35
         vertex 0.00740276 -0.00142047 0.05
         vertex 0.00535057 -0.000729 0.05
      endloop
   endfacet
   facet normal 0.267528 0.96355 0
      outer loop
         vertex 0.00535057 -0.000729 0.35
         vertex 0.00535057 -0.000729 0.05
         vertex 0.00323564 -0.00026347 0.05
      endloop
   endfacet
   facet normal 0.161782 0.986827 0
      outer loop
         vertex 0.00323564 -0.00026347 0.35
         vertex 0.00323564 -0.00026347 0.05
         vertex 0.00108278 -2.93317e-05 0.05
      endloop
   endfacet
   facet normal -0.0541389 0.998533 0
      outer loop
         vertex -0.00108278 -2.93317e-05 0.05
         vertex -0.00108278 -2.93317e-05 0.35
         vertex 0 -3.46945e-18 0.35
      endloop
   endfacet
   facet normal 6.12323e-17 1 0
      outer loop
         vertex 0 -3.46945e-18 0.35
         vertex 0.00108278 -2.93317e-05 0.05
         vertex -0.00108278 -2.93317e-05 0.05
      endloop
   endfacet
   facet normal -0.0541389 0.998533 0
      outer loop
         vertex -0.00108278 -2.93317e-05 0.35
         vertex -0.00108278 -2.93317e-05 0.05
         vertex -0.00323564 -0.00026347 0.05
      endloop
   endfacet
   facet normal -0.161782 0.986827 0
      outer loop
         vertex -0.00323564 -0.00026347 0.35
         vertex -0.00323564 -0.00026347 0.05
         vertex -0.00535057 -0.000729 0.05
      endloop
   endfacet
   facet normal -0.267528 0.96355 0
      outer loop
         vertex -0.00535057 -0.000729 0.35
         vertex -0.00535057 -0.000729 0.05
         vertex -0.00740276 -0.00142047 0.05
      endloop
   endfacet
   facet normal -0.370138 0.928977 0
      outer loop
         vertex -0.00740276 -0.00142047 0.35
         vertex -0.00740276 -0.00142047 0.05
         vertex -0.00936817 -0.00232976 0.05
      endloop
   endfacet
   facet normal -0.468408 0.883512 0
      outer loop
         vertex -0.00936817 -0.00232976 0.35
         vertex -0.00936817 -0.00232976 0.05
         vertex -0.0112237 -0.00344622 0.05
      endloop
   endfacet
   facet normal -0.561187 0.827689 0
      outer loop
         vertex -0.0112237 -0.00344622 0.35
         vertex -0.0112237 -0.00344622 0.05
         vertex -0.0129477 -0.00475676 0.05
      endloop
   endfacet
   facet normal -0.647386 0.762162 0
      outer loop
         vertex -0.0129477 -0.00475676 0.35
         vertex -0.0129477 -0.00475676 0.05
         vertex -0.0145199 -0.00624601 0.05
      endloop
   endfacet
   facet normal -0.725995 0.687699 0
      outer loop
         vertex -0.0145199 -0.00624601 0.35
         vertex -0.0145199 -0.00624601 0.05
         vertex -0.0159219 -0.00789652 0.05
      endloop
   endfacet
   facet normal -0.796093 0.605174 0
      outer loop
         vertex -0.0159219 -0.00789652 0.35
         vertex -0.0159219 -0.00789652 0.05
         vertex -0.0171371 -0.00968892 0.05
      endloop
   endfacet
   facet normal -0.856857 0.515554 0
      outer loop
         vertex -0.0171371 -0.00968892 0.35
         vertex -0.0171371 -0.00968892 0.05
         vertex -0.0181515 -0.0116022 0.05
      endloop
   endfacet
   facet normal -0.907575 0.419889 0
      outer loop
         vertex -0.0181515 -0.0116022 0.35
         vertex -0.0181515 -0.0116022 0.05
         vertex -0.0189531 -0.013614 0.05
      endloop
   endfacet
   facet normal -0.947653 0.319302 0
      outer loop
         vertex -0.0189531 -0.013614 0.35
         vertex -0.0189531 -0.013614 0.05
         vertex -0.0195324 -0.0157006 0.05
      endloop
   endfacet
   facet normal -0.976621 0.21497 0
      outer loop
         vertex -0.0195324 -0.0157006 0.35
         vertex -0.0195324 -0.0157006 0.05
         vertex -0.0198828 -0.0178376 0.05
      endloop
   endfacet
   facet normal -0.994138 0.108119 0
      outer loop
         vertex -0.0198828 -0.0178376 0.35
         vertex -0.0198828 -0.0178376 0.05
         vertex -0.02 -0.02 0.05
      endloop
   endfacet
   facet normal -1 1.22465e-16 0
      outer loop
         vertex -0.02 -0.02 0.35
         vertex -0.02 -0.02 0.05
         vertex -0.0198828 -0.0221624 0.05
      endloop
   endfacet
   facet normal -0.994138 -0.108119 0
      outer loop
         vertex -0.0198828 -0.0221624 0.35
         vertex -0.0198828 -0.0221624 0.05
         vertex -0.0195324 -0.0242994 0.05
      endloop
   endfacet
   facet normal -0.976621 -0.21497 0
      outer loop
         vertex -0.0195324 -0.0242994 0.35
         vertex -0.0195324 -0.0242994 0.05
         vertex -0.0189531 -0.026386 0.05
      endloop
   endfacet
   facet normal -0.947653 -0.319302 0
      outer loop
         vertex -0.0189531 -0.026386 0.35
         vertex -0.0189531 -0.026386 0.05
         vertex -0.0181515 -0.0283978 0.05
      endloop
   endfacet
   facet normal -0.907575 -0.419889 0
      outer loop
         vertex -0.0181515 -0.0283978 0.35
         vertex -0.0181515 -0.0283978 0.05
         vertex -0.0171371 -0.0303111 0.05
      endloop
   endfacet
   facet normal -0.856857 -0.515554 0
      outer loop
         vertex -0.0171371 -0.0303111 0.35
         vertex -0.0171371 -0.0303111 0.05
         vertex -0.0159219 -0.0321035 0.05
      endloop
   endfacet
   facet normal -0.796093 -0.605174 0
      outer loop
         vertex -0.0159219 -0.0321035 0.35
         vertex -0.0159219 -0.0321035 0.05
         vertex -0.0145199 -0.033754 0.05
      endloop
   endfacet
   facet normal -0.725995 -0.687699 0
      outer loop
         vertex -0.0145199 -0.033754 0.35
         vertex -0.0145199 -0.033754 0.05
         vertex -0.0129477 -0.0352432 0.05
      endloop
   endfacet
   facet normal -0.647386 -0.762162 0
      outer loop
         vertex -0.0129477 -0.0352432 0.35
         vertex -0.0129477 -0.0352432 0.05
         vertex -0.0112237 -0.0365538 0.05
      endloop
   endfacet
   facet normal -0.561187 -0.827689 0
      outer loop
         vertex -0.0112237 -0.0365538 0.35
         vertex -0.0112237 -0.0365538 0.05
         vertex -0.00936817 -0.0376702 0.05
      endloop
   endfacet
   facet normal -0.468408 -0.883512 0
      outer loop
         vertex -0.00936817 -0.0376702 0.35
         vertex -0.00936817 -0.0376702 0.05
         vertex -0.00740276 -0.0385795 0.05
      endloop
   endfacet
   facet normal -0.370138 -0.928977 0
      outer loop
         vertex -0.00740276 -0.0385795 0.35
         vertex -0.00740276 -0.0385795 0.05
         vertex -0.00535057 -0.039271 0.05
      endloop
   endfacet
   facet normal -0.267528 -0.96355 0
      outer loop
         vertex -0.00535057 -0.039271 0.35
         vertex -0.00535057 -0.039271 0.05
         vertex -0.00323564 -0.0397365 0.05
      endloop
   endfacet
   facet normal -0.161782 -0.986827 0
      outer loop
         vertex -0.00323564 -0.0397365 0.35
         vertex -0.00323564 -0.0397365 0.05
         vertex -0.00108278 -0.0399707 0.05
      endloop
   endfacet
   facet normal 0.0541389 -0.998533 0
      outer loop
         vertex 0.00108278 -0.0399707 0.05
         vertex 0.00108278 -0.0399707 0.35
         vertex 0 -0.04 0.35
      endloop
   endfacet
   facet normal -1.83697e-16 -1 0
      outer loop
         vertex 0 -0.04 0.35
         vertex -0.00108278 -0.0399707 0.05
         vertex 0.00108278 -0.0399707 0.05
      endloop
   endfacet
   facet normal 0.0541389 -0.998533 0
      outer loop
         vertex 0.00108278 -0.0399707 0.35
         vertex 0.00108278 -0.0399707 0.05
         vertex 0.00323564 -0.0397365 0.05
      endloop
   endfacet
   facet normal 0.161782 -0.986827 0
      outer loop
         vertex 0.00323564 -0.0397365 0.35
         vertex 0.00323564 -0.0397365 0.05
         vertex 0.00535057 -0.039271 0.05
      endloop
   endfacet
   facet normal 0.267528 -0.96355 0
      outer loop
         vertex 0.00535057 -0.039271 0.35
         vertex 0.00535057 -0.039271 0.05
         vertex 0.00740276 -0.0385795 0.05
      endloop
   endfacet
   facet normal 0.370138 -0.928977 0
      outer loop
         vertex 0.00740276 -0.0385795 0.35
         vertex 0.00740276 -0.0385795 0.05
         vertex 0.00936817 -0.0376702 0.05
      endloop
   endfacet
   facet normal 0.468408 -0.883512 0
      outer loop
         vertex 0.00936817 -0.0376702 0.35
         vertex 0.00936817 -0.0376702 0.05
         vertex 0.0112237 -0.0365538 0.05
      endloop
   endfacet
   facet normal 0.561187 -0.827689 0
      outer loop
         vertex 0.0112237 -0.0365538 0.35
         vertex 0.0112237 -0.0365538 0.05
         vertex 0.0129477 -0.0352432 0.05
      endloop
   endfacet
   facet normal 0.647386 -0.762162 0
      outer loop
         vertex 0.0129477 -0.0352432 0.35
         vertex 0.0129477 -0.0352432 0.05
         vertex 0.0145199 -0.033754 0.05
      endloop
   endfacet
   facet normal 0.725995 -0.687699 0
      outer loop
         vertex 0.0145199 -0.033754 0.35
         vertex 0.0145199 -0.033754 0.05
         vertex 0.0159219 -0.0321035 0.05
      endloop
   endfacet
   facet normal 0.796093 -0.605174 0
      outer loop
         vertex 0.0159219 -0.0321035 0.35
         vertex 0.0159219 -0.0321035 0.05
         vertex 0.0171371 -0.0303111 0.05
      endloop
   endfacet
   facet normal 0.856857 -0.515554 0
      outer loop
         vertex 0.0171371 -0.0303111 0.35
         vertex 0.0171371 -0.0303111 0.05
         vertex 0.0181515 -0.0283978 0.05
      endloop
   endfacet
   facet normal 0.907575 -0.419889 0
      outer loop
         vertex 0.0181515 -0.0283978 0.35
         vertex 0.0181515 -0.0283978 0.05
         vertex 0.0189531 -0.026386 0.05
      endloop
   endfacet
   facet normal 0.947653 -0.319302 0
      outer loop
         vertex 0.0189531 -0.026386 0.35
         vertex 0.0189531 -0.026386 0.05
         vertex 0.0195324 -0.0242994 0.05
      endloop
   endfacet
   facet normal 0.976621 -0.21497 0
      outer loop
         vertex 0.0195324 -0.0242994 0.35
         vertex 0.0195324 -0.0242994 0.05
         vertex 0.0198828 -0.0221624 0.05
      endloop
   endfacet
   facet normal 0.994138 -0.108119 0
      outer loop
         vertex 0.0198828 -0.0221624 0.35
         vertex 0.0198828 -0.0221624 0.05
         vertex 0.02 -0.02 0.05
      endloop
   endfacet
   facet normal 1 0 0
      outer loop
         vertex 0.02 -0.02 0.05
         vertex 0.02 -0.02 0.35
         vertex 0.0198828 -0.0221624 0.35
      endloop
   endfacet
   facet normal 0.994138 -0.108119 0
      outer loop
         vertex 0.0198828 -0.0221624 0.05
         vertex 0.0198828 -0.0221624 0.35
         vertex 0.0195324 -0.0242994 0.35
      endloop
   endfacet
   facet normal 0.976621 -0.21497 0
      outer loop
         vertex 0.0195324 -0.0242994 0.05
         vertex 0.0195324 -0.0242994 0.35
         vertex 0.0189531 -0.026386 0.35
      endloop
   endfacet
   facet normal 0.947653 -0.319302 0
      outer loop
         vertex 0.0189531 -0.026386 0.05
         vertex 0.0189531 -0.026386 0.35
         vertex 0.0181515 -0.0283978 0.35
      endloop
   endfacet
   facet normal 0.907575 -0.419889 0
      outer loop
         vertex 0.0181515 -0.0283978 0.05
         vertex 0.0181515 -0.0283978 0.35
         vertex 0.0171371 -0.0303111 0.35
      endloop
   endfacet
   facet normal 0.856857 -0.515554 0
      outer loop
         vertex 0.0171371 -0.0303111 0.05
         vertex 0.0171371 -0.0303111 0.35
         vertex 0.0159219 -0.0321035 0.35
      endloop
   endfacet
   facet normal 0.796093 -0.605174 0
      outer loop
         vertex 0.0159219 -0.0321035 0.05
         vertex 0.0159219 -0.0321035 0.35
         vertex 0.0145199 -0.033754 0.35
      endloop
   endfacet
   facet normal 0.725995 -0.687699 0
      outer loop
         vertex 0.0145199 -0.033754 0.05
         vertex 0.0145199 -0.033754 0.35
         vertex 0.0129477 -0.0352432 0.35
      endloop
   endfacet
   facet normal 0.647386 -0.762162 0
      outer loop
         vertex 0.0129477 -0.0352432 0.05
         vertex 0.0129477 -0.0352432 0.35
         vertex 0.0112237 -0.0365538 0.35
      endloop
   endfacet
   facet normal 0.561187 -0.827689 0
      outer loop
         vertex 0.0112237 -0.0365538 0.05
         vertex 0.0112237 -0.0365538 0.35
         vertex 0.00936817 -0.0376702 0.35
      endloop
   endfacet
   facet normal 0.468408 -0.883512 0
      outer loop
         vertex 0.00936817 -0.0376702 0.05
         vertex 0.00936817 -0.0376702 0.35
         vertex 0.00740276 -0.0385795 0.35
      endloop
   endfacet
   facet normal 0.370138 -0.928977 0
      outer loop
         vertex 0.00740276 -0.0385795 0.05
         vertex 0.00740276 -0.0385795 0.35
         vertex 0.00535057 -0.039271 0.35
      endloop
   endfacet
   facet normal 0.267528 -0.96355 0
      outer loop
         vertex 0.00535057 -0.039271 0.05
         vertex 0.00535057 -0.039271 0.35
         vertex 0.00323564 -0.0397365 0.35
      endloop
   endfacet
   facet normal 0.161782 -0.986827 0
      outer loop
         vertex 0.00323564 -0.0397365 0.05
         vertex 0.00323564 -0.0397365 0.35
         vertex 0.00108278 -0.0399707 0.35
      endloop
   endfacet
   facet normal -1.83697e-16 -1 0
      outer loop
         vertex 0 -0.04 0.35
         vertex -0.00108278 -0.0399707 0.35
         vertex -0.00108278 -0.0399707 0.05
      endloop
   endfacet
   facet normal -0.0541389 -0.998533 0
      outer loop
         vertex -0.00108278 -0.0399707 0.05
         vertex -0.00108278 -0.0399707 0.35
         vertex -0.00323564 -0.0397365 0.35
      endloop
   endfacet
   facet normal -0.161782 -0.986827 0
      outer loop
         vertex -0.00323564 -0.0397365 0.05
         vertex -0.00323564 -0.0397365 0.35
         vertex -0.00535057 -0.039271 0.35
      endloop
   endfacet
   facet normal -0.267528 -0.96355 0
      outer loop
         vertex -0.00535057 -0.039271 0.05
         vertex -0.00535057 -0.039271 0.35
         vertex -0.00740276 -0.0385795 0.35
      endloop
   endfacet
   facet normal -0.370138 -0.928977 0
      outer loop
         vertex -0.00740276 -0.0385795 0.05
         vertex -0.00740276 -0.0385795 0.35
         vertex -0.00936817 -0.0376702 0.35
      endloop
   endfacet
   facet normal -0.468408 -0.883512 0
      outer loop
         vertex -0.00936817 -0.0376702 0.05
         vertex -0.00936817 -0.0376702 0.35
         vertex -0.0112237 -0.0365538 0.35
      endloop
   endfacet
   facet normal -0.561187 -0.827689 0
      outer loop
         vertex -0.0112237 -0.0365538 0.05
         vertex -0.0112237 -0.0365538 0.35
         vertex -0.0129477 -0.0352432 0.35
      endloop
   endfacet
   facet normal -0.647386 -0.762162 0
      outer loop
         vertex -0.0129477 -0.0352432 0.05
         vertex -0.0129477 -0.0352432 0.35
         vertex -0.0145199 -0.033754 0.35
      endloop
   endfacet
   facet normal -0.725995 -0.687699 0
      outer loop
         vertex -0.0145199 -0.033754 0.05
         vertex -0.0145199 -0.033754 0.35
         vertex -0.0159219 -0.0321035 0.35
      endloop
   endfacet
   facet normal -0.796093 -0.605174 0
      outer loop
         vertex -0.0159219 -0.0321035 0.05
         vertex -0.0159219 -0.0321035 0.35
         vertex -0.0171371 -0.0303111 0.35
      endloop
   endfacet
   facet normal -0.856857 -0.515554 0
      outer loop
         vertex -0.0171371 -0.0303111 0.05
         vertex -0.0171371 -0.0303111 0.35
         vertex -0.0181515 -0.0283978 0.35
      endloop
   endfacet
   facet normal -0.907575 -0.419889 0
      outer loop
         vertex -0.0181515 -0.0283978 0.05
         vertex -0.0181515 -0.0283978 0.35
         vertex -0.0189531 -0.026386 0.35
      endloop
   endfacet
   facet normal -0.947653 -0.319302 0
      outer loop
         vertex -0.0189531 -0.026386 0.05
         vertex -0.0189531 -0.026386 0.35
         vertex -0.0195324 -0.0242994 0.35
      endloop
   endfacet
   facet normal -0.976621 -0.21497 0
      outer loop
         vertex -0.0195324 -0.0242994 0.05
         vertex -0.0195324 -0.0242994 0.35
         vertex -0.0198828 -0.0221624 0.35
      endloop
   endfacet
   facet normal -0.994138 -0.108119 0
      outer loop
         vertex -0.0198828 -0.0221624 0.05
         vertex -0.0198828 -0.0221624 0.35
         vertex -0.02 -0.02 0.35
      endloop
   endfacet
   facet normal -1 1.22465e-16 0
      outer loop
         vertex -0.02 -0.02 0.05
         vertex -0.02 -0.02 0.35
         vertex -0.0198828 -0.0178376 0.35
      endloop
   endfacet
   facet normal -0.994138 0.108119 0
      outer loop
         vertex -0.0198828 -0.0178376 0.05
         vertex -0.0198828 -0.0178376 0.35
         vertex -0.0195324 -0.0157006 0.35
      endloop
   endfacet
   facet normal -0.976621 0.21497 0
      outer loop
         vertex -0.0195324 -0.0157006 0.05
         vertex -0.0195324 -0.0157006 0.35
         vertex -0.0189531 -0.013614 0.35
      endloop
   endfacet
   facet normal -0.947653 0.319302 0
      outer loop
         vertex -0.0189531 -0.013614 0.05
         vertex -0.0189531 -0.013614 0.35
         vertex -0.0181515 -0.0116022 0.35
      endloop
   endfacet
   facet normal -0.907575 0.419889 0
      outer loop
         vertex -0.0181515 -0.0116022 0.05
         vertex -0.0181515 -0.0116022 0.35
         vertex -0.0171371 -0.00968892 0.35
      endloop
   endfacet
   facet normal -0.856857 0.515554 0
      outer loop
         vertex -0.0171371 -0.00968892 0.05
         vertex -0.0171371 -0.00968892 0.35
         vertex -0.0159219 -0.00789652 0.35
      endloop
   endfacet
   facet normal -0.796093 0.605174 0
      outer loop
         vertex -0.0159219 -0.00789652 0.05
         vertex -0.0159219 -0.00789652 0.35
         vertex -0.0145199 -0.00624601 0.35
      endloop
   endfacet
   facet normal -0.725995 0.687699 0
      outer loop
         vertex -0.0145199 -0.00624601 0.05
         vertex -0.0145199 -0.00624601 0.35
         vertex -0.0129477 -0.00475676 0.35
      endloop
   endfacet
   facet normal -0.647386 0.762162 0
      outer loop
         vertex -0.0129477 -0.00475676 0.05
         vertex -0.0129477 -0.00475676 0.35
         vertex -0.0112237 -0.00344622 0.35
      endloop
   endfacet
   facet normal -0.561187 0.827689 0
      outer loop
         vertex -0.0112237 -0.00344622 0.05
         vertex -0.0112237 -0.00344622 0.35
         vertex -0.00936817 -0.00232976 0.35
      endloop
   endfacet
   facet normal -0.468408 0.883512 0
      outer loop
         vertex -0.00936817 -0.00232976 0.05
         vertex -0.00936817 -0.00232976 0.35
         vertex -0.00740276 -0.00142047 0.35
      endloop
   endfacet
   facet normal -0.370138 0.928977 0
      outer loop
         vertex -0.00740276 -0.00142047 0.05
         vertex -0.00740276 -0.00142047 0.35
         vertex -0.00535057 -0.000729 0.35
      endloop
   endfacet
   facet normal -0.267528 0.96355 0
      outer loop
         vertex -0.00535057 -0.000729 0.05
         vertex -0.00535057 -0.000729 0.35
         vertex -0.00323564 -0.00026347 0.35
      endloop
   endfacet
   facet normal -0.161782 0.986827 0
      outer loop
         vertex -0.00323564 -0.00026347 0.05
         vertex -0.00323564 -0.00026347 0.35
         vertex -0.00108278 -2.93317e-05 0.35
      endloop
   endfacet
   facet normal 6.12323e-17 1 0
      outer loop
         vertex 0 -3.46945e-18 0.35
         vertex 0.00108278 -2.93317e-05 0.35
         vertex 0.00108278 -2.93317e-05 0.05
      endloop
   endfacet
   facet normal 0.0541389 0.998533 0
      outer loop
         vertex 0.00108278 -2.93317e-05 0.05
         vertex 0.00108278 -2.93317e-05 0.35
         vertex 0.00323564 -0.00026347 0.35
      endloop
   endfacet
   facet normal 0.161782 0.986827 0
      outer loop
         vertex 0.00323564 -0.00026347 0.05
         vertex 0.00323564 -0.00026347 0.35
         vertex 0.00535057 -0.000729 0.35
      endloop
   endfacet
   facet normal 0.267528 0.96355 0
      outer loop
         vertex 0.00535057 -0.000729 0.05
         vertex 0.00535057 -0.000729 0.35
         vertex 0.00740276 -0.00142047 0.35
      endloop
   endfacet
   facet normal 0.370138 0.928977 0
      outer loop
         vertex 0.00740276 -0.00142047 0.05
         vertex 0.00740276 -0.00142047 0.35
         vertex 0.00936817 -0.00232976 0.35
      endloop
   endfacet
   facet normal 0.468408 0.883512 0
      outer loop
         vertex 0.00936817 -0.00232976 0.05
         vertex 0.00936817 -0.00232976 0.35
         vertex 0.0112237 -0.00344622 0.35
      endloop
   endfacet
   facet normal 0.561187 0.827689 0
      outer loop
         vertex 0.0112237 -0.00344622 0.05
         vertex 0.0112237 -0.00344622 0.35
         vertex 0.0129477 -0.00475676 0.35
      endloop
   endfacet
   facet normal 0.647386 0.762162 0
      outer loop
         vertex 0.0129477 -0.00475676 0.05
         vertex 0.0129477 -0.00475676 0.35
         vertex 0.0145199 -0.00624601 0.35
      endloop
   endfacet
   facet normal 0.725995 0.687699 0
      outer loop
         vertex 0.0145199 -0.00624601 0.05
         vertex 0.0145199 -0.00624601 0.35
         vertex 0.0159219 -0.00789652 0.35
      endloop
   endfacet
   facet normal 0.796093 0.605174 0
      outer loop
         vertex 0.0159219 -0.00789652 0.05
         vertex 0.0159219 -0.00789652 0.35
         vertex 0.0171371 -0.00968892 0.35
      endloop
   endfacet
   facet normal 0.856857 0.515554 0
      outer loop
         vertex 0.0171371 -0.00968892 0.05
         vertex 0.0171371 -0.00968892 0.35
         vertex 0.0181515 -0.0116022 0.35
      endloop
   endfacet
   facet normal 0.907575 0.419889 0
      outer loop
         vertex 0.0181515 -0.0116022 0.05
         vertex 0.0181515 -0.0116022 0.35
         vertex 0.0189531 -0.013614 0.35
      endloop
   endfacet
   facet normal 0.947653 0.319302 0
      outer loop
         vertex 0.0189531 -0.013614 0.05
         vertex 0.0189531 -0.013614 0.35
         vertex 0.0195324 -0.0157006 0.35
      endloop
   endfacet
   facet normal 0.976621 0.21497 0
      outer loop
         vertex 0.0195324 -0.0157006 0.05
         vertex 0.0195324 -0.0157006 0.35
         vertex 0.0198828 -0.0178376 0.35
      endloop
   endfacet
   facet normal 0.994138 0.108119 0
      outer loop
         vertex 0.0198828 -0.0178376 0.05
         vertex 0.0198828 -0.0178376 0.35
         vertex 0.02 -0.02 0.35
      endloop
   endfacet
   facet normal 0 0 -1
      outer loop
         vertex 0.085 0 0.35
         vertex 0.0181515 -0.0116022 0.35
         vertex 0.0171371 -0.00968892 0.35
      endloop
   endfacet
   facet normal 0 0 -1
      outer loop
         vertex 0.085 0 0.35
         vertex 0.00323564 -0.00026347 0.35
         vertex 0.00108278 -2.93317e-05 0.35
      endloop
   endfacet
   facet normal 0 0 -1
      outer loop
         vertex 0.085 0 0.35
         vertex 0.0189531 -0.013614 0.35
         vertex 0.0181515 -0.0116022 0.35
      endloop
   endfacet
   facet normal 0 0 -1
      outer loop
         vertex 0.085 0 0.35
         vertex 0.00535057 -0.000729 0.35
         vertex 0.00323564 -0.00026347 0.35
      endloop
   endfacet
   facet normal 0 0 -1
      outer loop
         vertex 0.085 0 0.35
         vertex 0.0112237 -0.00344622 0.35
         vertex 0.00936817 -0.00232976 0.35
      endloop
   endfacet
   facet normal 0 0 -1
      outer loop
         vertex 0.085 0 0.35
         vertex 0.0159219 -0.00789652 0.35
         vertex 0.0145199 -0.00624601 0.35
      endloop
   endfacet
   facet normal 0 0 -1
      outer loop
         vertex 0.085 0 0.35
         vertex 0.0195324 -0.0157006 0.35
         vertex 0.0189531 -0.013614 0.35
      endloop
   endfacet
   facet normal 0 0 -1
      outer loop
         vertex 0.085 0 0.35
         vertex 0.085 -0.04 0.35
         vertex 0.02 -0.02 0.35
      endloop
   endfacet
   facet normal 0 0 -1
      outer loop
         vertex 0.085 0 0.35
         vertex 0.00740276 -0.00142047 0.35
         vertex 0.00535057 -0.000729 0.35
      endloop
   endfacet
   facet normal 0 0 -1
      outer loop
         vertex 0.085 0 0.35
         vertex 0.0129477 -0.00475676 0.35
         vertex 0.0112237 -0.00344622 0.35
      endloop
   endfacet
   facet normal 0 0 -1
      outer loop
         vertex 0.0171371 -0.00968892 0.35
         vertex 0.0159219 -0.00789652 0.35
         vertex 0.085 0 0.35
      endloop
   endfacet
   facet normal 0 0 -1
      outer loop
         vertex 0.02 -0.02 0.35
         vertex 0.0198828 -0.0178376 0.35
         vertex 0.085 0 0.35
      endloop
   endfacet
   facet normal 0 0 -1
      outer loop
         vertex 0.085 -0.04 0.35
         vertex 0.0112237 -0.0365538 0.35
         vertex 0.0129477 -0.0352432 0.35
      endloop
   endfacet
   facet normal 0 0 -1
      outer loop
         vertex 0.00936817 -0.00232976 0.35
         vertex 0.00740276 -0.00142047 0.35
         vertex 0.085 0 0.35
      endloop
   endfacet
   facet normal 0 0 -1
      outer loop
         vertex 0.0198828 -0.0178376 0.35
         vertex 0.0195324 -0.0157006 0.35
         vertex 0.085 0 0.35
      endloop
   endfacet
   facet normal 0 0 -1
      outer loop
         vertex 0.0129477 -0.0352432 0.35
         vertex 0.0145199 -0.033754 0.35
         vertex 0.085 -0.04 0.35
      endloop
   endfacet
   facet normal 0 0 -1
      outer loop
         vertex 0.0145199 -0.00624601 0.35
         vertex 0.0129477 -0.00475676 0.35
         vertex 0.085 0 0.35
      endloop
   endfacet
   facet normal 0 0 -1
      outer loop
         vertex 0.085 -0.04 0.35
         vertex 0.0195324 -0.0242994 0.35
         vertex 0.0198828 -0.0221624 0.35
      endloop
   endfacet
   facet normal 0 0 -1
      outer loop
         vertex 0.085 -0.04 0.35
         vertex 0.0181515 -0.0283978 0.35
         vertex 0.0189531 -0.026386 0.35
      endloop
   endfacet
   facet normal 0 0 -1
      outer loop
         vertex 0.085 -0.04 0.35
         vertex 0.0159219 -0.0321035 0.35
         vertex 0.0171371 -0.0303111 0.35
      endloop
   endfacet
   facet normal 0 0 -1
      outer loop
         vertex 0.085 -0.04 0.35
         vertex 0.00936817 -0.0376702 0.35
         vertex 0.0112237 -0.0365538 0.35
      endloop
   endfacet
   facet normal 0 0 -1
      outer loop
         vertex 0.085 -0.04 0.35
         vertex 0.00535057 -0.039271 0.35
         vertex 0.00740276 -0.0385795 0.35
      endloop
   endfacet
   facet normal 0 0 -1
      outer loop
         vertex 0.085 -0.04 0.35
         vertex 0 -0.04 0.35
         vertex 0.00108278 -0.0399707 0.35
      endloop
   endfacet
   facet normal 0 0 -1
      outer loop
         vertex 0.0198828 -0.0221624 0.35
         vertex 0.02 -0.02 0.35
         vertex 0.085 -0.04 0.35
      endloop
   endfacet
   facet normal 0 0 -1
      outer loop
         vertex 0.0171371 -0.0303111 0.35
         vertex 0.0181515 -0.0283978 0.35
         vertex 0.085 -0.04 0.35
      endloop
   endfacet
   facet normal 0 0 -1
      outer loop
         vertex 0.00740276 -0.0385795 0.35
         vertex 0.00936817 -0.0376702 0.35
         vertex 0.085 -0.04 0.35
      endloop
   endfacet
   facet normal 0 0 -1
      outer loop
         vertex 0.00108278 -0.0399707 0.35
         vertex 0.00323564 -0.0397365 0.35
         vertex 0.085 -0.04 0.35
      endloop
   endfacet
   facet normal 0 0 -1
      outer loop
         vertex 0.0189531 -0.026386 0.35
         vertex 0.0195324 -0.0242994 0.35
         vertex 0.085 -0.04 0.35
      endloop
   endfacet
   facet normal 0 0 -1
      outer loop
         vertex 0.00323564 -0.0397365 0.35
         vertex 0.00535057 -0.039271 0.35
         vertex 0.085 -0.04 0.35
      endloop
   endfacet
   facet normal 0 0 -1
      outer loop
         vertex 0.0145199 -0.033754 0.35
         vertex 0.0159219 -0.0321035 0.35
         vertex 0.085 -0.04 0.35
      endloop
   endfacet
   facet normal 0 0 -1
      outer loop
         vertex 0.00108278 -2.93317e-05 0.35
         vertex 0 -3.46945e-18 0.35
         vertex 0.085 0 0.35
      endloop
   endfacet
   facet normal 0 0 -1
      outer loop
         vertex -0.085 -0.04 0.35
         vertex -0.085 0 0.35
         vertex -0.02 -0.02 0.35
      endloop
   endfacet
   facet normal 0 0 -1
      outer loop
         vertex -0.085 0 0.35
         vertex -0.0195324 -0.0157006 0.35
         vertex -0.0198828 -0.0178376 0.35
      endloop
   endfacet
   facet normal 0 0 -1
      outer loop
         vertex -0.085 0 0.35
         vertex -0.0171371 -0.00968892 0.35
         vertex -0.0181515 -0.0116022 0.35
      endloop
   endfacet
   facet normal 0 0 -1
      outer loop
         vertex -0.085 0 0.35
         vertex -0.00740276 -0.00142047 0.35
         vertex -0.00936817 -0.00232976 0.35
      endloop
   endfacet
   facet normal 0 0 -1
      outer loop
         vertex -0.085 -0.04 0.35
         vertex -0.0181515 -0.0283978 0.35
         vertex -0.0171371 -0.0303111 0.35
      endloop
   endfacet
   facet normal 0 0 -1
      outer loop
         vertex -0.02 -0.02 0.35
         vertex -0.0198828 -0.0221624 0.35
         vertex -0.085 -0.04 0.35
      endloop
   endfacet
   facet normal 0 0 -1
      outer loop
         vertex -0.085 0 0.35
         vertex -0.0189531 -0.013614 0.35
         vertex -0.0195324 -0.0157006 0.35
      endloop
   endfacet
   facet normal 0 0 -1
      outer loop
         vertex -0.085 0 0.35
         vertex -0.0159219 -0.00789652 0.35
         vertex -0.0171371 -0.00968892 0.35
      endloop
   endfacet
   facet normal 0 0 -1
      outer loop
         vertex -0.085 0 0.35
         vertex -0.0129477 -0.00475676 0.35
         vertex -0.0145199 -0.00624601 0.35
      endloop
   endfacet
   facet normal 0 0 -1
      outer loop
         vertex -0.00936817 -0.00232976 0.35
         vertex -0.0112237 -0.00344622 0.35
         vertex -0.085 0 0.35
      endloop
   endfacet
   facet normal 0 0 -1
      outer loop
         vertex -0.085 -0.04 0.35
         vertex -0.0189531 -0.026386 0.35
         vertex -0.0181515 -0.0283978 0.35
      endloop
   endfacet
   facet normal 0 0 -1
      outer loop
         vertex -0.0198828 -0.0221624 0.35
         vertex -0.0195324 -0.0242994 0.35
         vertex -0.085 -0.04 0.35
      endloop
   endfacet
   facet normal 0 0 -1
      outer loop
         vertex -0.0181515 -0.0116022 0.35
         vertex -0.0189531 -0.013614 0.35
         vertex -0.085 0 0.35
      endloop
   endfacet
   facet normal 0 0 -1
      outer loop
         vertex -0.0112237 -0.00344622 0.35
         vertex -0.0129477 -0.00475676 0.35
         vertex -0.085 0 0.35
      endloop
   endfacet
   facet normal 0 0 -1
      outer loop
         vertex -0.085 -0.04 0.35
         vertex -0.0145199 -0.033754 0.35
         vertex -0.0129477 -0.0352432 0.35
      endloop
   endfacet
   facet normal 0 0 -1
      outer loop
         vertex -0.0195324 -0.0242994 0.35
         vertex -0.0189531 -0.026386 0.35
         vertex -0.085 -0.04 0.35
      endloop
   endfacet
   facet normal 0 0 -1
      outer loop
         vertex -0.0145199 -0.00624601 0.35
         vertex -0.0159219 -0.00789652 0.35
         vertex -0.085 0 0.35
      endloop
   endfacet
   facet normal 0 0 -1
      outer loop
         vertex -0.085 -0.04 0.35
         vertex -0.0159219 -0.0321035 0.35
         vertex -0.0145199 -0.033754 0.35
      endloop
   endfacet
   facet normal 0 0 -1
      outer loop
         vertex -0.0198828 -0.0178376 0.35
         vertex -0.02 -0.02 0.35
         vertex -0.085 0 0.35
      endloop
   endfacet
   facet normal 0 0 -1
      outer loop
         vertex -0.085 0 0.35
         vertex 0 -3.46945e-18 0.35
         vertex -0.00108278 -2.93317e-05 0.35
      endloop
   endfacet
   facet normal 0 0 -1
      outer loop
         vertex -0.085 -0.04 0.35
         vertex -0.0112237 -0.0365538 0.35
         vertex -0.00936817 -0.0376702 0.35
      endloop
   endfacet
   facet normal 0 0 -1
      outer loop
         vertex -0.0171371 -0.0303111 0.35
         vertex -0.0159219 -0.0321035 0.35
         vertex -0.085 -0.04 0.35
      endloop
   endfacet
   facet normal 0 0 -1
      outer loop
         vertex -0.00108278 -2.93317e-05 0.35
         vertex -0.00323564 -0.00026347 0.35
         vertex -0.085 0 0.35
      endloop
   endfacet
   facet normal 0 0 -1
      outer loop
         vertex -0.085 -0.04 0.35
         vertex -0.00323564 -0.0397365 0.35
         vertex -0.00108278 -0.0399707 0.35
      endloop
   endfacet
   facet normal 0 0 -1
      outer loop
         vertex -0.085 -0.04 0.35
         vertex -0.00740276 -0.0385795 0.35
         vertex -0.00535057 -0.039271 0.35
      endloop
   endfacet
   facet normal 0 0 -1
      outer loop
         vertex -0.0129477 -0.0352432 0.35
         vertex -0.0112237 -0.0365538 0.35
         vertex -0.085 -0.04 0.35
      endloop
   endfacet
   facet normal 0 0 -1
      outer loop
         vertex -0.00323564 -0.00026347 0.35
         vertex -0.00535057 -0.000729 0.35
         vertex -0.085 0 0.35
      endloop
   endfacet
   facet normal 0 0 -1
      outer loop
         vertex -0.00535057 -0.039271 0.35
         vertex -0.00323564 -0.0397365 0.35
         vertex -0.085 -0.04 0.35
      endloop
   endfacet
   facet normal 0 0 -1
      outer loop
         vertex -0.00535057 -0.000729 0.35
         vertex -0.00740276 -0.00142047 0.35
         vertex -0.085 0 0.35
      endloop
   endfacet
   facet normal 0 0 -1
      outer loop
         vertex -0.00936817 -0.0376702 0.35
         vertex -0.00740276 -0.0385795 0.35
         vertex -0.085 -0.04 0.35
      endloop
   endfacet
   facet normal 0 0 -1
      outer loop
         vertex -0.00108278 -0.0399707 0.35
         vertex 0 -0.04 0.35
         vertex -0.085 -0.04 0.35
      endloop
   endfacet
   facet normal 0 1 0
      outer loop
         vertex 0.125 0 0.39
         vertex 0.085 0 0.35
         vertex 0 -3.46945e-18 0.35
      endloop
   endfacet
   facet normal 0 1 0
      outer loop
         vertex -0.125 0 0.04
         vertex -0.125 0 0.39
         vertex -0.085 0 0.35
      endloop
   endfacet
   facet normal 0 1 0
      outer loop
         vertex 0 -3.46945e-18 0.35
         vertex -0.125 0 0.39
         vertex 0.125 0 0.39
      endloop
   endfacet
   facet normal 0 1 0
      outer loop
         vertex 0 -3.46945e-18 0.35
         vertex -0.085 0 0.35
         vertex -0.125 0 0.39
      endloop
   endfacet
   facet normal 0 1 0
      outer loop
         vertex 0.125 0 0.04
         vertex 0.085 0 0.04
         vertex 0.085 0 0.35
      endloop
   endfacet
   facet normal 0 1 0
      outer loop
         vertex 0.085 0 0.35
         vertex 0.125 0 0.39
         vertex 0.125 0 0.04
      endloop
   endfacet
   facet normal 0 1 0
      outer loop
         vertex -0.085 0 0.35
         vertex -0.085 0 0.04
         vertex -0.125 0 0.04
      endloop
   endfacet
   facet normal 0 0 1
      outer loop
         vertex 0.125 -0.04 0.39
         vertex 0.125 0 0.39
         vertex -0.125 0 0.39
      endloop
   endfacet
   facet normal 0 0 1
      outer loop
         vertex -0.125 0 0.39
         vertex -0.125 -0.04 0.39
         vertex 0.125 -0.04 0.39
      endloop
   endfacet
   facet normal 0 0 1
      outer loop
         vertex 0.085 0.5 0.04
         vertex 0.085 0 0.04
         vertex 0.125 0 0.04
      endloop
   endfacet
   facet normal 0 0 1
      outer loop
         vertex 0.125 0 0.04
         vertex 0.125 0.5 0.04
         vertex 0.085 0.5 0.04
      endloop
   endfacet
   facet normal 0 1 0
      outer loop
         vertex 0.125 0.5 0.04
         vertex 0.125 0.5 0
         vertex 0.085 0.5 0
      endloop
   endfacet
   facet normal 0 1 0
      outer loop
         vertex 0.085 0.5 0
         vertex 0.085 0.5 0.04
         vertex 0.125 0.5 0.04
      endloop
   endfacet
   facet normal 0 0 -1
      outer loop
         vertex 0.125 0.5 0
         vertex 0.125 0 0
         vertex 0.085 0 0
      endloop
   endfacet
   facet normal 0 0 -1
      outer loop
         vertex 0.085 0 0
         vertex 0.085 0.5 0
         vertex 0.125 0.5 0
      endloop
   endfacet
   facet normal 1 -3.05311e-16 0
      outer loop
         vertex 0.125 0.5 0.04
         vertex 0.125 0 0.04
         vertex 0.125 0 0
      endloop
   endfacet
   facet normal 1 -3.05311e-16 0
      outer loop
         vertex 0.125 -0.04 -0.35
         vertex 0.125 0 -0.35
         vertex 0.125 0 0
      endloop
   endfacet
   facet normal 1 -3.05311e-16 0
      outer loop
         vertex 0.125 -0.04 0.39
         vertex 0.125 -0.04 -0.35
         vertex 0.125 0 0.04
      endloop
   endfacet
   facet normal 1 -3.05311e-16 0
      outer loop
         vertex 0.125 0 0
         vertex 0.125 0 0.04
         vertex 0.125 -0.04 -0.35
      endloop
   endfacet
   facet normal 1 -3.05311e-16 0
      outer loop
         vertex 0.125 0 0
         vertex 0.125 0.5 0
         vertex 0.125 0.5 0.04
      endloop
   endfacet
   facet normal 1 -3.05311e-16 0
      outer loop
         vertex 0.125 0 0.04
         vertex 0.125 0 0.39
         vertex 0.125 -0.04 0.39
      endloop
   endfacet
   facet normal -1 0 0
      outer loop
         vertex 0.085 0.5 0
         vertex 0.085 0 0
         vertex 0.085 0 0.04
      endloop
   endfacet
   facet normal -1 0 0
      outer loop
         vertex 0.085 -0.04 0.35
         vertex 0.085 0 0.35
         vertex 0.085 0 0.04
      endloop
   endfacet
   facet normal -1 0 0
      outer loop
         vertex 0.085 -0.04 -0.35
         vertex 0.085 -0.04 0.35
         vertex 0.085 0 0
      endloop
   endfacet
   facet normal -1 0 0
      outer loop
         vertex 0.085 0 0.04
         vertex 0.085 0 0
         vertex 0.085 -0.04 0.35
      endloop
   endfacet
   facet normal -1 0 0
      outer loop
         vertex 0.085 0 0.04
         vertex 0.085 0.5 0.04
         vertex 0.085 0.5 0
      endloop
   endfacet
   facet normal -1 0 0
      outer loop
         vertex 0.085 0 0
         vertex 0.085 0 -0.35
         vertex 0.085 -0.04 -0.35
      endloop
   endfacet
   facet normal 0 1 0
      outer loop
         vertex 0.085 0 -0.35
         vertex 0.085 0 0
         vertex 0.125 0 0
      endloop
   endfacet
   facet normal 0 1 0
      outer loop
         vertex 0.125 0 0
         vertex 0.125 0 -0.35
         vertex 0.085 0 -0.35
      endloop
   endfacet
   facet normal 0 0 -1
      outer loop
         vertex 0.085 0 -0.35
         vertex 0.125 0 -0.35
         vertex 0.125 -0.04 -0.35
      endloop
   endfacet
   facet normal 0 0 -1
      outer loop
         vertex 0.125 -0.04 -0.35
         vertex 0.085 -0.04 -0.35
         vertex 0.085 0 -0.35
      endloop
   endfacet
   facet normal 0 -1 0
      outer loop
         vertex -0.125 -0.04 0.39
         vertex -0.085 -0.04 0.35
         vertex 0 -0.04 0.35
      endloop
   endfacet
   facet normal 0 -1 0
      outer loop
         vertex 0.125 -0.04 -0.35
         vertex 0.125 -0.04 0.39
         vertex 0.085 -0.04 0.35
      endloop
   endfacet
   facet normal 0 -1 0
      outer loop
         vertex 0 -0.04 0.35
         vertex 0.125 -0.04 0.39
         vertex -0.125 -0.04 0.39
      endloop
   endfacet
   facet normal 0 -1 0
      outer loop
         vertex 0 -0.04 0.35
         vertex 0.085 -0.04 0.35
         vertex 0.125 -0.04 0.39
      endloop
   endfacet
   facet normal 0 -1 0
      outer loop
         vertex -0.125 -0.04 -0.35
         vertex -0.085 -0.04 -0.35
         vertex -0.085 -0.04 0.35
      endloop
   endfacet
   facet normal 0 -1 0
      outer loop
         vertex -0.085 -0.04 0.35
         vertex -0.125 -0.04 0.39
         vertex -0.125 -0.04 -0.35
      endloop
   endfacet
   facet normal 0 -1 0
      outer loop
         vertex 0.085 -0.04 0.35
         vertex 0.085 -0.04 -0.35
         vertex 0.125 -0.04 -0.35
      endloop
   endfacet
   facet normal 0 0 1
      outer loop
         vertex -0.125 0 0.04
         vertex -0.085 0 0.04
         vertex -0.085 0.5 0.04
      endloop
   endfacet
   facet normal 0 0 1
      outer loop
         vertex -0.085 0.5 0.04
         vertex -0.125 0.5 0.04
         vertex -0.125 0 0.04
      endloop
   endfacet
   facet normal 0 1 0
      outer loop
         vertex -0.085 0.5 0.04
         vertex -0.085 0.5 0
         vertex -0.125 0.5 0
      endloop
   endfacet
   facet normal 0 1 0
      outer loop
         vertex -0.125 0.5 0
         vertex -0.125 0.5 0.04
         vertex -0.085 0.5 0.04
      endloop
   endfacet
   facet normal 1 0 0
      outer loop
         vertex -0.085 0.5 0.04
         vertex -0.085 0 0.04
         vertex -0.085 0 0
      endloop
   endfacet
   facet normal 1 0 0
      outer loop
         vertex -0.085 -0.04 -0.35
         vertex -0.085 0 -0.35
         vertex -0.085 0 0
      endloop
   endfacet
   facet normal 1 0 0
      outer loop
         vertex -0.085 -0.04 0.35
         vertex -0.085 -0.04 -0.35
         vertex -0.085 0 0.04
      endloop
   endfacet
   facet normal 1 0 0
      outer loop
         vertex -0.085 0 0
         vertex -0.085 0 0.04
         vertex -0.085 -0.04 -0.35
      endloop
   endfacet
   facet normal 1 0 0
      outer loop
         vertex -0.085 0 0
         vertex -0.085 0.5 0
         vertex -0.085 0.5 0.04
      endloop
   endfacet
   facet normal 1 0 0
      outer loop
         vertex -0.085 0 0.04
         vertex -0.085 0 0.35
         vertex -0.085 -0.04 0.35
      endloop
   endfacet
   facet normal -1 3.33067e-16 0
      outer loop
         vertex -0.125 0.5 0
         vertex -0.125 0 0
         vertex -0.125 0 0.04
      endloop
   endfacet
   facet normal -1 3.33067e-16 0
      outer loop
         vertex -0.125 -0.04 0.39
         vertex -0.125 0 0.39
         vertex -0.125 0 0.04
      endloop
   endfacet
   facet normal -1 3.33067e-16 0
      outer loop
         vertex -0.125 -0.04 -0.35
         vertex -0.125 -0.04 0.39
         vertex -0.125 0 0
      endloop
   endfacet
   facet normal -1 3.33067e-16 0
      outer loop
         vertex -0.125 0 0.04
         vertex -0.125 0 0
         vertex -0.125 -0.04 0.39
      endloop
   endfacet
   facet normal -1 3.33067e-16 0
      outer loop
         vertex -0.125 0 0.04
         vertex -0.125 0.5 0.04
         vertex -0.125 0.5 0
      endloop
   endfacet
   facet normal -1 3.33067e-16 0
      outer loop
         vertex -0.125 0 0
         vertex -0.125 0 -0.35
         vertex -0.125 -0.04 -0.35
      endloop
   endfacet
   facet normal 0 0 -1
      outer loop
         vertex -0.125 0.5 0
         vertex -0.085 0.5 0
         vertex -0.085 0 0
      endloop
   endfacet
   facet normal 0 0 -1
      outer loop
         vertex -0.085 0 0
         vertex -0.125 0 0
         vertex -0.125 0.5 0
      endloop
   endfacet
   facet normal 0 1 0
      outer loop
         vertex -0.125 0 -0.35
         vertex -0.125 0 0
         vertex -0.085 0 0
      endloop
   endfacet
   facet normal 0 1 0
      outer loop
         vertex -0.085 0 0
         vertex -0.085 0 -0.35
         vertex -0.125 0 -0.35
      endloop
   endfacet
   facet normal 0 0 -1
      outer loop
         vertex -0.125 0 -0.35
         vertex -0.085 0 -0.35
         vertex -0.085 -0.04 -0.35
      endloop
   endfacet
   facet normal 0 0 -1
      outer loop
         vertex -0.085 -0.04 -0.35
         vertex -0.125 -0.04 -0.35
         vertex -0.125 0 -0.35
      endloop
   endfacet
endsolid Frame. Units = meters