solid Mounting_frame. STL generated by ONSHAPE BY PTC INC, 1.220. Units = meters
   facet normal -1 0 0
      outer loop
         vertex 0 -0.04 0.125
         vertex 0 -0.0379457 0.143889
         vertex 0 -0.0359156 0.143556
      endloop
   endfacet
   facet normal -1 0 0
      outer loop
         vertex 0 -0.0359156 0.143556
         vertex 0 -0.0339333 0.143005
         vertex 0 -0.04 0.125
      endloop
   endfacet
   facet normal -1 0 0
      outer loop
         vertex 0 -0.0339333 0.143005
         vertex 0 -0.0320221 0.142244
         vertex 0 -0.04 0.125
      endloop
   endfacet
   facet normal -1 0 0
      outer loop
         vertex 0 -0.0320221 0.142244
         vertex 0 -0.0302045 0.14128
         vertex 0 -0.04 0.125
      endloop
   endfacet
   facet normal -1 0 0
      outer loop
         vertex 0 -0.0302045 0.14128
         vertex 0 -0.0285017 0.140126
         vertex 0 -0.04 0.125
      endloop
   endfacet
   facet normal -1 0 0
      outer loop
         vertex 0 -0.0285017 0.140126
         vertex 0 -0.0269337 0.138794
         vertex 0 -0.04 0.125
      endloop
   endfacet
   facet normal -1 0 0
      outer loop
         vertex 0 -0.0269337 0.138794
         vertex 0 -0.0255189 0.1373
         vertex 0 -0.04 0.125
      endloop
   endfacet
   facet normal -1 0 0
      outer loop
         vertex 0 -0.0255189 0.1373
         vertex 0 -0.0242739 0.135663
         vertex 0 -0.04 0.125
      endloop
   endfacet
   facet normal -1 0 0
      outer loop
         vertex 0 -0.0242739 0.135663
         vertex 0 -0.0232133 0.1339
         vertex 0 -0.04 0.125
      endloop
   endfacet
   facet normal -1 0 0
      outer loop
         vertex 0 -0.0232133 0.1339
         vertex 0 -0.0223494 0.132033
         vertex 0 -0.04 0.125
      endloop
   endfacet
   facet normal -1 0 0
      outer loop
         vertex 0 -0.0223494 0.132033
         vertex 0 -0.0216926 0.130083
         vertex 0 -0.04 0.125
      endloop
   endfacet
   facet normal -1 0 0
      outer loop
         vertex 0 -0.0216926 0.130083
         vertex 0 -0.0212503 0.128074
         vertex 0 -0.04 0.125
      endloop
   endfacet
   facet normal -1 0 0
      outer loop
         vertex 0 -0.0212503 0.128074
         vertex 0 -0.0210279 0.126029
         vertex 0 -0.04 0.125
      endloop
   endfacet
   facet normal -1 0 0
      outer loop
         vertex 0 -0.0210279 0.126029
         vertex 0 -0.0210279 0.123971
         vertex 0 -0.04 0.125
      endloop
   endfacet
   facet normal -1 0 0
      outer loop
         vertex 0 -0.0210279 0.123971
         vertex 0 -0.0212503 0.121926
         vertex 0 -0.04 0.125
      endloop
   endfacet
   facet normal -1 0 0
      outer loop
         vertex 0 -0.0212503 0.121926
         vertex 0 -0.0216926 0.119917
         vertex 0 -0.04 0.125
      endloop
   endfacet
   facet normal -1 0 0
      outer loop
         vertex 0 -0.0216926 0.119917
         vertex 0 -0.0223494 0.117967
         vertex 0 -0.04 0.125
      endloop
   endfacet
   facet normal -1 0 0
      outer loop
         vertex 0 -0.0223494 0.117967
         vertex 0 -0.0232133 0.1161
         vertex 0 -0.04 0.125
      endloop
   endfacet
   facet normal -1 0 0
      outer loop
         vertex 0 -0.0232133 0.1161
         vertex 0 -0.0242739 0.114337
         vertex 0 -0.04 0.125
      endloop
   endfacet
   facet normal -1 0 0
      outer loop
         vertex 0 -0.0242739 0.114337
         vertex 0 -0.0255189 0.1127
         vertex 0 -0.04 0.125
      endloop
   endfacet
   facet normal -1 0 0
      outer loop
         vertex 0 -0.0255189 0.1127
         vertex 0 -0.0269337 0.111206
         vertex 0 -0.04 0.125
      endloop
   endfacet
   facet normal -1 0 0
      outer loop
         vertex 0 -0.0269337 0.111206
         vertex 0 -0.0285017 0.109874
         vertex 0 -0.04 0.125
      endloop
   endfacet
   facet normal -1 0 0
      outer loop
         vertex 0 -0.0285017 0.109874
         vertex 0 -0.0302045 0.10872
         vertex 0 -0.04 0.125
      endloop
   endfacet
   facet normal -1 0 0
      outer loop
         vertex 0 -0.0302045 0.10872
         vertex 0 -0.0320221 0.107756
         vertex 0 -0.04 0.125
      endloop
   endfacet
   facet normal -1 0 0
      outer loop
         vertex 0 -0.0320221 0.107756
         vertex 0 -0.0339333 0.106995
         vertex 0 -0.04 0.125
      endloop
   endfacet
   facet normal -1 0 0
      outer loop
         vertex 0 -0.0339333 0.106995
         vertex 0 -0.0359156 0.106444
         vertex 0 -0.04 0.125
      endloop
   endfacet
   facet normal -1 0 0
      outer loop
         vertex 0 -0.0359156 0.106444
         vertex 0 -0.0379457 0.106111
         vertex 0 -0.04 0.125
      endloop
   endfacet
   facet normal -1 0 0
      outer loop
         vertex 0 -0.0379457 0.106111
         vertex 0 -0.04 0.106
         vertex 0 -0.04 0.125
      endloop
   endfacet
   facet normal -1 0 0
      outer loop
         vertex 0 -0.04 0.106
         vertex 0 -0.0420543 0.106111
         vertex 0 -0.04 0.125
      endloop
   endfacet
   facet normal -1 0 0
      outer loop
         vertex 0 -0.0420543 0.106111
         vertex 0 -0.0440844 0.106444
         vertex 0 -0.04 0.125
      endloop
   endfacet
   facet normal -1 0 0
      outer loop
         vertex 0 -0.0440844 0.106444
         vertex 0 -0.0460667 0.106995
         vertex 0 -0.04 0.125
      endloop
   endfacet
   facet normal -1 0 0
      outer loop
         vertex 0 -0.0460667 0.106995
         vertex 0 -0.0479779 0.107756
         vertex 0 -0.04 0.125
      endloop
   endfacet
   facet normal -1 0 0
      outer loop
         vertex 0 -0.0479779 0.107756
         vertex 0 -0.0497955 0.10872
         vertex 0 -0.04 0.125
      endloop
   endfacet
   facet normal -1 0 0
      outer loop
         vertex 0 -0.0497955 0.10872
         vertex 0 -0.0514983 0.109874
         vertex 0 -0.04 0.125
      endloop
   endfacet
   facet normal -1 0 0
      outer loop
         vertex 0 -0.0514983 0.109874
         vertex 0 -0.0530663 0.111206
         vertex 0 -0.04 0.125
      endloop
   endfacet
   facet normal -1 0 0
      outer loop
         vertex 0 -0.0530663 0.111206
         vertex 0 -0.0544811 0.1127
         vertex 0 -0.04 0.125
      endloop
   endfacet
   facet normal -1 0 0
      outer loop
         vertex 0 -0.0544811 0.1127
         vertex 0 -0.0557261 0.114337
         vertex 0 -0.04 0.125
      endloop
   endfacet
   facet normal -1 0 0
      outer loop
         vertex 0 -0.0557261 0.114337
         vertex 0 -0.0567867 0.1161
         vertex 0 -0.04 0.125
      endloop
   endfacet
   facet normal -1 0 0
      outer loop
         vertex 0 -0.0567867 0.1161
         vertex 0 -0.0576506 0.117967
         vertex 0 -0.04 0.125
      endloop
   endfacet
   facet normal -1 0 0
      outer loop
         vertex 0 -0.0576506 0.117967
         vertex 0 -0.0583074 0.119917
         vertex 0 -0.04 0.125
      endloop
   endfacet
   facet normal -1 0 0
      outer loop
         vertex 0 -0.0583074 0.119917
         vertex 0 -0.0587497 0.121926
         vertex 0 -0.04 0.125
      endloop
   endfacet
   facet normal -1 0 0
      outer loop
         vertex 0 -0.0587497 0.121926
         vertex 0 -0.0589721 0.123971
         vertex 0 -0.04 0.125
      endloop
   endfacet
   facet normal -1 0 0
      outer loop
         vertex 0 -0.0589721 0.123971
         vertex 0 -0.0589721 0.126029
         vertex 0 -0.04 0.125
      endloop
   endfacet
   facet normal -1 0 0
      outer loop
         vertex 0 -0.0589721 0.126029
         vertex 0 -0.0587497 0.128074
         vertex 0 -0.04 0.125
      endloop
   endfacet
   facet normal -1 0 0
      outer loop
         vertex 0 -0.0587497 0.128074
         vertex 0 -0.0583074 0.130083
         vertex 0 -0.04 0.125
      endloop
   endfacet
   facet normal -1 0 0
      outer loop
         vertex 0 -0.0583074 0.130083
         vertex 0 -0.0576506 0.132033
         vertex 0 -0.04 0.125
      endloop
   endfacet
   facet normal -1 0 0
      outer loop
         vertex 0 -0.0576506 0.132033
         vertex 0 -0.0567867 0.1339
         vertex 0 -0.04 0.125
      endloop
   endfacet
   facet normal -1 0 0
      outer loop
         vertex 0 -0.0567867 0.1339
         vertex 0 -0.0557261 0.135663
         vertex 0 -0.04 0.125
      endloop
   endfacet
   facet normal -1 0 0
      outer loop
         vertex 0 -0.0557261 0.135663
         vertex 0 -0.0544811 0.1373
         vertex 0 -0.04 0.125
      endloop
   endfacet
   facet normal -1 0 0
      outer loop
         vertex 0 -0.0544811 0.1373
         vertex 0 -0.0530663 0.138794
         vertex 0 -0.04 0.125
      endloop
   endfacet
   facet normal -1 0 0
      outer loop
         vertex 0 -0.0530663 0.138794
         vertex 0 -0.0514983 0.140126
         vertex 0 -0.04 0.125
      endloop
   endfacet
   facet normal -1 0 0
      outer loop
         vertex 0 -0.0514983 0.140126
         vertex 0 -0.0497955 0.14128
         vertex 0 -0.04 0.125
      endloop
   endfacet
   facet normal -1 0 0
      outer loop
         vertex 0 -0.0497955 0.14128
         vertex 0 -0.0479779 0.142244
         vertex 0 -0.04 0.125
      endloop
   endfacet
   facet normal -1 0 0
      outer loop
         vertex 0 -0.0479779 0.142244
         vertex 0 -0.0460667 0.143005
         vertex 0 -0.04 0.125
      endloop
   endfacet
   facet normal -1 0 0
      outer loop
         vertex 0 -0.0460667 0.143005
         vertex 0 -0.0440844 0.143556
         vertex 0 -0.04 0.125
      endloop
   endfacet
   facet normal -1 0 0
      outer loop
         vertex 0 -0.0440844 0.143556
         vertex 0 -0.0420543 0.143889
         vertex 0 -0.04 0.125
      endloop
   endfacet
   facet normal -1 0 0
      outer loop
         vertex 0 -0.0420543 0.143889
         vertex 0 -0.04 0.144
         vertex 0 -0.04 0.125
      endloop
   endfacet
   facet normal -1 0 0
      outer loop
         vertex 0 -0.04 0.144
         vertex 0 -0.0379457 0.143889
         vertex 0 -0.04 0.125
      endloop
   endfacet
   facet normal 0 0 -1
      outer loop
         vertex 0.3 -0.04 0.106
         vertex 0 -0.04 0.106
         vertex 0 -0.0379457 0.106111
      endloop
   endfacet
   facet normal 0 0.108119 -0.994138
      outer loop
         vertex 0.3 -0.0379457 0.106111
         vertex 0 -0.0379457 0.106111
         vertex 0 -0.0359156 0.106444
      endloop
   endfacet
   facet normal 0 0.21497 -0.976621
      outer loop
         vertex 0.3 -0.0359156 0.106444
         vertex 0 -0.0359156 0.106444
         vertex 0 -0.0339333 0.106995
      endloop
   endfacet
   facet normal 0 0.319302 -0.947653
      outer loop
         vertex 0.3 -0.0339333 0.106995
         vertex 0 -0.0339333 0.106995
         vertex 0 -0.0320221 0.107756
      endloop
   endfacet
   facet normal 0 0.419889 -0.907575
      outer loop
         vertex 0.3 -0.0320221 0.107756
         vertex 0 -0.0320221 0.107756
         vertex 0 -0.0302045 0.10872
      endloop
   endfacet
   facet normal 0 0.515554 -0.856857
      outer loop
         vertex 0.3 -0.0302045 0.10872
         vertex 0 -0.0302045 0.10872
         vertex 0 -0.0285017 0.109874
      endloop
   endfacet
   facet normal 0 0.605174 -0.796093
      outer loop
         vertex 0.3 -0.0285017 0.109874
         vertex 0 -0.0285017 0.109874
         vertex 0 -0.0269337 0.111206
      endloop
   endfacet
   facet normal 0 0.687699 -0.725995
      outer loop
         vertex 0.3 -0.0269337 0.111206
         vertex 0 -0.0269337 0.111206
         vertex 0 -0.0255189 0.1127
      endloop
   endfacet
   facet normal 0 0.762162 -0.647386
      outer loop
         vertex 0.3 -0.0255189 0.1127
         vertex 0 -0.0255189 0.1127
         vertex 0 -0.0242739 0.114337
      endloop
   endfacet
   facet normal 0 0.827689 -0.561187
      outer loop
         vertex 0.3 -0.0242739 0.114337
         vertex 0 -0.0242739 0.114337
         vertex 0 -0.0232133 0.1161
      endloop
   endfacet
   facet normal 0 0.883512 -0.468408
      outer loop
         vertex 0.3 -0.0232133 0.1161
         vertex 0 -0.0232133 0.1161
         vertex 0 -0.0223494 0.117967
      endloop
   endfacet
   facet normal 0 0.928977 -0.370138
      outer loop
         vertex 0.3 -0.0223494 0.117967
         vertex 0 -0.0223494 0.117967
         vertex 0 -0.0216926 0.119917
      endloop
   endfacet
   facet normal 0 0.96355 -0.267528
      outer loop
         vertex 0.3 -0.0216926 0.119917
         vertex 0 -0.0216926 0.119917
         vertex 0 -0.0212503 0.121926
      endloop
   endfacet
   facet normal 0 0.986827 -0.161782
      outer loop
         vertex 0.3 -0.0212503 0.121926
         vertex 0 -0.0212503 0.121926
         vertex 0 -0.0210279 0.123971
      endloop
   endfacet
   facet normal 0 0.998533 -0.0541389
      outer loop
         vertex 0.3 -0.0210279 0.123971
         vertex 0 -0.0210279 0.123971
         vertex 0 -0.0210279 0.126029
      endloop
   endfacet
   facet normal 0 0.998533 0.0541389
      outer loop
         vertex 0.3 -0.0210279 0.126029
         vertex 0 -0.0210279 0.126029
         vertex 0 -0.0212503 0.128074
      endloop
   endfacet
   facet normal 0 0.986827 0.161782
      outer loop
         vertex 0.3 -0.0212503 0.128074
         vertex 0 -0.0212503 0.128074
         vertex 0 -0.0216926 0.130083
      endloop
   endfacet
   facet normal 0 0.96355 0.267528
      outer loop
         vertex 0.3 -0.0216926 0.130083
         vertex 0 -0.0216926 0.130083
         vertex 0 -0.0223494 0.132033
      endloop
   endfacet
   facet normal 0 0.928977 0.370138
      outer loop
         vertex 0.3 -0.0223494 0.132033
         vertex 0 -0.0223494 0.132033
         vertex 0 -0.0232133 0.1339
      endloop
   endfacet
   facet normal 0 0.883512 0.468408
      outer loop
         vertex 0.3 -0.0232133 0.1339
         vertex 0 -0.0232133 0.1339
         vertex 0 -0.0242739 0.135663
      endloop
   endfacet
   facet normal 0 0.827689 0.561187
      outer loop
         vertex 0.3 -0.0242739 0.135663
         vertex 0 -0.0242739 0.135663
         vertex 0 -0.0255189 0.1373
      endloop
   endfacet
   facet normal 0 0.762162 0.647386
      outer loop
         vertex 0.3 -0.0255189 0.1373
         vertex 0 -0.0255189 0.1373
         vertex 0 -0.0269337 0.138794
      endloop
   endfacet
   facet normal 0 0.687699 0.725995
      outer loop
         vertex 0.3 -0.0269337 0.138794
         vertex 0 -0.0269337 0.138794
         vertex 0 -0.0285017 0.140126
      endloop
   endfacet
   facet normal 0 0.605174 0.796093
      outer loop
         vertex 0.3 -0.0285017 0.140126
         vertex 0 -0.0285017 0.140126
         vertex 0 -0.0302045 0.14128
      endloop
   endfacet
   facet normal 0 0.515554 0.856857
      outer loop
         vertex 0.3 -0.0302045 0.14128
         vertex 0 -0.0302045 0.14128
         vertex 0 -0.0320221 0.142244
      endloop
   endfacet
   facet normal 0 0.419889 0.907575
      outer loop
         vertex 0.3 -0.0320221 0.142244
         vertex 0 -0.0320221 0.142244
         vertex 0 -0.0339333 0.143005
      endloop
   endfacet
   facet normal 0 0.319302 0.947653
      outer loop
         vertex 0.3 -0.0339333 0.143005
         vertex 0 -0.0339333 0.143005
         vertex 0 -0.0359156 0.143556
      endloop
   endfacet
   facet normal 0 0.21497 0.976621
      outer loop
         vertex 0.3 -0.0359156 0.143556
         vertex 0 -0.0359156 0.143556
         vertex 0 -0.0379457 0.143889
      endloop
   endfacet
   facet normal 0 0.108119 0.994138
      outer loop
         vertex 0.3 -0.0379457 0.143889
         vertex 0 -0.0379457 0.143889
         vertex 0 -0.04 0.144
      endloop
   endfacet
   facet normal 0 -3.21625e-16 1
      outer loop
         vertex 0.3 -0.04 0.144
         vertex 0 -0.04 0.144
         vertex 0 -0.0420543 0.143889
      endloop
   endfacet
   facet normal 0 -0.108119 0.994138
      outer loop
         vertex 0.3 -0.0420543 0.143889
         vertex 0 -0.0420543 0.143889
         vertex 0 -0.0440844 0.143556
      endloop
   endfacet
   facet normal 0 -0.21497 0.976621
      outer loop
         vertex 0.3 -0.0440844 0.143556
         vertex 0 -0.0440844 0.143556
         vertex 0 -0.0460667 0.143005
      endloop
   endfacet
   facet normal 0 -0.319302 0.947653
      outer loop
         vertex 0.3 -0.0460667 0.143005
         vertex 0 -0.0460667 0.143005
         vertex 0 -0.0479779 0.142244
      endloop
   endfacet
   facet normal 0 -0.419889 0.907575
      outer loop
         vertex 0.3 -0.0479779 0.142244
         vertex 0 -0.0479779 0.142244
         vertex 0 -0.0497955 0.14128
      endloop
   endfacet
   facet normal 0 -0.515554 0.856857
      outer loop
         vertex 0.3 -0.0497955 0.14128
         vertex 0 -0.0497955 0.14128
         vertex 0 -0.0514983 0.140126
      endloop
   endfacet
   facet normal 0 -0.605174 0.796093
      outer loop
         vertex 0.3 -0.0514983 0.140126
         vertex 0 -0.0514983 0.140126
         vertex 0 -0.0530663 0.138794
      endloop
   endfacet
   facet normal 0 -0.687699 0.725995
      outer loop
         vertex 0.3 -0.0530663 0.138794
         vertex 0 -0.0530663 0.138794
         vertex 0 -0.0544811 0.1373
      endloop
   endfacet
   facet normal 0 -0.762162 0.647386
      outer loop
         vertex 0.3 -0.0544811 0.1373
         vertex 0 -0.0544811 0.1373
         vertex 0 -0.0557261 0.135663
      endloop
   endfacet
   facet normal 0 -0.827689 0.561187
      outer loop
         vertex 0.3 -0.0557261 0.135663
         vertex 0 -0.0557261 0.135663
         vertex 0 -0.0567867 0.1339
      endloop
   endfacet
   facet normal 0 -0.883512 0.468408
      outer loop
         vertex 0.3 -0.0567867 0.1339
         vertex 0 -0.0567867 0.1339
         vertex 0 -0.0576506 0.132033
      endloop
   endfacet
   facet normal 0 -0.928977 0.370138
      outer loop
         vertex 0.3 -0.0576506 0.132033
         vertex 0 -0.0576506 0.132033
         vertex 0 -0.0583074 0.130083
      endloop
   endfacet
   facet normal 0 -0.96355 0.267528
      outer loop
         vertex 0.3 -0.0583074 0.130083
         vertex 0 -0.0583074 0.130083
         vertex 0 -0.0587497 0.128074
      endloop
   endfacet
   facet normal 0 -0.986827 0.161782
      outer loop
         vertex 0.3 -0.0587497 0.128074
         vertex 0 -0.0587497 0.128074
         vertex 0 -0.0589721 0.126029
      endloop
   endfacet
   facet normal 0 -0.998533 0.0541389
      outer loop
         vertex 0.3 -0.0589721 0.126029
         vertex 0 -0.0589721 0.126029
         vertex 0 -0.0589721 0.123971
      endloop
   endfacet
   facet normal 0 -0.998533 -0.0541389
      outer loop
         vertex 0.3 -0.0589721 0.123971
         vertex 0 -0.0589721 0.123971
         vertex 0 -0.0587497 0.121926
      endloop
   endfacet
   facet normal 0 -0.986827 -0.161782
      outer loop
         vertex 0.3 -0.0587497 0.121926
         vertex 0 -0.0587497 0.121926
         vertex 0 -0.0583074 0.119917
      endloop
   endfacet
   facet normal 0 -0.96355 -0.267528
      outer loop
         vertex 0.3 -0.0583074 0.119917
         vertex 0 -0.0583074 0.119917
         vertex 0 -0.0576506 0.117967
      endloop
   endfacet
   facet normal 0 -0.928977 -0.370138
      outer loop
         vertex 0.3 -0.0576506 0.117967
         vertex 0 -0.0576506 0.117967
         vertex 0 -0.0567867 0.1161
      endloop
   endfacet
   facet normal 0 -0.883512 -0.468408
      outer loop
         vertex 0.3 -0.0567867 0.1161
         vertex 0 -0.0567867 0.1161
         vertex 0 -0.0557261 0.114337
      endloop
   endfacet
   facet normal 0 -0.827689 -0.561187
      outer loop
         vertex 0.3 -0.0557261 0.114337
         vertex 0 -0.0557261 0.114337
         vertex 0 -0.0544811 0.1127
      endloop
   endfacet
   facet normal 0 -0.762162 -0.647386
      outer loop
         vertex 0.3 -0.0544811 0.1127
         vertex 0 -0.0544811 0.1127
         vertex 0 -0.0530663 0.111206
      endloop
   endfacet
   facet normal 0 -0.687699 -0.725995
      outer loop
         vertex 0.3 -0.0530663 0.111206
         vertex 0 -0.0530663 0.111206
         vertex 0 -0.0514983 0.109874
      endloop
   endfacet
   facet normal 0 -0.605174 -0.796093
      outer loop
         vertex 0.3 -0.0514983 0.109874
         vertex 0 -0.0514983 0.109874
         vertex 0 -0.0497955 0.10872
      endloop
   endfacet
   facet normal 0 -0.515554 -0.856857
      outer loop
         vertex 0.3 -0.0497955 0.10872
         vertex 0 -0.0497955 0.10872
         vertex 0 -0.0479779 0.107756
      endloop
   endfacet
   facet normal 0 -0.419889 -0.907575
      outer loop
         vertex 0.3 -0.0479779 0.107756
         vertex 0 -0.0479779 0.107756
         vertex 0 -0.0460667 0.106995
      endloop
   endfacet
   facet normal 0 -0.319302 -0.947653
      outer loop
         vertex 0.3 -0.0460667 0.106995
         vertex 0 -0.0460667 0.106995
         vertex 0 -0.0440844 0.106444
      endloop
   endfacet
   facet normal 0 -0.21497 -0.976621
      outer loop
         vertex 0.3 -0.0440844 0.106444
         vertex 0 -0.0440844 0.106444
         vertex 0 -0.0420543 0.106111
      endloop
   endfacet
   facet normal 0 -0.108119 -0.994138
      outer loop
         vertex 0.3 -0.0420543 0.106111
         vertex 0 -0.0420543 0.106111
         vertex 0 -0.04 0.106
      endloop
   endfacet
   facet normal 0 0 -1
      outer loop
         vertex 0 -0.04 0.106
         vertex 0.3 -0.04 0.106
         vertex 0.3 -0.0420543 0.106111
      endloop
   endfacet
   facet normal 0 -0.108119 -0.994138
      outer loop
         vertex 0 -0.0420543 0.106111
         vertex 0.3 -0.0420543 0.106111
         vertex 0.3 -0.0440844 0.106444
      endloop
   endfacet
   facet normal 0 -0.21497 -0.976621
      outer loop
         vertex 0 -0.0440844 0.106444
         vertex 0.3 -0.0440844 0.106444
         vertex 0.3 -0.0460667 0.106995
      endloop
   endfacet
   facet normal 0 -0.319302 -0.947653
      outer loop
         vertex 0 -0.0460667 0.106995
         vertex 0.3 -0.0460667 0.106995
         vertex 0.3 -0.0479779 0.107756
      endloop
   endfacet
   facet normal 0 -0.419889 -0.907575
      outer loop
         vertex 0 -0.0479779 0.107756
         vertex 0.3 -0.0479779 0.107756
         vertex 0.3 -0.0497955 0.10872
      endloop
   endfacet
   facet normal 0 -0.515554 -0.856857
      outer loop
         vertex 0 -0.0497955 0.10872
         vertex 0.3 -0.0497955 0.10872
         vertex 0.3 -0.0514983 0.109874
      endloop
   endfacet
   facet normal 0 -0.605174 -0.796093
      outer loop
         vertex 0 -0.0514983 0.109874
         vertex 0.3 -0.0514983 0.109874
         vertex 0.3 -0.0530663 0.111206
      endloop
   endfacet
   facet normal 0 -0.687699 -0.725995
      outer loop
         vertex 0 -0.0530663 0.111206
         vertex 0.3 -0.0530663 0.111206
         vertex 0.3 -0.0544811 0.1127
      endloop
   endfacet
   facet normal 0 -0.762162 -0.647386
      outer loop
         vertex 0 -0.0544811 0.1127
         vertex 0.3 -0.0544811 0.1127
         vertex 0.3 -0.0557261 0.114337
      endloop
   endfacet
   facet normal 0 -0.827689 -0.561187
      outer loop
         vertex 0 -0.0557261 0.114337
         vertex 0.3 -0.0557261 0.114337
         vertex 0.3 -0.0567867 0.1161
      endloop
   endfacet
   facet normal 0 -0.883512 -0.468408
      outer loop
         vertex 0 -0.0567867 0.1161
         vertex 0.3 -0.0567867 0.1161
         vertex 0.3 -0.0576506 0.117967
      endloop
   endfacet
   facet normal 0 -0.928977 -0.370138
      outer loop
         vertex 0 -0.0576506 0.117967
         vertex 0.3 -0.0576506 0.117967
         vertex 0.3 -0.0583074 0.119917
      endloop
   endfacet
   facet normal 0 -0.96355 -0.267528
      outer loop
         vertex 0 -0.0583074 0.119917
         vertex 0.3 -0.0583074 0.119917
         vertex 0.3 -0.0587497 0.121926
      endloop
   endfacet
   facet normal 0 -0.986827 -0.161782
      outer loop
         vertex 0 -0.0587497 0.121926
         vertex 0.3 -0.0587497 0.121926
         vertex 0.3 -0.0589721 0.123971
      endloop
   endfacet
   facet normal 0 -0.998533 -0.0541389
      outer loop
         vertex 0 -0.0589721 0.123971
         vertex 0.3 -0.0589721 0.123971
         vertex 0.3 -0.0589721 0.126029
      endloop
   endfacet
   facet normal 0 -0.998533 0.0541389
      outer loop
         vertex 0 -0.0589721 0.126029
         vertex 0.3 -0.0589721 0.126029
         vertex 0.3 -0.0587497 0.128074
      endloop
   endfacet
   facet normal 0 -0.986827 0.161782
      outer loop
         vertex 0 -0.0587497 0.128074
         vertex 0.3 -0.0587497 0.128074
         vertex 0.3 -0.0583074 0.130083
      endloop
   endfacet
   facet normal 0 -0.96355 0.267528
      outer loop
         vertex 0 -0.0583074 0.130083
         vertex 0.3 -0.0583074 0.130083
         vertex 0.3 -0.0576506 0.132033
      endloop
   endfacet
   facet normal 0 -0.928977 0.370138
      outer loop
         vertex 0 -0.0576506 0.132033
         vertex 0.3 -0.0576506 0.132033
         vertex 0.3 -0.0567867 0.1339
      endloop
   endfacet
   facet normal 0 -0.883512 0.468408
      outer loop
         vertex 0 -0.0567867 0.1339
         vertex 0.3 -0.0567867 0.1339
         vertex 0.3 -0.0557261 0.135663
      endloop
   endfacet
   facet normal 0 -0.827689 0.561187
      outer loop
         vertex 0 -0.0557261 0.135663
         vertex 0.3 -0.0557261 0.135663
         vertex 0.3 -0.0544811 0.1373
      endloop
   endfacet
   facet normal 0 -0.762162 0.647386
      outer loop
         vertex 0 -0.0544811 0.1373
         vertex 0.3 -0.0544811 0.1373
         vertex 0.3 -0.0530663 0.138794
      endloop
   endfacet
   facet normal 0 -0.687699 0.725995
      outer loop
         vertex 0 -0.0530663 0.138794
         vertex 0.3 -0.0530663 0.138794
         vertex 0.3 -0.0514983 0.140126
      endloop
   endfacet
   facet normal 0 -0.605174 0.796093
      outer loop
         vertex 0 -0.0514983 0.140126
         vertex 0.3 -0.0514983 0.140126
         vertex 0.3 -0.0497955 0.14128
      endloop
   endfacet
   facet normal 0 -0.515554 0.856857
      outer loop
         vertex 0 -0.0497955 0.14128
         vertex 0.3 -0.0497955 0.14128
         vertex 0.3 -0.0479779 0.142244
      endloop
   endfacet
   facet normal 0 -0.419889 0.907575
      outer loop
         vertex 0 -0.0479779 0.142244
         vertex 0.3 -0.0479779 0.142244
         vertex 0.3 -0.0460667 0.143005
      endloop
   endfacet
   facet normal 0 -0.319302 0.947653
      outer loop
         vertex 0 -0.0460667 0.143005
         vertex 0.3 -0.0460667 0.143005
         vertex 0.3 -0.0440844 0.143556
      endloop
   endfacet
   facet normal 0 -0.21497 0.976621
      outer loop
         vertex 0 -0.0440844 0.143556
         vertex 0.3 -0.0440844 0.143556
         vertex 0.3 -0.0420543 0.143889
      endloop
   endfacet
   facet normal 0 -0.108119 0.994138
      outer loop
         vertex 0 -0.0420543 0.143889
         vertex 0.3 -0.0420543 0.143889
         vertex 0.3 -0.04 0.144
      endloop
   endfacet
   facet normal 0 -3.21625e-16 1
      outer loop
         vertex 0 -0.04 0.144
         vertex 0.3 -0.04 0.144
         vertex 0.3 -0.0379457 0.143889
      endloop
   endfacet
   facet normal 0 0.108119 0.994138
      outer loop
         vertex 0 -0.0379457 0.143889
         vertex 0.3 -0.0379457 0.143889
         vertex 0.3 -0.0359156 0.143556
      endloop
   endfacet
   facet normal 0 0.21497 0.976621
      outer loop
         vertex 0 -0.0359156 0.143556
         vertex 0.3 -0.0359156 0.143556
         vertex 0.3 -0.0339333 0.143005
      endloop
   endfacet
   facet normal 0 0.319302 0.947653
      outer loop
         vertex 0 -0.0339333 0.143005
         vertex 0.3 -0.0339333 0.143005
         vertex 0.3 -0.0320221 0.142244
      endloop
   endfacet
   facet normal 0 0.419889 0.907575
      outer loop
         vertex 0 -0.0320221 0.142244
         vertex 0.3 -0.0320221 0.142244
         vertex 0.3 -0.0302045 0.14128
      endloop
   endfacet
   facet normal 0 0.515554 0.856857
      outer loop
         vertex 0 -0.0302045 0.14128
         vertex 0.3 -0.0302045 0.14128
         vertex 0.3 -0.0285017 0.140126
      endloop
   endfacet
   facet normal 0 0.605174 0.796093
      outer loop
         vertex 0 -0.0285017 0.140126
         vertex 0.3 -0.0285017 0.140126
         vertex 0.3 -0.0269337 0.138794
      endloop
   endfacet
   facet normal 0 0.687699 0.725995
      outer loop
         vertex 0 -0.0269337 0.138794
         vertex 0.3 -0.0269337 0.138794
         vertex 0.3 -0.0255189 0.1373
      endloop
   endfacet
   facet normal 0 0.762162 0.647386
      outer loop
         vertex 0 -0.0255189 0.1373
         vertex 0.3 -0.0255189 0.1373
         vertex 0.3 -0.0242739 0.135663
      endloop
   endfacet
   facet normal 0 0.827689 0.561187
      outer loop
         vertex 0 -0.0242739 0.135663
         vertex 0.3 -0.0242739 0.135663
         vertex 0.3 -0.0232133 0.1339
      endloop
   endfacet
   facet normal 0 0.883512 0.468408
      outer loop
         vertex 0 -0.0232133 0.1339
         vertex 0.3 -0.0232133 0.1339
         vertex 0.3 -0.0223494 0.132033
      endloop
   endfacet
   facet normal 0 0.928977 0.370138
      outer loop
         vertex 0 -0.0223494 0.132033
         vertex 0.3 -0.0223494 0.132033
         vertex 0.3 -0.0216926 0.130083
      endloop
   endfacet
   facet normal 0 0.96355 0.267528
      outer loop
         vertex 0 -0.0216926 0.130083
         vertex 0.3 -0.0216926 0.130083
         vertex 0.3 -0.0212503 0.128074
      endloop
   endfacet
   facet normal 0 0.986827 0.161782
      outer loop
         vertex 0 -0.0212503 0.128074
         vertex 0.3 -0.0212503 0.128074
         vertex 0.3 -0.0210279 0.126029
      endloop
   endfacet
   facet normal 0 0.998533 0.0541389
      outer loop
         vertex 0 -0.0210279 0.126029
         vertex 0.3 -0.0210279 0.126029
         vertex 0.3 -0.0210279 0.123971
      endloop
   endfacet
   facet normal 0 0.998533 -0.0541389
      outer loop
         vertex 0 -0.0210279 0.123971
         vertex 0.3 -0.0210279 0.123971
         vertex 0.3 -0.0212503 0.121926
      endloop
   endfacet
   facet normal 0 0.986827 -0.161782
      outer loop
         vertex 0 -0.0212503 0.121926
         vertex 0.3 -0.0212503 0.121926
         vertex 0.3 -0.0216926 0.119917
      endloop
   endfacet
   facet normal 0 0.96355 -0.267528
      outer loop
         vertex 0 -0.0216926 0.119917
         vertex 0.3 -0.0216926 0.119917
         vertex 0.3 -0.0223494 0.117967
      endloop
   endfacet
   facet normal 0 0.928977 -0.370138
      outer loop
         vertex 0 -0.0223494 0.117967
         vertex 0.3 -0.0223494 0.117967
         vertex 0.3 -0.0232133 0.1161
      endloop
   endfacet
   facet normal 0 0.883512 -0.468408
      outer loop
         vertex 0 -0.0232133 0.1161
         vertex 0.3 -0.0232133 0.1161
         vertex 0.3 -0.0242739 0.114337
      endloop
   endfacet
   facet normal 0 0.827689 -0.561187
      outer loop
         vertex 0 -0.0242739 0.114337
         vertex 0.3 -0.0242739 0.114337
         vertex 0.3 -0.0255189 0.1127
      endloop
   endfacet
   facet normal 0 0.762162 -0.647386
      outer loop
         vertex 0 -0.0255189 0.1127
         vertex 0.3 -0.0255189 0.1127
         vertex 0.3 -0.0269337 0.111206
      endloop
   endfacet
   facet normal 0 0.687699 -0.725995
      outer loop
         vertex 0 -0.0269337 0.111206
         vertex 0.3 -0.0269337 0.111206
         vertex 0.3 -0.0285017 0.109874
      endloop
   endfacet
   facet normal 0 0.605174 -0.796093
      outer loop
         vertex 0 -0.0285017 0.109874
         vertex 0.3 -0.0285017 0.109874
         vertex 0.3 -0.0302045 0.10872
      endloop
   endfacet
   facet normal 0 0.515554 -0.856857
      outer loop
         vertex 0 -0.0302045 0.10872
         vertex 0.3 -0.0302045 0.10872
         vertex 0.3 -0.0320221 0.107756
      endloop
   endfacet
   facet normal 0 0.419889 -0.907575
      outer loop
         vertex 0 -0.0320221 0.107756
         vertex 0.3 -0.0320221 0.107756
         vertex 0.3 -0.0339333 0.106995
      endloop
   endfacet
   facet normal 0 0.319302 -0.947653
      outer loop
         vertex 0 -0.0339333 0.106995
         vertex 0.3 -0.0339333 0.106995
         vertex 0.3 -0.0359156 0.106444
      endloop
   endfacet
   facet normal 0 0.21497 -0.976621
      outer loop
         vertex 0 -0.0359156 0.106444
         vertex 0.3 -0.0359156 0.106444
         vertex 0.3 -0.0379457 0.106111
      endloop
   endfacet
   facet normal 0 0.108119 -0.994138
      outer loop
         vertex 0 -0.0379457 0.106111
         vertex 0.3 -0.0379457 0.106111
         vertex 0.3 -0.04 0.106
      endloop
   endfacet
   facet normal -1 0 0
      outer loop
         vertex 0.3 -0.02 0.21
         vertex 0.3 -0.0210279 0.126029
         vertex 0.3 -0.0212503 0.128074
      endloop
   endfacet
   facet normal -1 0 0
      outer loop
         vertex 0.3 -0.02 0.04
         vertex 0.3 -0.0212503 0.121926
         vertex 0.3 -0.0210279 0.123971
      endloop
   endfacet
   facet normal -1 0 0
      outer loop
         vertex 0.3 -0.0212503 0.128074
         vertex 0.3 -0.0216926 0.130083
         vertex 0.3 -0.02 0.21
      endloop
   endfacet
   facet normal -1 0 0
      outer loop
         vertex 0.3 -0.0210279 0.123971
         vertex 0.3 -0.02 0.21
         vertex 0.3 -0.02 0.04
      endloop
   endfacet
   facet normal -1 0 0
      outer loop
         vertex 0.3 -0.0210279 0.123971
         vertex 0.3 -0.0210279 0.126029
         vertex 0.3 -0.02 0.21
      endloop
   endfacet
   facet normal -1 0 0
      outer loop
         vertex 0.3 -0.02 0.21
         vertex 0.3 -0.0232133 0.1339
         vertex 0.3 -0.0242739 0.135663
      endloop
   endfacet
   facet normal -1 0 0
      outer loop
         vertex 0.3 -0.0216926 0.130083
         vertex 0.3 -0.0223494 0.132033
         vertex 0.3 -0.02 0.21
      endloop
   endfacet
   facet normal -1 0 0
      outer loop
         vertex 0.3 -0.06 0.21
         vertex 0.3 -0.0497955 0.14128
         vertex 0.3 -0.0514983 0.140126
      endloop
   endfacet
   facet normal -1 0 0
      outer loop
         vertex 0.3 -0.02 0.21
         vertex 0.3 -0.0269337 0.138794
         vertex 0.3 -0.0285017 0.140126
      endloop
   endfacet
   facet normal -1 0 0
      outer loop
         vertex 0.3 -0.0223494 0.132033
         vertex 0.3 -0.0232133 0.1339
         vertex 0.3 -0.02 0.21
      endloop
   endfacet
   facet normal -1 0 0
      outer loop
         vertex 0.3 -0.06 0.04
         vertex 0.3 -0.0589721 0.126029
         vertex 0.3 -0.0589721 0.123971
      endloop
   endfacet
   facet normal -1 0 0
      outer loop
         vertex 0.3 -0.06 0.21
         vertex 0.3 -0.0587497 0.128074
         vertex 0.3 -0.0589721 0.126029
      endloop
   endfacet
   facet normal -1 0 0
      outer loop
         vertex 0.3 -0.0514983 0.140126
         vertex 0.3 -0.0530663 0.138794
         vertex 0.3 -0.06 0.21
      endloop
   endfacet
   facet normal -1 0 0
      outer loop
         vertex 0.3 -0.02 0.21
         vertex 0.3 -0.0255189 0.1373
         vertex 0.3 -0.0269337 0.138794
      endloop
   endfacet
   facet normal -1 0 0
      outer loop
         vertex 0.3 -0.02 0.04
         vertex 0.3 -0.0216926 0.119917
         vertex 0.3 -0.0212503 0.121926
      endloop
   endfacet
   facet normal -1 0 0
      outer loop
         vertex 0.3 -0.02 0.04
         vertex 0.3 -0.0232133 0.1161
         vertex 0.3 -0.0223494 0.117967
      endloop
   endfacet
   facet normal -1 0 0
      outer loop
         vertex 0.3 -0.06 0.04
         vertex 0.3 -0.0576506 0.117967
         vertex 0.3 -0.0567867 0.1161
      endloop
   endfacet
   facet normal -1 0 0
      outer loop
         vertex 0.3 -0.06 0.04
         vertex 0.3 -0.0587497 0.121926
         vertex 0.3 -0.0583074 0.119917
      endloop
   endfacet
   facet normal -1 0 0
      outer loop
         vertex 0.3 -0.0589721 0.126029
         vertex 0.3 -0.06 0.04
         vertex 0.3 -0.06 0.21
      endloop
   endfacet
   facet normal -1 0 0
      outer loop
         vertex 0.3 -0.06 0.21
         vertex 0.3 -0.0576506 0.132033
         vertex 0.3 -0.0583074 0.130083
      endloop
   endfacet
   facet normal -1 0 0
      outer loop
         vertex 0.3 -0.06 0.21
         vertex 0.3 -0.0557261 0.135663
         vertex 0.3 -0.0567867 0.1339
      endloop
   endfacet
   facet normal -1 0 0
      outer loop
         vertex 0.3 -0.0530663 0.138794
         vertex 0.3 -0.0544811 0.1373
         vertex 0.3 -0.06 0.21
      endloop
   endfacet
   facet normal -1 0 0
      outer loop
         vertex 0.3 -0.06 0.21
         vertex 0.3 -0.0440844 0.143556
         vertex 0.3 -0.0460667 0.143005
      endloop
   endfacet
   facet normal -1 0 0
      outer loop
         vertex 0.3 -0.02 0.21
         vertex 0.3 -0.0320221 0.142244
         vertex 0.3 -0.0339333 0.143005
      endloop
   endfacet
   facet normal -1 0 0
      outer loop
         vertex 0.3 -0.0242739 0.135663
         vertex 0.3 -0.0255189 0.1373
         vertex 0.3 -0.02 0.21
      endloop
   endfacet
   facet normal -1 0 0
      outer loop
         vertex 0.3 -0.02 0.04
         vertex 0.3 -0.0242739 0.114337
         vertex 0.3 -0.0232133 0.1161
      endloop
   endfacet
   facet normal -1 0 0
      outer loop
         vertex 0.3 -0.06 0.04
         vertex 0.3 -0.0530663 0.111206
         vertex 0.3 -0.0514983 0.109874
      endloop
   endfacet
   facet normal -1 0 0
      outer loop
         vertex 0.3 -0.0583074 0.119917
         vertex 0.3 -0.0576506 0.117967
         vertex 0.3 -0.06 0.04
      endloop
   endfacet
   facet normal -1 0 0
      outer loop
         vertex 0.3 -0.0583074 0.130083
         vertex 0.3 -0.0587497 0.128074
         vertex 0.3 -0.06 0.21
      endloop
   endfacet
   facet normal -1 0 0
      outer loop
         vertex 0.3 -0.0544811 0.1373
         vertex 0.3 -0.0557261 0.135663
         vertex 0.3 -0.06 0.21
      endloop
   endfacet
   facet normal -1 0 0
      outer loop
         vertex 0.3 -0.0460667 0.143005
         vertex 0.3 -0.0479779 0.142244
         vertex 0.3 -0.06 0.21
      endloop
   endfacet
   facet normal -1 0 0
      outer loop
         vertex 0.3 -0.02 0.21
         vertex 0.3 -0.0302045 0.14128
         vertex 0.3 -0.0320221 0.142244
      endloop
   endfacet
   facet normal -1 0 0
      outer loop
         vertex 0.3 -0.0223494 0.117967
         vertex 0.3 -0.0216926 0.119917
         vertex 0.3 -0.02 0.04
      endloop
   endfacet
   facet normal -1 0 0
      outer loop
         vertex 0.3 -0.02 0.04
         vertex 0.3 -0.0269337 0.111206
         vertex 0.3 -0.0255189 0.1127
      endloop
   endfacet
   facet normal -1 0 0
      outer loop
         vertex 0.3 -0.02 0.04
         vertex 0.3 -0.0302045 0.10872
         vertex 0.3 -0.0285017 0.109874
      endloop
   endfacet
   facet normal -1 0 0
      outer loop
         vertex 0.3 -0.06 0.04
         vertex 0.3 -0.0544811 0.1127
         vertex 0.3 -0.0530663 0.111206
      endloop
   endfacet
   facet normal -1 0 0
      outer loop
         vertex 0.3 -0.0589721 0.123971
         vertex 0.3 -0.0587497 0.121926
         vertex 0.3 -0.06 0.04
      endloop
   endfacet
   facet normal -1 0 0
      outer loop
         vertex 0.3 -0.0479779 0.142244
         vertex 0.3 -0.0497955 0.14128
         vertex 0.3 -0.06 0.21
      endloop
   endfacet
   facet normal -1 0 0
      outer loop
         vertex 0.3 -0.0285017 0.140126
         vertex 0.3 -0.0302045 0.14128
         vertex 0.3 -0.02 0.21
      endloop
   endfacet
   facet normal -1 0 0
      outer loop
         vertex 0.3 -0.0285017 0.109874
         vertex 0.3 -0.0269337 0.111206
         vertex 0.3 -0.02 0.04
      endloop
   endfacet
   facet normal -1 0 0
      outer loop
         vertex 0.3 -0.02 0.04
         vertex 0.3 -0.06 0.04
         vertex 0.3 -0.04 0.106
      endloop
   endfacet
   facet normal -1 0 0
      outer loop
         vertex 0.3 -0.06 0.04
         vertex 0.3 -0.0497955 0.10872
         vertex 0.3 -0.0479779 0.107756
      endloop
   endfacet
   facet normal -1 0 0
      outer loop
         vertex 0.3 -0.06 0.04
         vertex 0.3 -0.0557261 0.114337
         vertex 0.3 -0.0544811 0.1127
      endloop
   endfacet
   facet normal -1 0 0
      outer loop
         vertex 0.3 -0.0567867 0.1339
         vertex 0.3 -0.0576506 0.132033
         vertex 0.3 -0.06 0.21
      endloop
   endfacet
   facet normal -1 0 0
      outer loop
         vertex 0.3 -0.0255189 0.1127
         vertex 0.3 -0.0242739 0.114337
         vertex 0.3 -0.02 0.04
      endloop
   endfacet
   facet normal -1 0 0
      outer loop
         vertex 0.3 -0.02 0.04
         vertex 0.3 -0.0339333 0.106995
         vertex 0.3 -0.0320221 0.107756
      endloop
   endfacet
   facet normal -1 0 0
      outer loop
         vertex 0.3 -0.04 0.106
         vertex 0.3 -0.0379457 0.106111
         vertex 0.3 -0.02 0.04
      endloop
   endfacet
   facet normal -1 0 0
      outer loop
         vertex 0.3 -0.0479779 0.107756
         vertex 0.3 -0.0460667 0.106995
         vertex 0.3 -0.06 0.04
      endloop
   endfacet
   facet normal -1 0 0
      outer loop
         vertex 0.3 -0.0567867 0.1161
         vertex 0.3 -0.0557261 0.114337
         vertex 0.3 -0.06 0.04
      endloop
   endfacet
   facet normal -1 0 0
      outer loop
         vertex 0.3 -0.0320221 0.107756
         vertex 0.3 -0.0302045 0.10872
         vertex 0.3 -0.02 0.04
      endloop
   endfacet
   facet normal -1 0 0
      outer loop
         vertex 0.3 -0.0379457 0.106111
         vertex 0.3 -0.0359156 0.106444
         vertex 0.3 -0.02 0.04
      endloop
   endfacet
   facet normal -1 0 0
      outer loop
         vertex 0.3 -0.06 0.04
         vertex 0.3 -0.0440844 0.106444
         vertex 0.3 -0.0420543 0.106111
      endloop
   endfacet
   facet normal -1 0 0
      outer loop
         vertex 0.3 -0.0514983 0.109874
         vertex 0.3 -0.0497955 0.10872
         vertex 0.3 -0.06 0.04
      endloop
   endfacet
   facet normal -1 0 0
      outer loop
         vertex 0.3 -0.06 0.21
         vertex 0.3 -0.02 0.21
         vertex 0.3 -0.04 0.144
      endloop
   endfacet
   facet normal -1 0 0
      outer loop
         vertex 0.3 -0.02 0.21
         vertex 0.3 -0.0359156 0.143556
         vertex 0.3 -0.0379457 0.143889
      endloop
   endfacet
   facet normal -1 0 0
      outer loop
         vertex 0.3 -0.0359156 0.106444
         vertex 0.3 -0.0339333 0.106995
         vertex 0.3 -0.02 0.04
      endloop
   endfacet
   facet normal -1 0 0
      outer loop
         vertex 0.3 -0.0460667 0.106995
         vertex 0.3 -0.0440844 0.106444
         vertex 0.3 -0.06 0.04
      endloop
   endfacet
   facet normal -1 0 0
      outer loop
         vertex 0.3 -0.04 0.144
         vertex 0.3 -0.0420543 0.143889
         vertex 0.3 -0.06 0.21
      endloop
   endfacet
   facet normal -1 0 0
      outer loop
         vertex 0.3 -0.0339333 0.143005
         vertex 0.3 -0.0359156 0.143556
         vertex 0.3 -0.02 0.21
      endloop
   endfacet
   facet normal -1 0 0
      outer loop
         vertex 0.3 -0.0420543 0.143889
         vertex 0.3 -0.0440844 0.143556
         vertex 0.3 -0.06 0.21
      endloop
   endfacet
   facet normal -1 0 0
      outer loop
         vertex 0.3 -0.0420543 0.106111
         vertex 0.3 -0.04 0.106
         vertex 0.3 -0.06 0.04
      endloop
   endfacet
   facet normal -1 0 0
      outer loop
         vertex 0.3 -0.0379457 0.143889
         vertex 0.3 -0.04 0.144
         vertex 0.3 -0.02 0.21
      endloop
   endfacet
   facet normal 0 1 0
      outer loop
         vertex 0.125 -0.02 0.25
         vertex 0.34 -0.02 0.25
         vertex 0.3 -0.02 0.21
      endloop
   endfacet
   facet normal 0 1 0
      outer loop
         vertex 0.34 -0.02 0.25
         vertex 0.34 -0.02 0
         vertex 0.3 -0.02 0.04
      endloop
   endfacet
   facet normal 0 1 0
      outer loop
         vertex 0.3 -0.02 0.04
         vertex 0.3 -0.02 0.21
         vertex 0.34 -0.02 0.25
      endloop
   endfacet
   facet normal 0 1 0
      outer loop
         vertex 0.125 -0.02 0
         vertex 0.125 -0.02 0.04
         vertex 0.3 -0.02 0.04
      endloop
   endfacet
   facet normal 0 1 0
      outer loop
         vertex 0.3 -0.02 0.04
         vertex 0.34 -0.02 0
         vertex 0.125 -0.02 0
      endloop
   endfacet
   facet normal 0 1 0
      outer loop
         vertex 0.3 -0.02 0.21
         vertex 0.125 -0.02 0.21
         vertex 0.125 -0.02 0.25
      endloop
   endfacet
   facet normal 1 0 0
      outer loop
         vertex 0.34 -0.06 0.25
         vertex 0.34 -0.06 0
         vertex 0.34 -0.02 0
      endloop
   endfacet
   facet normal 1 0 0
      outer loop
         vertex 0.34 -0.02 0
         vertex 0.34 -0.02 0.25
         vertex 0.34 -0.06 0.25
      endloop
   endfacet
   facet normal -1.18952e-16 -1 0
      outer loop
         vertex 0.125 -0.06 0
         vertex 0.34 -0.06 0
         vertex 0.3 -0.06 0.04
      endloop
   endfacet
   facet normal -1.18952e-16 -1 0
      outer loop
         vertex 0.34 -0.06 0
         vertex 0.34 -0.06 0.25
         vertex 0.3 -0.06 0.21
      endloop
   endfacet
   facet normal -1.18952e-16 -1 0
      outer loop
         vertex 0.3 -0.06 0.21
         vertex 0.3 -0.06 0.04
         vertex 0.34 -0.06 0
      endloop
   endfacet
   facet normal -1.18952e-16 -1 0
      outer loop
         vertex -0.3 -0.06 0.25
         vertex -0.3 -0.06 0.21
         vertex 0.3 -0.06 0.21
      endloop
   endfacet
   facet normal -1.18952e-16 -1 0
      outer loop
         vertex 0.3 -0.06 0.21
         vertex 0.34 -0.06 0.25
         vertex -0.3 -0.06 0.25
      endloop
   endfacet
   facet normal -1.18952e-16 -1 0
      outer loop
         vertex 0.3 -0.06 0.04
         vertex 0.125 -0.06 0.04
         vertex 0.125 -0.06 0
      endloop
   endfacet
   facet normal -1 0 0
      outer loop
         vertex -0.3 -0.06 0.21
         vertex -0.3 -0.06 0.25
         vertex -0.3 -0.02 0.25
      endloop
   endfacet
   facet normal -1 0 0
      outer loop
         vertex -0.3 -0.02 0.25
         vertex -0.3 -0.02 0.21
         vertex -0.3 -0.06 0.21
      endloop
   endfacet
   facet normal 0 1 0
      outer loop
         vertex -0.3 -0.02 0.21
         vertex -0.3 -0.02 0.25
         vertex -0.125 -0.02 0.25
      endloop
   endfacet
   facet normal 0 1 0
      outer loop
         vertex -0.125 -0.02 0.25
         vertex -0.125 -0.02 0.21
         vertex -0.3 -0.02 0.21
      endloop
   endfacet
   facet normal -1.73472e-16 -1 0
      outer loop
         vertex 0.085 -0.06 0.04
         vertex 0.085 -0.06 0
         vertex 0.125 -0.06 0
      endloop
   endfacet
   facet normal -1.73472e-16 -1 0
      outer loop
         vertex 0.125 -0.06 0
         vertex 0.125 -0.06 0.04
         vertex 0.085 -0.06 0.04
      endloop
   endfacet
   facet normal -1.73472e-16 -1 0
      outer loop
         vertex -0.085 -0.06 0.04
         vertex -0.085 -0.06 0
         vertex 0.085 -0.06 0
      endloop
   endfacet
   facet normal -1.73472e-16 -1 0
      outer loop
         vertex 0.085 -0.06 0
         vertex 0.085 -0.06 0.04
         vertex -0.085 -0.06 0.04
      endloop
   endfacet
   facet normal -1.73472e-16 -1 0
      outer loop
         vertex -0.125 -0.06 0.04
         vertex -0.125 -0.06 0
         vertex -0.085 -0.06 0
      endloop
   endfacet
   facet normal -1.73472e-16 -1 0
      outer loop
         vertex -0.085 -0.06 0
         vertex -0.085 -0.06 0.04
         vertex -0.125 -0.06 0.04
      endloop
   endfacet
   facet normal -1.73472e-16 -1 0
      outer loop
         vertex -0.3 -0.06 0.04
         vertex -0.3 -0.06 0
         vertex -0.125 -0.06 0
      endloop
   endfacet
   facet normal -1.73472e-16 -1 0
      outer loop
         vertex -0.125 -0.06 0
         vertex -0.125 -0.06 0.04
         vertex -0.3 -0.06 0.04
      endloop
   endfacet
   facet normal -1 0 0
      outer loop
         vertex -0.3 -0.02 0.04
         vertex -0.3 -0.02 0
         vertex -0.3 -0.06 0
      endloop
   endfacet
   facet normal -1 0 0
      outer loop
         vertex -0.3 -0.06 0
         vertex -0.3 -0.06 0.04
         vertex -0.3 -0.02 0.04
      endloop
   endfacet
   facet normal 1.38778e-16 1 0
      outer loop
         vertex -0.125 -0.02 0.04
         vertex -0.125 -0.02 0
         vertex -0.3 -0.02 0
      endloop
   endfacet
   facet normal 1.38778e-16 1 0
      outer loop
         vertex -0.3 -0.02 0
         vertex -0.3 -0.02 0.04
         vertex -0.125 -0.02 0.04
      endloop
   endfacet
   facet normal 0 0 -1
      outer loop
         vertex 0.3 -0.06 0.21
         vertex 0.085 -0.02 0.21
         vertex 0.125 -0.02 0.21
      endloop
   endfacet
   facet normal 0 0 -1
      outer loop
         vertex 0.3 -0.06 0.21
         vertex -0.3 -0.06 0.21
         vertex -0.085 -0.02 0.21
      endloop
   endfacet
   facet normal 0 0 -1
      outer loop
         vertex -0.085 -0.02 0.21
         vertex 0.085 -0.02 0.21
         vertex 0.3 -0.06 0.21
      endloop
   endfacet
   facet normal 0 0 -1
      outer loop
         vertex -0.3 -0.06 0.21
         vertex -0.125 -0.02 0.21
         vertex -0.085 -0.02 0.21
      endloop
   endfacet
   facet normal 0 0 -1
      outer loop
         vertex -0.3 -0.06 0.21
         vertex -0.3 -0.02 0.21
         vertex -0.125 -0.02 0.21
      endloop
   endfacet
   facet normal 0 0 -1
      outer loop
         vertex 0.125 -0.02 0.21
         vertex 0.3 -0.02 0.21
         vertex 0.3 -0.06 0.21
      endloop
   endfacet
   facet normal 0 -1 0
      outer loop
         vertex -0.125 -0.02 0.04
         vertex -0.085 -0.02 0.04
         vertex -0.085 -0.02 0.21
      endloop
   endfacet
   facet normal 0 -1 0
      outer loop
         vertex -0.085 -0.02 0.21
         vertex -0.125 -0.02 0.21
         vertex -0.125 -0.02 0.04
      endloop
   endfacet
   facet normal 1 0 0
      outer loop
         vertex -0.085 0.02 0.04
         vertex -0.085 0.02 0.25
         vertex -0.085 -0.02 0.21
      endloop
   endfacet
   facet normal 1 0 0
      outer loop
         vertex -0.085 0.02 0.25
         vertex -0.085 -0.02 0.25
         vertex -0.085 -0.02 0.21
      endloop
   endfacet
   facet normal 1 0 0
      outer loop
         vertex -0.085 -0.02 0.21
         vertex -0.085 -0.02 0.04
         vertex -0.085 0.02 0.04
      endloop
   endfacet
   facet normal 0 1 0
      outer loop
         vertex -0.125 0.02 0.25
         vertex -0.085 0.02 0.25
         vertex -0.085 0.02 0.04
      endloop
   endfacet
   facet normal 0 1 0
      outer loop
         vertex -0.085 0.02 0.04
         vertex -0.125 0.02 0.04
         vertex -0.125 0.02 0.25
      endloop
   endfacet
   facet normal -1 0 0
      outer loop
         vertex -0.125 0.02 0.04
         vertex -0.125 -0.02 0.04
         vertex -0.125 -0.02 0.21
      endloop
   endfacet
   facet normal -1 0 0
      outer loop
         vertex -0.125 -0.02 0.21
         vertex -0.125 0.02 0.25
         vertex -0.125 0.02 0.04
      endloop
   endfacet
   facet normal -1 0 0
      outer loop
         vertex -0.125 0.47 0
         vertex -0.125 -0.02 0
         vertex -0.125 0.02 0.04
      endloop
   endfacet
   facet normal -1 0 0
      outer loop
         vertex -0.125 0.02 0.04
         vertex -0.125 -0.02 0
         vertex -0.125 -0.02 0.04
      endloop
   endfacet
   facet normal -1 0 0
      outer loop
         vertex -0.125 -0.02 0.21
         vertex -0.125 -0.02 0.25
         vertex -0.125 0.02 0.25
      endloop
   endfacet
   facet normal -1 0 0
      outer loop
         vertex -0.125 0.02 0.04
         vertex -0.125 0.47 0.04
         vertex -0.125 0.47 0
      endloop
   endfacet
   facet normal 0 1 0
      outer loop
         vertex -0.085 0.47 0.04
         vertex -0.085 0.47 0
         vertex -0.125 0.47 0
      endloop
   endfacet
   facet normal 0 1 0
      outer loop
         vertex -0.125 0.47 0
         vertex -0.125 0.47 0.04
         vertex -0.085 0.47 0.04
      endloop
   endfacet
   facet normal 0 0 1
      outer loop
         vertex -0.085 0.47 0.04
         vertex -0.125 0.47 0.04
         vertex -0.125 0.02 0.04
      endloop
   endfacet
   facet normal 0 0 1
      outer loop
         vertex -0.125 0.02 0.04
         vertex -0.085 0.02 0.04
         vertex -0.085 0.47 0.04
      endloop
   endfacet
   facet normal 1 0 0
      outer loop
         vertex -0.085 0.47 0
         vertex -0.085 0.47 0.04
         vertex -0.085 0.02 0.04
      endloop
   endfacet
   facet normal 1 0 0
      outer loop
         vertex -0.085 0.02 0.04
         vertex -0.085 0.02 0
         vertex -0.085 0.47 0
      endloop
   endfacet
   facet normal 0 0 1
      outer loop
         vertex -0.125 -0.06 0.04
         vertex -0.085 -0.06 0.04
         vertex -0.085 -0.02 0.04
      endloop
   endfacet
   facet normal 0 0 1
      outer loop
         vertex -0.085 0.02 0.04
         vertex -0.085 -0.02 0.04
         vertex 0.085 -0.02 0.04
      endloop
   endfacet
   facet normal 0 0 1
      outer loop
         vertex 0.3 -0.02 0.04
         vertex 0.125 -0.02 0.04
         vertex 0.125 -0.06 0.04
      endloop
   endfacet
   facet normal 0 0 1
      outer loop
         vertex 0.085 -0.06 0.04
         vertex 0.125 -0.06 0.04
         vertex 0.125 -0.02 0.04
      endloop
   endfacet
   facet normal 0 0 1
      outer loop
         vertex -0.3 -0.06 0.04
         vertex -0.125 -0.06 0.04
         vertex -0.125 -0.02 0.04
      endloop
   endfacet
   facet normal 0 0 1
      outer loop
         vertex -0.085 -0.02 0.04
         vertex -0.125 -0.02 0.04
         vertex -0.125 -0.06 0.04
      endloop
   endfacet
   facet normal 0 0 1
      outer loop
         vertex -0.085 -0.02 0.04
         vertex 0.085 -0.06 0.04
         vertex 0.085 -0.02 0.04
      endloop
   endfacet
   facet normal 0 0 1
      outer loop
         vertex 0.125 -0.02 0.04
         vertex 0.085 -0.02 0.04
         vertex 0.085 -0.06 0.04
      endloop
   endfacet
   facet normal 0 0 1
      outer loop
         vertex -0.085 -0.06 0.04
         vertex 0.085 -0.06 0.04
         vertex -0.085 -0.02 0.04
      endloop
   endfacet
   facet normal 0 0 1
      outer loop
         vertex 0.125 -0.06 0.04
         vertex 0.3 -0.06 0.04
         vertex 0.3 -0.02 0.04
      endloop
   endfacet
   facet normal 0 0 1
      outer loop
         vertex 0.085 -0.02 0.04
         vertex 0.085 0.02 0.04
         vertex -0.085 0.02 0.04
      endloop
   endfacet
   facet normal 0 0 1
      outer loop
         vertex -0.125 -0.02 0.04
         vertex -0.3 -0.02 0.04
         vertex -0.3 -0.06 0.04
      endloop
   endfacet
   facet normal 0 1 0
      outer loop
         vertex 0.085 -0.02 0.21
         vertex -0.085 -0.02 0.21
         vertex -0.085 -0.02 0.25
      endloop
   endfacet
   facet normal 0 1 0
      outer loop
         vertex -0.085 -0.02 0.25
         vertex 0.085 -0.02 0.25
         vertex 0.085 -0.02 0.21
      endloop
   endfacet
   facet normal 0 -1 0
      outer loop
         vertex 0.085 -0.02 0.04
         vertex 0.125 -0.02 0.04
         vertex 0.125 -0.02 0.21
      endloop
   endfacet
   facet normal 0 -1 0
      outer loop
         vertex 0.125 -0.02 0.21
         vertex 0.085 -0.02 0.21
         vertex 0.085 -0.02 0.04
      endloop
   endfacet
   facet normal 0 0 1
      outer loop
         vertex 0.34 -0.06 0.25
         vertex 0.085 -0.02 0.25
         vertex -0.085 -0.02 0.25
      endloop
   endfacet
   facet normal 0 0 1
      outer loop
         vertex 0.34 -0.06 0.25
         vertex 0.125 -0.02 0.25
         vertex 0.085 -0.02 0.25
      endloop
   endfacet
   facet normal 0 0 1
      outer loop
         vertex -0.125 0.02 0.25
         vertex -0.125 -0.02 0.25
         vertex -0.085 -0.02 0.25
      endloop
   endfacet
   facet normal 0 0 1
      outer loop
         vertex 0.34 -0.06 0.25
         vertex 0.34 -0.02 0.25
         vertex 0.125 -0.02 0.25
      endloop
   endfacet
   facet normal 0 0 1
      outer loop
         vertex 0.085 0.02 0.25
         vertex 0.085 -0.02 0.25
         vertex 0.125 -0.02 0.25
      endloop
   endfacet
   facet normal 0 0 1
      outer loop
         vertex -0.085 -0.02 0.25
         vertex -0.125 -0.02 0.25
         vertex 0.34 -0.06 0.25
      endloop
   endfacet
   facet normal 0 0 1
      outer loop
         vertex -0.3 -0.06 0.25
         vertex 0.34 -0.06 0.25
         vertex -0.125 -0.02 0.25
      endloop
   endfacet
   facet normal 0 0 1
      outer loop
         vertex -0.085 -0.02 0.25
         vertex -0.085 0.02 0.25
         vertex -0.125 0.02 0.25
      endloop
   endfacet
   facet normal 0 0 1
      outer loop
         vertex 0.125 -0.02 0.25
         vertex 0.125 0.02 0.25
         vertex 0.085 0.02 0.25
      endloop
   endfacet
   facet normal 0 0 1
      outer loop
         vertex -0.125 -0.02 0.25
         vertex -0.3 -0.02 0.25
         vertex -0.3 -0.06 0.25
      endloop
   endfacet
   facet normal -1 0 0
      outer loop
         vertex 0.085 0.02 0.04
         vertex 0.085 -0.02 0.04
         vertex 0.085 -0.02 0.21
      endloop
   endfacet
   facet normal -1 0 0
      outer loop
         vertex 0.085 -0.02 0.21
         vertex 0.085 0.02 0.25
         vertex 0.085 0.02 0.04
      endloop
   endfacet
   facet normal -1 0 0
      outer loop
         vertex 0.085 -0.02 0.21
         vertex 0.085 -0.02 0.25
         vertex 0.085 0.02 0.25
      endloop
   endfacet
   facet normal 0 1 0
      outer loop
         vertex 0.085 0.02 0.04
         vertex 0.085 0.02 0
         vertex -0.085 0.02 0
      endloop
   endfacet
   facet normal 0 1 0
      outer loop
         vertex -0.085 0.02 0
         vertex -0.085 0.02 0.04
         vertex 0.085 0.02 0.04
      endloop
   endfacet
   facet normal 0 0 -1
      outer loop
         vertex 0.085 -0.06 0
         vertex -0.085 -0.06 0
         vertex -0.085 0.02 0
      endloop
   endfacet
   facet normal 0 0 -1
      outer loop
         vertex 0.34 -0.06 0
         vertex 0.125 -0.06 0
         vertex 0.125 -0.02 0
      endloop
   endfacet
   facet normal 0 0 -1
      outer loop
         vertex -0.085 -0.06 0
         vertex -0.125 -0.02 0
         vertex -0.085 0.02 0
      endloop
   endfacet
   facet normal 0 0 -1
      outer loop
         vertex 0.125 -0.02 0
         vertex 0.34 -0.02 0
         vertex 0.34 -0.06 0
      endloop
   endfacet
   facet normal 0 0 -1
      outer loop
         vertex -0.085 0.02 0
         vertex 0.085 0.02 0
         vertex 0.085 -0.06 0
      endloop
   endfacet
   facet normal 0 0 -1
      outer loop
         vertex 0.125 0.47 0
         vertex 0.125 -0.02 0
         vertex 0.085 0.02 0
      endloop
   endfacet
   facet normal 0 0 -1
      outer loop
         vertex 0.085 0.02 0
         vertex 0.125 -0.02 0
         vertex 0.085 -0.06 0
      endloop
   endfacet
   facet normal 0 0 -1
      outer loop
         vertex 0.125 -0.06 0
         vertex 0.085 -0.06 0
         vertex 0.125 -0.02 0
      endloop
   endfacet
   facet normal 0 0 -1
      outer loop
         vertex -0.125 0.47 0
         vertex -0.085 0.47 0
         vertex -0.085 0.02 0
      endloop
   endfacet
   facet normal 0 0 -1
      outer loop
         vertex -0.3 -0.02 0
         vertex -0.125 -0.02 0
         vertex -0.125 -0.06 0
      endloop
   endfacet
   facet normal 0 0 -1
      outer loop
         vertex -0.085 0.02 0
         vertex -0.125 -0.02 0
         vertex -0.125 0.47 0
      endloop
   endfacet
   facet normal 0 0 -1
      outer loop
         vertex -0.125 -0.02 0
         vertex -0.085 -0.06 0
         vertex -0.125 -0.06 0
      endloop
   endfacet
   facet normal 0 0 -1
      outer loop
         vertex -0.125 -0.06 0
         vertex -0.3 -0.06 0
         vertex -0.3 -0.02 0
      endloop
   endfacet
   facet normal 0 0 -1
      outer loop
         vertex 0.085 0.02 0
         vertex 0.085 0.47 0
         vertex 0.125 0.47 0
      endloop
   endfacet
   facet normal 1 0 0
      outer loop
         vertex 0.125 0.02 0.04
         vertex 0.125 0.02 0.25
         vertex 0.125 -0.02 0.21
      endloop
   endfacet
   facet normal 1 0 0
      outer loop
         vertex 0.125 -0.02 0.21
         vertex 0.125 -0.02 0.04
         vertex 0.125 0.02 0.04
      endloop
   endfacet
   facet normal 1 0 0
      outer loop
         vertex 0.125 0.02 0.25
         vertex 0.125 -0.02 0.25
         vertex 0.125 -0.02 0.21
      endloop
   endfacet
   facet normal 1 0 0
      outer loop
         vertex 0.125 0.47 0
         vertex 0.125 0.47 0.04
         vertex 0.125 0.02 0.04
      endloop
   endfacet
   facet normal 1 0 0
      outer loop
         vertex 0.125 0.02 0.04
         vertex 0.125 -0.02 0
         vertex 0.125 0.47 0
      endloop
   endfacet
   facet normal 1 0 0
      outer loop
         vertex 0.125 -0.02 0.04
         vertex 0.125 -0.02 0
         vertex 0.125 0.02 0.04
      endloop
   endfacet
   facet normal -1 0 0
      outer loop
         vertex 0.085 0.47 0
         vertex 0.085 0.02 0
         vertex 0.085 0.02 0.04
      endloop
   endfacet
   facet normal -1 0 0
      outer loop
         vertex 0.085 0.02 0.04
         vertex 0.085 0.47 0.04
         vertex 0.085 0.47 0
      endloop
   endfacet
   facet normal 0 1 0
      outer loop
         vertex 0.085 0.02 0.25
         vertex 0.125 0.02 0.25
         vertex 0.125 0.02 0.04
      endloop
   endfacet
   facet normal 0 1 0
      outer loop
         vertex 0.125 0.02 0.04
         vertex 0.085 0.02 0.04
         vertex 0.085 0.02 0.25
      endloop
   endfacet
   facet normal 0 1 0
      outer loop
         vertex 0.125 0.47 0.04
         vertex 0.125 0.47 0
         vertex 0.085 0.47 0
      endloop
   endfacet
   facet normal 0 1 0
      outer loop
         vertex 0.085 0.47 0
         vertex 0.085 0.47 0.04
         vertex 0.125 0.47 0.04
      endloop
   endfacet
   facet normal 0 0 1
      outer loop
         vertex 0.085 0.47 0.04
         vertex 0.085 0.02 0.04
         vertex 0.125 0.02 0.04
      endloop
   endfacet
   facet normal 0 0 1
      outer loop
         vertex 0.125 0.02 0.04
         vertex 0.125 0.47 0.04
         vertex 0.085 0.47 0.04
      endloop
   endfacet
endsolid Mounting_frame. Units = meters