solid Probe_frame. STL generated by ONSHAPE BY PTC INC, 1.220. Units = meters
   facet normal 1 0 0
      outer loop
         vertex 0.3 -0.04 0.125
         vertex 0.3 -0.0416218 0.139912
         vertex 0.3 -0.0432246 0.139649
      endloop
   endfacet
   facet normal 1 0 0
      outer loop
         vertex 0.3 -0.0432246 0.139649
         vertex 0.3 -0.0447895 0.139215
         vertex 0.3 -0.04 0.125
      endloop
   endfacet
   facet normal 1 0 0
      outer loop
         vertex 0.3 -0.0447895 0.139215
         vertex 0.3 -0.0462983 0.138614
         vertex 0.3 -0.04 0.125
      endloop
   endfacet
   facet normal 1 0 0
      outer loop
         vertex 0.3 -0.0462983 0.138614
         vertex 0.3 -0.0477333 0.137853
         vertex 0.3 -0.04 0.125
      endloop
   endfacet
   facet normal 1 0 0
      outer loop
         vertex 0.3 -0.0477333 0.137853
         vertex 0.3 -0.0490776 0.136941
         vertex 0.3 -0.04 0.125
      endloop
   endfacet
   facet normal 1 0 0
      outer loop
         vertex 0.3 -0.0490776 0.136941
         vertex 0.3 -0.0503155 0.13589
         vertex 0.3 -0.04 0.125
      endloop
   endfacet
   facet normal 1 0 0
      outer loop
         vertex 0.3 -0.0503155 0.13589
         vertex 0.3 -0.0514324 0.134711
         vertex 0.3 -0.04 0.125
      endloop
   endfacet
   facet normal 1 0 0
      outer loop
         vertex 0.3 -0.0514324 0.134711
         vertex 0.3 -0.0524153 0.133418
         vertex 0.3 -0.04 0.125
      endloop
   endfacet
   facet normal 1 0 0
      outer loop
         vertex 0.3 -0.0524153 0.133418
         vertex 0.3 -0.0532527 0.132026
         vertex 0.3 -0.04 0.125
      endloop
   endfacet
   facet normal 1 0 0
      outer loop
         vertex 0.3 -0.0532527 0.132026
         vertex 0.3 -0.0539347 0.130552
         vertex 0.3 -0.04 0.125
      endloop
   endfacet
   facet normal 1 0 0
      outer loop
         vertex 0.3 -0.0539347 0.130552
         vertex 0.3 -0.0544532 0.129013
         vertex 0.3 -0.04 0.125
      endloop
   endfacet
   facet normal 1 0 0
      outer loop
         vertex 0.3 -0.0544532 0.129013
         vertex 0.3 -0.0548024 0.127427
         vertex 0.3 -0.04 0.125
      endloop
   endfacet
   facet normal 1 0 0
      outer loop
         vertex 0.3 -0.0548024 0.127427
         vertex 0.3 -0.054978 0.125812
         vertex 0.3 -0.04 0.125
      endloop
   endfacet
   facet normal 1 0 0
      outer loop
         vertex 0.3 -0.054978 0.125812
         vertex 0.3 -0.054978 0.124188
         vertex 0.3 -0.04 0.125
      endloop
   endfacet
   facet normal 1 0 0
      outer loop
         vertex 0.3 -0.054978 0.124188
         vertex 0.3 -0.0548024 0.122573
         vertex 0.3 -0.04 0.125
      endloop
   endfacet
   facet normal 1 0 0
      outer loop
         vertex 0.3 -0.0548024 0.122573
         vertex 0.3 -0.0544532 0.120987
         vertex 0.3 -0.04 0.125
      endloop
   endfacet
   facet normal 1 0 0
      outer loop
         vertex 0.3 -0.0544532 0.120987
         vertex 0.3 -0.0539347 0.119448
         vertex 0.3 -0.04 0.125
      endloop
   endfacet
   facet normal 1 0 0
      outer loop
         vertex 0.3 -0.0539347 0.119448
         vertex 0.3 -0.0532527 0.117974
         vertex 0.3 -0.04 0.125
      endloop
   endfacet
   facet normal 1 0 0
      outer loop
         vertex 0.3 -0.0532527 0.117974
         vertex 0.3 -0.0524153 0.116582
         vertex 0.3 -0.04 0.125
      endloop
   endfacet
   facet normal 1 0 0
      outer loop
         vertex 0.3 -0.0524153 0.116582
         vertex 0.3 -0.0514324 0.115289
         vertex 0.3 -0.04 0.125
      endloop
   endfacet
   facet normal 1 0 0
      outer loop
         vertex 0.3 -0.0514324 0.115289
         vertex 0.3 -0.0503155 0.11411
         vertex 0.3 -0.04 0.125
      endloop
   endfacet
   facet normal 1 0 0
      outer loop
         vertex 0.3 -0.0503155 0.11411
         vertex 0.3 -0.0490776 0.113059
         vertex 0.3 -0.04 0.125
      endloop
   endfacet
   facet normal 1 0 0
      outer loop
         vertex 0.3 -0.0490776 0.113059
         vertex 0.3 -0.0477333 0.112147
         vertex 0.3 -0.04 0.125
      endloop
   endfacet
   facet normal 1 0 0
      outer loop
         vertex 0.3 -0.0477333 0.112147
         vertex 0.3 -0.0462983 0.111386
         vertex 0.3 -0.04 0.125
      endloop
   endfacet
   facet normal 1 0 0
      outer loop
         vertex 0.3 -0.0462983 0.111386
         vertex 0.3 -0.0447895 0.110785
         vertex 0.3 -0.04 0.125
      endloop
   endfacet
   facet normal 1 0 0
      outer loop
         vertex 0.3 -0.0447895 0.110785
         vertex 0.3 -0.0432246 0.110351
         vertex 0.3 -0.04 0.125
      endloop
   endfacet
   facet normal 1 0 0
      outer loop
         vertex 0.3 -0.0432246 0.110351
         vertex 0.3 -0.0416218 0.110088
         vertex 0.3 -0.04 0.125
      endloop
   endfacet
   facet normal 1 0 0
      outer loop
         vertex 0.3 -0.0416218 0.110088
         vertex 0.3 -0.04 0.11
         vertex 0.3 -0.04 0.125
      endloop
   endfacet
   facet normal 1 0 0
      outer loop
         vertex 0.3 -0.04 0.11
         vertex 0.3 -0.0383782 0.110088
         vertex 0.3 -0.04 0.125
      endloop
   endfacet
   facet normal 1 0 0
      outer loop
         vertex 0.3 -0.0383782 0.110088
         vertex 0.3 -0.0367754 0.110351
         vertex 0.3 -0.04 0.125
      endloop
   endfacet
   facet normal 1 0 0
      outer loop
         vertex 0.3 -0.0367754 0.110351
         vertex 0.3 -0.0352105 0.110785
         vertex 0.3 -0.04 0.125
      endloop
   endfacet
   facet normal 1 0 0
      outer loop
         vertex 0.3 -0.0352105 0.110785
         vertex 0.3 -0.0337017 0.111386
         vertex 0.3 -0.04 0.125
      endloop
   endfacet
   facet normal 1 0 0
      outer loop
         vertex 0.3 -0.0337017 0.111386
         vertex 0.3 -0.0322667 0.112147
         vertex 0.3 -0.04 0.125
      endloop
   endfacet
   facet normal 1 0 0
      outer loop
         vertex 0.3 -0.0322667 0.112147
         vertex 0.3 -0.0309224 0.113059
         vertex 0.3 -0.04 0.125
      endloop
   endfacet
   facet normal 1 0 0
      outer loop
         vertex 0.3 -0.0309224 0.113059
         vertex 0.3 -0.0296845 0.11411
         vertex 0.3 -0.04 0.125
      endloop
   endfacet
   facet normal 1 0 0
      outer loop
         vertex 0.3 -0.0296845 0.11411
         vertex 0.3 -0.0285676 0.115289
         vertex 0.3 -0.04 0.125
      endloop
   endfacet
   facet normal 1 0 0
      outer loop
         vertex 0.3 -0.0285676 0.115289
         vertex 0.3 -0.0275847 0.116582
         vertex 0.3 -0.04 0.125
      endloop
   endfacet
   facet normal 1 0 0
      outer loop
         vertex 0.3 -0.0275847 0.116582
         vertex 0.3 -0.0267473 0.117974
         vertex 0.3 -0.04 0.125
      endloop
   endfacet
   facet normal 1 0 0
      outer loop
         vertex 0.3 -0.0267473 0.117974
         vertex 0.3 -0.0260653 0.119448
         vertex 0.3 -0.04 0.125
      endloop
   endfacet
   facet normal 1 0 0
      outer loop
         vertex 0.3 -0.0260653 0.119448
         vertex 0.3 -0.0255468 0.120987
         vertex 0.3 -0.04 0.125
      endloop
   endfacet
   facet normal 1 0 0
      outer loop
         vertex 0.3 -0.0255468 0.120987
         vertex 0.3 -0.0251976 0.122573
         vertex 0.3 -0.04 0.125
      endloop
   endfacet
   facet normal 1 0 0
      outer loop
         vertex 0.3 -0.0251976 0.122573
         vertex 0.3 -0.025022 0.124188
         vertex 0.3 -0.04 0.125
      endloop
   endfacet
   facet normal 1 0 0
      outer loop
         vertex 0.3 -0.025022 0.124188
         vertex 0.3 -0.025022 0.125812
         vertex 0.3 -0.04 0.125
      endloop
   endfacet
   facet normal 1 0 0
      outer loop
         vertex 0.3 -0.025022 0.125812
         vertex 0.3 -0.0251976 0.127427
         vertex 0.3 -0.04 0.125
      endloop
   endfacet
   facet normal 1 0 0
      outer loop
         vertex 0.3 -0.0251976 0.127427
         vertex 0.3 -0.0255468 0.129013
         vertex 0.3 -0.04 0.125
      endloop
   endfacet
   facet normal 1 0 0
      outer loop
         vertex 0.3 -0.0255468 0.129013
         vertex 0.3 -0.0260653 0.130552
         vertex 0.3 -0.04 0.125
      endloop
   endfacet
   facet normal 1 0 0
      outer loop
         vertex 0.3 -0.0260653 0.130552
         vertex 0.3 -0.0267473 0.132026
         vertex 0.3 -0.04 0.125
      endloop
   endfacet
   facet normal 1 0 0
      outer loop
         vertex 0.3 -0.0267473 0.132026
         vertex 0.3 -0.0275847 0.133418
         vertex 0.3 -0.04 0.125
      endloop
   endfacet
   facet normal 1 0 0
      outer loop
         vertex 0.3 -0.0275847 0.133418
         vertex 0.3 -0.0285676 0.134711
         vertex 0.3 -0.04 0.125
      endloop
   endfacet
   facet normal 1 0 0
      outer loop
         vertex 0.3 -0.0285676 0.134711
         vertex 0.3 -0.0296845 0.13589
         vertex 0.3 -0.04 0.125
      endloop
   endfacet
   facet normal 1 0 0
      outer loop
         vertex 0.3 -0.0296845 0.13589
         vertex 0.3 -0.0309224 0.136941
         vertex 0.3 -0.04 0.125
      endloop
   endfacet
   facet normal 1 0 0
      outer loop
         vertex 0.3 -0.0309224 0.136941
         vertex 0.3 -0.0322667 0.137853
         vertex 0.3 -0.04 0.125
      endloop
   endfacet
   facet normal 1 0 0
      outer loop
         vertex 0.3 -0.0322667 0.137853
         vertex 0.3 -0.0337017 0.138614
         vertex 0.3 -0.04 0.125
      endloop
   endfacet
   facet normal 1 0 0
      outer loop
         vertex 0.3 -0.0337017 0.138614
         vertex 0.3 -0.0352105 0.139215
         vertex 0.3 -0.04 0.125
      endloop
   endfacet
   facet normal 1 0 0
      outer loop
         vertex 0.3 -0.0352105 0.139215
         vertex 0.3 -0.0367754 0.139649
         vertex 0.3 -0.04 0.125
      endloop
   endfacet
   facet normal 1 0 0
      outer loop
         vertex 0.3 -0.0367754 0.139649
         vertex 0.3 -0.0383782 0.139912
         vertex 0.3 -0.04 0.125
      endloop
   endfacet
   facet normal 1 0 0
      outer loop
         vertex 0.3 -0.0383782 0.139912
         vertex 0.3 -0.04 0.14
         vertex 0.3 -0.04 0.125
      endloop
   endfacet
   facet normal 1 0 0
      outer loop
         vertex 0.3 -0.04 0.14
         vertex 0.3 -0.0416218 0.139912
         vertex 0.3 -0.04 0.125
      endloop
   endfacet
   facet normal 0 0 -1
      outer loop
         vertex 0.3 -0.04 0.11
         vertex 0 -0.04 0.11
         vertex 0 -0.0383782 0.110088
      endloop
   endfacet
   facet normal 0 0.108119 -0.994138
      outer loop
         vertex 0.3 -0.0383782 0.110088
         vertex 0 -0.0383782 0.110088
         vertex 0 -0.0367754 0.110351
      endloop
   endfacet
   facet normal 0 0.21497 -0.976621
      outer loop
         vertex 0.3 -0.0367754 0.110351
         vertex 0 -0.0367754 0.110351
         vertex 0 -0.0352105 0.110785
      endloop
   endfacet
   facet normal 0 0.319302 -0.947653
      outer loop
         vertex 0.3 -0.0352105 0.110785
         vertex 0 -0.0352105 0.110785
         vertex 0 -0.0337017 0.111386
      endloop
   endfacet
   facet normal 0 0.419889 -0.907575
      outer loop
         vertex 0.3 -0.0337017 0.111386
         vertex 0 -0.0337017 0.111386
         vertex 0 -0.0322667 0.112147
      endloop
   endfacet
   facet normal 0 0.515554 -0.856857
      outer loop
         vertex 0.3 -0.0322667 0.112147
         vertex 0 -0.0322667 0.112147
         vertex 0 -0.0309224 0.113059
      endloop
   endfacet
   facet normal 0 0.605174 -0.796093
      outer loop
         vertex 0.3 -0.0309224 0.113059
         vertex 0 -0.0309224 0.113059
         vertex 0 -0.0296845 0.11411
      endloop
   endfacet
   facet normal 0 0.687699 -0.725995
      outer loop
         vertex 0.3 -0.0296845 0.11411
         vertex 0 -0.0296845 0.11411
         vertex 0 -0.0285676 0.115289
      endloop
   endfacet
   facet normal 0 0.762162 -0.647386
      outer loop
         vertex 0.3 -0.0285676 0.115289
         vertex 0 -0.0285676 0.115289
         vertex 0 -0.0275847 0.116582
      endloop
   endfacet
   facet normal 0 0.827689 -0.561187
      outer loop
         vertex 0.3 -0.0275847 0.116582
         vertex 0 -0.0275847 0.116582
         vertex 0 -0.0267473 0.117974
      endloop
   endfacet
   facet normal 0 0.883512 -0.468408
      outer loop
         vertex 0.3 -0.0267473 0.117974
         vertex 0 -0.0267473 0.117974
         vertex 0 -0.0260653 0.119448
      endloop
   endfacet
   facet normal 0 0.928977 -0.370138
      outer loop
         vertex 0.3 -0.0260653 0.119448
         vertex 0 -0.0260653 0.119448
         vertex 0 -0.0255468 0.120987
      endloop
   endfacet
   facet normal 0 0.96355 -0.267528
      outer loop
         vertex 0.3 -0.0255468 0.120987
         vertex 0 -0.0255468 0.120987
         vertex 0 -0.0251976 0.122573
      endloop
   endfacet
   facet normal 0 0.986827 -0.161782
      outer loop
         vertex 0.3 -0.0251976 0.122573
         vertex 0 -0.0251976 0.122573
         vertex 0 -0.025022 0.124188
      endloop
   endfacet
   facet normal 0 0.998533 -0.0541389
      outer loop
         vertex 0.3 -0.025022 0.124188
         vertex 0 -0.025022 0.124188
         vertex 0 -0.025022 0.125812
      endloop
   endfacet
   facet normal 0 0.998533 0.0541389
      outer loop
         vertex 0.3 -0.025022 0.125812
         vertex 0 -0.025022 0.125812
         vertex 0 -0.0251976 0.127427
      endloop
   endfacet
   facet normal 0 0.986827 0.161782
      outer loop
         vertex 0.3 -0.0251976 0.127427
         vertex 0 -0.0251976 0.127427
         vertex 0 -0.0255468 0.129013
      endloop
   endfacet
   facet normal 0 0.96355 0.267528
      outer loop
         vertex 0.3 -0.0255468 0.129013
         vertex 0 -0.0255468 0.129013
         vertex 0 -0.0260653 0.130552
      endloop
   endfacet
   facet normal 0 0.928977 0.370138
      outer loop
         vertex 0.3 -0.0260653 0.130552
         vertex 0 -0.0260653 0.130552
         vertex 0 -0.0267473 0.132026
      endloop
   endfacet
   facet normal 0 0.883512 0.468408
      outer loop
         vertex 0.3 -0.0267473 0.132026
         vertex 0 -0.0267473 0.132026
         vertex 0 -0.0275847 0.133418
      endloop
   endfacet
   facet normal 0 0.827689 0.561187
      outer loop
         vertex 0.3 -0.0275847 0.133418
         vertex 0 -0.0275847 0.133418
         vertex 0 -0.0285676 0.134711
      endloop
   endfacet
   facet normal 0 0.762162 0.647386
      outer loop
         vertex 0.3 -0.0285676 0.134711
         vertex 0 -0.0285676 0.134711
         vertex 0 -0.0296845 0.13589
      endloop
   endfacet
   facet normal 0 0.687699 0.725995
      outer loop
         vertex 0.3 -0.0296845 0.13589
         vertex 0 -0.0296845 0.13589
         vertex 0 -0.0309224 0.136941
      endloop
   endfacet
   facet normal 0 0.605174 0.796093
      outer loop
         vertex 0.3 -0.0309224 0.136941
         vertex 0 -0.0309224 0.136941
         vertex 0 -0.0322667 0.137853
      endloop
   endfacet
   facet normal 0 0.515554 0.856857
      outer loop
         vertex 0.3 -0.0322667 0.137853
         vertex 0 -0.0322667 0.137853
         vertex 0 -0.0337017 0.138614
      endloop
   endfacet
   facet normal 0 0.419889 0.907575
      outer loop
         vertex 0.3 -0.0337017 0.138614
         vertex 0 -0.0337017 0.138614
         vertex 0 -0.0352105 0.139215
      endloop
   endfacet
   facet normal 0 0.319302 0.947653
      outer loop
         vertex 0.3 -0.0352105 0.139215
         vertex 0 -0.0352105 0.139215
         vertex 0 -0.0367754 0.139649
      endloop
   endfacet
   facet normal 0 0.21497 0.976621
      outer loop
         vertex 0.3 -0.0367754 0.139649
         vertex 0 -0.0367754 0.139649
         vertex 0 -0.0383782 0.139912
      endloop
   endfacet
   facet normal 0 0.108119 0.994138
      outer loop
         vertex 0.3 -0.0383782 0.139912
         vertex 0 -0.0383782 0.139912
         vertex 0 -0.04 0.14
      endloop
   endfacet
   facet normal 0 1.22465e-16 1
      outer loop
         vertex 0.3 -0.04 0.14
         vertex 0 -0.04 0.14
         vertex 0 -0.0416218 0.139912
      endloop
   endfacet
   facet normal 0 -0.108119 0.994138
      outer loop
         vertex 0.3 -0.0416218 0.139912
         vertex 0 -0.0416218 0.139912
         vertex 0 -0.0432246 0.139649
      endloop
   endfacet
   facet normal 0 -0.21497 0.976621
      outer loop
         vertex 0.3 -0.0432246 0.139649
         vertex 0 -0.0432246 0.139649
         vertex 0 -0.0447895 0.139215
      endloop
   endfacet
   facet normal 0 -0.319302 0.947653
      outer loop
         vertex 0.3 -0.0447895 0.139215
         vertex 0 -0.0447895 0.139215
         vertex 0 -0.0462983 0.138614
      endloop
   endfacet
   facet normal 0 -0.419889 0.907575
      outer loop
         vertex 0.3 -0.0462983 0.138614
         vertex 0 -0.0462983 0.138614
         vertex 0 -0.0477333 0.137853
      endloop
   endfacet
   facet normal 0 -0.515554 0.856857
      outer loop
         vertex 0.3 -0.0477333 0.137853
         vertex 0 -0.0477333 0.137853
         vertex 0 -0.0490776 0.136941
      endloop
   endfacet
   facet normal 0 -0.605174 0.796093
      outer loop
         vertex 0.3 -0.0490776 0.136941
         vertex 0 -0.0490776 0.136941
         vertex 0 -0.0503155 0.13589
      endloop
   endfacet
   facet normal 0 -0.687699 0.725995
      outer loop
         vertex 0.3 -0.0503155 0.13589
         vertex 0 -0.0503155 0.13589
         vertex 0 -0.0514324 0.134711
      endloop
   endfacet
   facet normal 0 -0.762162 0.647386
      outer loop
         vertex 0.3 -0.0514324 0.134711
         vertex 0 -0.0514324 0.134711
         vertex 0 -0.0524153 0.133418
      endloop
   endfacet
   facet normal 0 -0.827689 0.561187
      outer loop
         vertex 0.3 -0.0524153 0.133418
         vertex 0 -0.0524153 0.133418
         vertex 0 -0.0532527 0.132026
      endloop
   endfacet
   facet normal 0 -0.883512 0.468408
      outer loop
         vertex 0.3 -0.0532527 0.132026
         vertex 0 -0.0532527 0.132026
         vertex 0 -0.0539347 0.130552
      endloop
   endfacet
   facet normal 0 -0.928977 0.370138
      outer loop
         vertex 0.3 -0.0539347 0.130552
         vertex 0 -0.0539347 0.130552
         vertex 0 -0.0544532 0.129013
      endloop
   endfacet
   facet normal 0 -0.96355 0.267528
      outer loop
         vertex 0.3 -0.0544532 0.129013
         vertex 0 -0.0544532 0.129013
         vertex 0 -0.0548024 0.127427
      endloop
   endfacet
   facet normal 0 -0.986827 0.161782
      outer loop
         vertex 0.3 -0.0548024 0.127427
         vertex 0 -0.0548024 0.127427
         vertex 0 -0.054978 0.125812
      endloop
   endfacet
   facet normal 0 -0.998533 0.0541389
      outer loop
         vertex 0.3 -0.054978 0.125812
         vertex 0 -0.054978 0.125812
         vertex 0 -0.054978 0.124188
      endloop
   endfacet
   facet normal 0 -0.998533 -0.0541389
      outer loop
         vertex 0.3 -0.054978 0.124188
         vertex 0 -0.054978 0.124188
         vertex 0 -0.0548024 0.122573
      endloop
   endfacet
   facet normal 0 -0.986827 -0.161782
      outer loop
         vertex 0.3 -0.0548024 0.122573
         vertex 0 -0.0548024 0.122573
         vertex 0 -0.0544532 0.120987
      endloop
   endfacet
   facet normal 0 -0.96355 -0.267528
      outer loop
         vertex 0.3 -0.0544532 0.120987
         vertex 0 -0.0544532 0.120987
         vertex 0 -0.0539347 0.119448
      endloop
   endfacet
   facet normal 0 -0.928977 -0.370138
      outer loop
         vertex 0.3 -0.0539347 0.119448
         vertex 0 -0.0539347 0.119448
         vertex 0 -0.0532527 0.117974
      endloop
   endfacet
   facet normal 0 -0.883512 -0.468408
      outer loop
         vertex 0.3 -0.0532527 0.117974
         vertex 0 -0.0532527 0.117974
         vertex 0 -0.0524153 0.116582
      endloop
   endfacet
   facet normal 0 -0.827689 -0.561187
      outer loop
         vertex 0.3 -0.0524153 0.116582
         vertex 0 -0.0524153 0.116582
         vertex 0 -0.0514324 0.115289
      endloop
   endfacet
   facet normal 0 -0.762162 -0.647386
      outer loop
         vertex 0.3 -0.0514324 0.115289
         vertex 0 -0.0514324 0.115289
         vertex 0 -0.0503155 0.11411
      endloop
   endfacet
   facet normal 0 -0.687699 -0.725995
      outer loop
         vertex 0.3 -0.0503155 0.11411
         vertex 0 -0.0503155 0.11411
         vertex 0 -0.0490776 0.113059
      endloop
   endfacet
   facet normal 0 -0.605174 -0.796093
      outer loop
         vertex 0.3 -0.0490776 0.113059
         vertex 0 -0.0490776 0.113059
         vertex 0 -0.0477333 0.112147
      endloop
   endfacet
   facet normal 0 -0.515554 -0.856857
      outer loop
         vertex 0.3 -0.0477333 0.112147
         vertex 0 -0.0477333 0.112147
         vertex 0 -0.0462983 0.111386
      endloop
   endfacet
   facet normal 0 -0.419889 -0.907575
      outer loop
         vertex 0.3 -0.0462983 0.111386
         vertex 0 -0.0462983 0.111386
         vertex 0 -0.0447895 0.110785
      endloop
   endfacet
   facet normal 0 -0.319302 -0.947653
      outer loop
         vertex 0.3 -0.0447895 0.110785
         vertex 0 -0.0447895 0.110785
         vertex 0 -0.0432246 0.110351
      endloop
   endfacet
   facet normal 0 -0.21497 -0.976621
      outer loop
         vertex 0.3 -0.0432246 0.110351
         vertex 0 -0.0432246 0.110351
         vertex 0 -0.0416218 0.110088
      endloop
   endfacet
   facet normal 0 -0.108119 -0.994138
      outer loop
         vertex 0.3 -0.0416218 0.110088
         vertex 0 -0.0416218 0.110088
         vertex 0 -0.04 0.11
      endloop
   endfacet
   facet normal 0 0 -1
      outer loop
         vertex 0 -0.04 0.11
         vertex 0.3 -0.04 0.11
         vertex 0.3 -0.0416218 0.110088
      endloop
   endfacet
   facet normal 0 -0.108119 -0.994138
      outer loop
         vertex 0 -0.0416218 0.110088
         vertex 0.3 -0.0416218 0.110088
         vertex 0.3 -0.0432246 0.110351
      endloop
   endfacet
   facet normal 0 -0.21497 -0.976621
      outer loop
         vertex 0 -0.0432246 0.110351
         vertex 0.3 -0.0432246 0.110351
         vertex 0.3 -0.0447895 0.110785
      endloop
   endfacet
   facet normal 0 -0.319302 -0.947653
      outer loop
         vertex 0 -0.0447895 0.110785
         vertex 0.3 -0.0447895 0.110785
         vertex 0.3 -0.0462983 0.111386
      endloop
   endfacet
   facet normal 0 -0.419889 -0.907575
      outer loop
         vertex 0 -0.0462983 0.111386
         vertex 0.3 -0.0462983 0.111386
         vertex 0.3 -0.0477333 0.112147
      endloop
   endfacet
   facet normal 0 -0.515554 -0.856857
      outer loop
         vertex 0 -0.0477333 0.112147
         vertex 0.3 -0.0477333 0.112147
         vertex 0.3 -0.0490776 0.113059
      endloop
   endfacet
   facet normal 0 -0.605174 -0.796093
      outer loop
         vertex 0 -0.0490776 0.113059
         vertex 0.3 -0.0490776 0.113059
         vertex 0.3 -0.0503155 0.11411
      endloop
   endfacet
   facet normal 0 -0.687699 -0.725995
      outer loop
         vertex 0 -0.0503155 0.11411
         vertex 0.3 -0.0503155 0.11411
         vertex 0.3 -0.0514324 0.115289
      endloop
   endfacet
   facet normal 0 -0.762162 -0.647386
      outer loop
         vertex 0 -0.0514324 0.115289
         vertex 0.3 -0.0514324 0.115289
         vertex 0.3 -0.0524153 0.116582
      endloop
   endfacet
   facet normal 0 -0.827689 -0.561187
      outer loop
         vertex 0 -0.0524153 0.116582
         vertex 0.3 -0.0524153 0.116582
         vertex 0.3 -0.0532527 0.117974
      endloop
   endfacet
   facet normal 0 -0.883512 -0.468408
      outer loop
         vertex 0 -0.0532527 0.117974
         vertex 0.3 -0.0532527 0.117974
         vertex 0.3 -0.0539347 0.119448
      endloop
   endfacet
   facet normal 0 -0.928977 -0.370138
      outer loop
         vertex 0 -0.0539347 0.119448
         vertex 0.3 -0.0539347 0.119448
         vertex 0.3 -0.0544532 0.120987
      endloop
   endfacet
   facet normal 0 -0.96355 -0.267528
      outer loop
         vertex 0 -0.0544532 0.120987
         vertex 0.3 -0.0544532 0.120987
         vertex 0.3 -0.0548024 0.122573
      endloop
   endfacet
   facet normal 0 -0.986827 -0.161782
      outer loop
         vertex 0 -0.0548024 0.122573
         vertex 0.3 -0.0548024 0.122573
         vertex 0.3 -0.054978 0.124188
      endloop
   endfacet
   facet normal 0 -0.998533 -0.0541389
      outer loop
         vertex 0 -0.054978 0.124188
         vertex 0.3 -0.054978 0.124188
         vertex 0.3 -0.054978 0.125812
      endloop
   endfacet
   facet normal 0 -0.998533 0.0541389
      outer loop
         vertex 0 -0.054978 0.125812
         vertex 0.3 -0.054978 0.125812
         vertex 0.3 -0.0548024 0.127427
      endloop
   endfacet
   facet normal 0 -0.986827 0.161782
      outer loop
         vertex 0 -0.0548024 0.127427
         vertex 0.3 -0.0548024 0.127427
         vertex 0.3 -0.0544532 0.129013
      endloop
   endfacet
   facet normal 0 -0.96355 0.267528
      outer loop
         vertex 0 -0.0544532 0.129013
         vertex 0.3 -0.0544532 0.129013
         vertex 0.3 -0.0539347 0.130552
      endloop
   endfacet
   facet normal 0 -0.928977 0.370138
      outer loop
         vertex 0 -0.0539347 0.130552
         vertex 0.3 -0.0539347 0.130552
         vertex 0.3 -0.0532527 0.132026
      endloop
   endfacet
   facet normal 0 -0.883512 0.468408
      outer loop
         vertex 0 -0.0532527 0.132026
         vertex 0.3 -0.0532527 0.132026
         vertex 0.3 -0.0524153 0.133418
      endloop
   endfacet
   facet normal 0 -0.827689 0.561187
      outer loop
         vertex 0 -0.0524153 0.133418
         vertex 0.3 -0.0524153 0.133418
         vertex 0.3 -0.0514324 0.134711
      endloop
   endfacet
   facet normal 0 -0.762162 0.647386
      outer loop
         vertex 0 -0.0514324 0.134711
         vertex 0.3 -0.0514324 0.134711
         vertex 0.3 -0.0503155 0.13589
      endloop
   endfacet
   facet normal 0 -0.687699 0.725995
      outer loop
         vertex 0 -0.0503155 0.13589
         vertex 0.3 -0.0503155 0.13589
         vertex 0.3 -0.0490776 0.136941
      endloop
   endfacet
   facet normal 0 -0.605174 0.796093
      outer loop
         vertex 0 -0.0490776 0.136941
         vertex 0.3 -0.0490776 0.136941
         vertex 0.3 -0.0477333 0.137853
      endloop
   endfacet
   facet normal 0 -0.515554 0.856857
      outer loop
         vertex 0 -0.0477333 0.137853
         vertex 0.3 -0.0477333 0.137853
         vertex 0.3 -0.0462983 0.138614
      endloop
   endfacet
   facet normal 0 -0.419889 0.907575
      outer loop
         vertex 0 -0.0462983 0.138614
         vertex 0.3 -0.0462983 0.138614
         vertex 0.3 -0.0447895 0.139215
      endloop
   endfacet
   facet normal 0 -0.319302 0.947653
      outer loop
         vertex 0 -0.0447895 0.139215
         vertex 0.3 -0.0447895 0.139215
         vertex 0.3 -0.0432246 0.139649
      endloop
   endfacet
   facet normal 0 -0.21497 0.976621
      outer loop
         vertex 0 -0.0432246 0.139649
         vertex 0.3 -0.0432246 0.139649
         vertex 0.3 -0.0416218 0.139912
      endloop
   endfacet
   facet normal 0 -0.108119 0.994138
      outer loop
         vertex 0 -0.0416218 0.139912
         vertex 0.3 -0.0416218 0.139912
         vertex 0.3 -0.04 0.14
      endloop
   endfacet
   facet normal 0 1.22465e-16 1
      outer loop
         vertex 0 -0.04 0.14
         vertex 0.3 -0.04 0.14
         vertex 0.3 -0.0383782 0.139912
      endloop
   endfacet
   facet normal 0 0.108119 0.994138
      outer loop
         vertex 0 -0.0383782 0.139912
         vertex 0.3 -0.0383782 0.139912
         vertex 0.3 -0.0367754 0.139649
      endloop
   endfacet
   facet normal 0 0.21497 0.976621
      outer loop
         vertex 0 -0.0367754 0.139649
         vertex 0.3 -0.0367754 0.139649
         vertex 0.3 -0.0352105 0.139215
      endloop
   endfacet
   facet normal 0 0.319302 0.947653
      outer loop
         vertex 0 -0.0352105 0.139215
         vertex 0.3 -0.0352105 0.139215
         vertex 0.3 -0.0337017 0.138614
      endloop
   endfacet
   facet normal 0 0.419889 0.907575
      outer loop
         vertex 0 -0.0337017 0.138614
         vertex 0.3 -0.0337017 0.138614
         vertex 0.3 -0.0322667 0.137853
      endloop
   endfacet
   facet normal 0 0.515554 0.856857
      outer loop
         vertex 0 -0.0322667 0.137853
         vertex 0.3 -0.0322667 0.137853
         vertex 0.3 -0.0309224 0.136941
      endloop
   endfacet
   facet normal 0 0.605174 0.796093
      outer loop
         vertex 0 -0.0309224 0.136941
         vertex 0.3 -0.0309224 0.136941
         vertex 0.3 -0.0296845 0.13589
      endloop
   endfacet
   facet normal 0 0.687699 0.725995
      outer loop
         vertex 0 -0.0296845 0.13589
         vertex 0.3 -0.0296845 0.13589
         vertex 0.3 -0.0285676 0.134711
      endloop
   endfacet
   facet normal 0 0.762162 0.647386
      outer loop
         vertex 0 -0.0285676 0.134711
         vertex 0.3 -0.0285676 0.134711
         vertex 0.3 -0.0275847 0.133418
      endloop
   endfacet
   facet normal 0 0.827689 0.561187
      outer loop
         vertex 0 -0.0275847 0.133418
         vertex 0.3 -0.0275847 0.133418
         vertex 0.3 -0.0267473 0.132026
      endloop
   endfacet
   facet normal 0 0.883512 0.468408
      outer loop
         vertex 0 -0.0267473 0.132026
         vertex 0.3 -0.0267473 0.132026
         vertex 0.3 -0.0260653 0.130552
      endloop
   endfacet
   facet normal 0 0.928977 0.370138
      outer loop
         vertex 0 -0.0260653 0.130552
         vertex 0.3 -0.0260653 0.130552
         vertex 0.3 -0.0255468 0.129013
      endloop
   endfacet
   facet normal 0 0.96355 0.267528
      outer loop
         vertex 0 -0.0255468 0.129013
         vertex 0.3 -0.0255468 0.129013
         vertex 0.3 -0.0251976 0.127427
      endloop
   endfacet
   facet normal 0 0.986827 0.161782
      outer loop
         vertex 0 -0.0251976 0.127427
         vertex 0.3 -0.0251976 0.127427
         vertex 0.3 -0.025022 0.125812
      endloop
   endfacet
   facet normal 0 0.998533 0.0541389
      outer loop
         vertex 0 -0.025022 0.125812
         vertex 0.3 -0.025022 0.125812
         vertex 0.3 -0.025022 0.124188
      endloop
   endfacet
   facet normal 0 0.998533 -0.0541389
      outer loop
         vertex 0 -0.025022 0.124188
         vertex 0.3 -0.025022 0.124188
         vertex 0.3 -0.0251976 0.122573
      endloop
   endfacet
   facet normal 0 0.986827 -0.161782
      outer loop
         vertex 0 -0.0251976 0.122573
         vertex 0.3 -0.0251976 0.122573
         vertex 0.3 -0.0255468 0.120987
      endloop
   endfacet
   facet normal 0 0.96355 -0.267528
      outer loop
         vertex 0 -0.0255468 0.120987
         vertex 0.3 -0.0255468 0.120987
         vertex 0.3 -0.0260653 0.119448
      endloop
   endfacet
   facet normal 0 0.928977 -0.370138
      outer loop
         vertex 0 -0.0260653 0.119448
         vertex 0.3 -0.0260653 0.119448
         vertex 0.3 -0.0267473 0.117974
      endloop
   endfacet
   facet normal 0 0.883512 -0.468408
      outer loop
         vertex 0 -0.0267473 0.117974
         vertex 0.3 -0.0267473 0.117974
         vertex 0.3 -0.0275847 0.116582
      endloop
   endfacet
   facet normal 0 0.827689 -0.561187
      outer loop
         vertex 0 -0.0275847 0.116582
         vertex 0.3 -0.0275847 0.116582
         vertex 0.3 -0.0285676 0.115289
      endloop
   endfacet
   facet normal 0 0.762162 -0.647386
      outer loop
         vertex 0 -0.0285676 0.115289
         vertex 0.3 -0.0285676 0.115289
         vertex 0.3 -0.0296845 0.11411
      endloop
   endfacet
   facet normal 0 0.687699 -0.725995
      outer loop
         vertex 0 -0.0296845 0.11411
         vertex 0.3 -0.0296845 0.11411
         vertex 0.3 -0.0309224 0.113059
      endloop
   endfacet
   facet normal 0 0.605174 -0.796093
      outer loop
         vertex 0 -0.0309224 0.113059
         vertex 0.3 -0.0309224 0.113059
         vertex 0.3 -0.0322667 0.112147
      endloop
   endfacet
   facet normal 0 0.515554 -0.856857
      outer loop
         vertex 0 -0.0322667 0.112147
         vertex 0.3 -0.0322667 0.112147
         vertex 0.3 -0.0337017 0.111386
      endloop
   endfacet
   facet normal 0 0.419889 -0.907575
      outer loop
         vertex 0 -0.0337017 0.111386
         vertex 0.3 -0.0337017 0.111386
         vertex 0.3 -0.0352105 0.110785
      endloop
   endfacet
   facet normal 0 0.319302 -0.947653
      outer loop
         vertex 0 -0.0352105 0.110785
         vertex 0.3 -0.0352105 0.110785
         vertex 0.3 -0.0367754 0.110351
      endloop
   endfacet
   facet normal 0 0.21497 -0.976621
      outer loop
         vertex 0 -0.0367754 0.110351
         vertex 0.3 -0.0367754 0.110351
         vertex 0.3 -0.0383782 0.110088
      endloop
   endfacet
   facet normal 0 0.108119 -0.994138
      outer loop
         vertex 0 -0.0383782 0.110088
         vertex 0.3 -0.0383782 0.110088
         vertex 0.3 -0.04 0.11
      endloop
   endfacet
   facet normal 1 0 0
      outer loop
         vertex 0 -0.02 0.105
         vertex 0 -0.0285676 0.115289
         vertex 0 -0.0296845 0.11411
      endloop
   endfacet
   facet normal 1 0 0
      outer loop
         vertex 0 -0.02 0.145
         vertex 0 -0.025022 0.125812
         vertex 0 -0.025022 0.124188
      endloop
   endfacet
   facet normal 1 0 0
      outer loop
         vertex 0 -0.02 0.105
         vertex 0 -0.0275847 0.116582
         vertex 0 -0.0285676 0.115289
      endloop
   endfacet
   facet normal 1 0 0
      outer loop
         vertex 0 -0.02 0.105
         vertex 0 -0.0255468 0.120987
         vertex 0 -0.0260653 0.119448
      endloop
   endfacet
   facet normal 1 0 0
      outer loop
         vertex 0 -0.025022 0.124188
         vertex 0 -0.02 0.105
         vertex 0 -0.02 0.145
      endloop
   endfacet
   facet normal 1 0 0
      outer loop
         vertex 0 -0.02 0.145
         vertex 0 -0.0255468 0.129013
         vertex 0 -0.0251976 0.127427
      endloop
   endfacet
   facet normal 1 0 0
      outer loop
         vertex 0 -0.02 0.145
         vertex 0 -0.0275847 0.133418
         vertex 0 -0.0267473 0.132026
      endloop
   endfacet
   facet normal 1 0 0
      outer loop
         vertex 0 -0.02 0.105
         vertex 0 -0.0267473 0.117974
         vertex 0 -0.0275847 0.116582
      endloop
   endfacet
   facet normal 1 0 0
      outer loop
         vertex 0 -0.02 0.105
         vertex 0 -0.0251976 0.122573
         vertex 0 -0.0255468 0.120987
      endloop
   endfacet
   facet normal 1 0 0
      outer loop
         vertex 0 -0.0251976 0.127427
         vertex 0 -0.025022 0.125812
         vertex 0 -0.02 0.145
      endloop
   endfacet
   facet normal 1 0 0
      outer loop
         vertex 0 -0.0267473 0.132026
         vertex 0 -0.0260653 0.130552
         vertex 0 -0.02 0.145
      endloop
   endfacet
   facet normal 1 0 0
      outer loop
         vertex 0 -0.0260653 0.119448
         vertex 0 -0.0267473 0.117974
         vertex 0 -0.02 0.105
      endloop
   endfacet
   facet normal 1 0 0
      outer loop
         vertex 0 -0.0260653 0.130552
         vertex 0 -0.0255468 0.129013
         vertex 0 -0.02 0.145
      endloop
   endfacet
   facet normal 1 0 0
      outer loop
         vertex 0 -0.06 0.145
         vertex 0 -0.06 0.105
         vertex 0 -0.054978 0.124188
      endloop
   endfacet
   facet normal 1 0 0
      outer loop
         vertex 0 -0.025022 0.124188
         vertex 0 -0.0251976 0.122573
         vertex 0 -0.02 0.105
      endloop
   endfacet
   facet normal 1 0 0
      outer loop
         vertex 0 -0.02 0.145
         vertex 0 -0.0296845 0.13589
         vertex 0 -0.0285676 0.134711
      endloop
   endfacet
   facet normal 1 0 0
      outer loop
         vertex 0 -0.06 0.105
         vertex 0 -0.0548024 0.122573
         vertex 0 -0.054978 0.124188
      endloop
   endfacet
   facet normal 1 0 0
      outer loop
         vertex 0 -0.0285676 0.134711
         vertex 0 -0.0275847 0.133418
         vertex 0 -0.02 0.145
      endloop
   endfacet
   facet normal 1 0 0
      outer loop
         vertex 0 -0.06 0.145
         vertex 0 -0.0539347 0.130552
         vertex 0 -0.0532527 0.132026
      endloop
   endfacet
   facet normal 1 0 0
      outer loop
         vertex 0 -0.06 0.145
         vertex 0 -0.0548024 0.127427
         vertex 0 -0.0544532 0.129013
      endloop
   endfacet
   facet normal 1 0 0
      outer loop
         vertex 0 -0.054978 0.124188
         vertex 0 -0.054978 0.125812
         vertex 0 -0.06 0.145
      endloop
   endfacet
   facet normal 1 0 0
      outer loop
         vertex 0 -0.0296845 0.11411
         vertex 0 -0.0309224 0.113059
         vertex 0 -0.02 0.105
      endloop
   endfacet
   facet normal 1 0 0
      outer loop
         vertex 0 -0.02 0.145
         vertex 0 -0.0322667 0.137853
         vertex 0 -0.0309224 0.136941
      endloop
   endfacet
   facet normal 1 0 0
      outer loop
         vertex 0 -0.06 0.145
         vertex 0 -0.0514324 0.134711
         vertex 0 -0.0503155 0.13589
      endloop
   endfacet
   facet normal 1 0 0
      outer loop
         vertex 0 -0.0532527 0.132026
         vertex 0 -0.0524153 0.133418
         vertex 0 -0.06 0.145
      endloop
   endfacet
   facet normal 1 0 0
      outer loop
         vertex 0 -0.054978 0.125812
         vertex 0 -0.0548024 0.127427
         vertex 0 -0.06 0.145
      endloop
   endfacet
   facet normal 1 0 0
      outer loop
         vertex 0 -0.06 0.105
         vertex 0 -0.0524153 0.116582
         vertex 0 -0.0532527 0.117974
      endloop
   endfacet
   facet normal 1 0 0
      outer loop
         vertex 0 -0.06 0.105
         vertex 0 -0.0447895 0.110785
         vertex 0 -0.0462983 0.111386
      endloop
   endfacet
   facet normal 1 0 0
      outer loop
         vertex 0 -0.06 0.105
         vertex 0 -0.0416218 0.110088
         vertex 0 -0.0432246 0.110351
      endloop
   endfacet
   facet normal 1 0 0
      outer loop
         vertex 0 -0.02 0.105
         vertex 0 -0.0352105 0.110785
         vertex 0 -0.0367754 0.110351
      endloop
   endfacet
   facet normal 1 0 0
      outer loop
         vertex 0 -0.02 0.105
         vertex 0 -0.0322667 0.112147
         vertex 0 -0.0337017 0.111386
      endloop
   endfacet
   facet normal 1 0 0
      outer loop
         vertex 0 -0.0309224 0.136941
         vertex 0 -0.0296845 0.13589
         vertex 0 -0.02 0.145
      endloop
   endfacet
   facet normal 1 0 0
      outer loop
         vertex 0 -0.02 0.145
         vertex 0 -0.0352105 0.139215
         vertex 0 -0.0337017 0.138614
      endloop
   endfacet
   facet normal 1 0 0
      outer loop
         vertex 0 -0.02 0.145
         vertex 0 -0.06 0.145
         vertex 0 -0.04 0.14
      endloop
   endfacet
   facet normal 1 0 0
      outer loop
         vertex 0 -0.06 0.145
         vertex 0 -0.0477333 0.137853
         vertex 0 -0.0462983 0.138614
      endloop
   endfacet
   facet normal 1 0 0
      outer loop
         vertex 0 -0.0503155 0.13589
         vertex 0 -0.0490776 0.136941
         vertex 0 -0.06 0.145
      endloop
   endfacet
   facet normal 1 0 0
      outer loop
         vertex 0 -0.0544532 0.129013
         vertex 0 -0.0539347 0.130552
         vertex 0 -0.06 0.145
      endloop
   endfacet
   facet normal 1 0 0
      outer loop
         vertex 0 -0.06 0.105
         vertex 0 -0.0539347 0.119448
         vertex 0 -0.0544532 0.120987
      endloop
   endfacet
   facet normal 1 0 0
      outer loop
         vertex 0 -0.06 0.105
         vertex 0 -0.0514324 0.115289
         vertex 0 -0.0524153 0.116582
      endloop
   endfacet
   facet normal 1 0 0
      outer loop
         vertex 0 -0.06 0.105
         vertex 0 -0.0490776 0.113059
         vertex 0 -0.0503155 0.11411
      endloop
   endfacet
   facet normal 1 0 0
      outer loop
         vertex 0 -0.0432246 0.110351
         vertex 0 -0.0447895 0.110785
         vertex 0 -0.06 0.105
      endloop
   endfacet
   facet normal 1 0 0
      outer loop
         vertex 0 -0.0337017 0.111386
         vertex 0 -0.0352105 0.110785
         vertex 0 -0.02 0.105
      endloop
   endfacet
   facet normal 1 0 0
      outer loop
         vertex 0 -0.0337017 0.138614
         vertex 0 -0.0322667 0.137853
         vertex 0 -0.02 0.145
      endloop
   endfacet
   facet normal 1 0 0
      outer loop
         vertex 0 -0.04 0.14
         vertex 0 -0.0383782 0.139912
         vertex 0 -0.02 0.145
      endloop
   endfacet
   facet normal 1 0 0
      outer loop
         vertex 0 -0.06 0.145
         vertex 0 -0.0432246 0.139649
         vertex 0 -0.0416218 0.139912
      endloop
   endfacet
   facet normal 1 0 0
      outer loop
         vertex 0 -0.0490776 0.136941
         vertex 0 -0.0477333 0.137853
         vertex 0 -0.06 0.145
      endloop
   endfacet
   facet normal 1 0 0
      outer loop
         vertex 0 -0.0544532 0.120987
         vertex 0 -0.0548024 0.122573
         vertex 0 -0.06 0.105
      endloop
   endfacet
   facet normal 1 0 0
      outer loop
         vertex 0 -0.0503155 0.11411
         vertex 0 -0.0514324 0.115289
         vertex 0 -0.06 0.105
      endloop
   endfacet
   facet normal 1 0 0
      outer loop
         vertex 0 -0.0462983 0.111386
         vertex 0 -0.0477333 0.112147
         vertex 0 -0.06 0.105
      endloop
   endfacet
   facet normal 1 0 0
      outer loop
         vertex 0 -0.02 0.105
         vertex 0 -0.0383782 0.110088
         vertex 0 -0.04 0.11
      endloop
   endfacet
   facet normal 1 0 0
      outer loop
         vertex 0 -0.0309224 0.113059
         vertex 0 -0.0322667 0.112147
         vertex 0 -0.02 0.105
      endloop
   endfacet
   facet normal 1 0 0
      outer loop
         vertex 0 -0.0383782 0.139912
         vertex 0 -0.0367754 0.139649
         vertex 0 -0.02 0.145
      endloop
   endfacet
   facet normal 1 0 0
      outer loop
         vertex 0 -0.06 0.145
         vertex 0 -0.0447895 0.139215
         vertex 0 -0.0432246 0.139649
      endloop
   endfacet
   facet normal 1 0 0
      outer loop
         vertex 0 -0.0524153 0.133418
         vertex 0 -0.0514324 0.134711
         vertex 0 -0.06 0.145
      endloop
   endfacet
   facet normal 1 0 0
      outer loop
         vertex 0 -0.0477333 0.112147
         vertex 0 -0.0490776 0.113059
         vertex 0 -0.06 0.105
      endloop
   endfacet
   facet normal 1 0 0
      outer loop
         vertex 0 -0.0367754 0.110351
         vertex 0 -0.0383782 0.110088
         vertex 0 -0.02 0.105
      endloop
   endfacet
   facet normal 1 0 0
      outer loop
         vertex 0 -0.0416218 0.139912
         vertex 0 -0.04 0.14
         vertex 0 -0.06 0.145
      endloop
   endfacet
   facet normal 1 0 0
      outer loop
         vertex 0 -0.0532527 0.117974
         vertex 0 -0.0539347 0.119448
         vertex 0 -0.06 0.105
      endloop
   endfacet
   facet normal 1 0 0
      outer loop
         vertex 0 -0.0367754 0.139649
         vertex 0 -0.0352105 0.139215
         vertex 0 -0.02 0.145
      endloop
   endfacet
   facet normal 1 0 0
      outer loop
         vertex 0 -0.06 0.105
         vertex 0 -0.04 0.11
         vertex 0 -0.0416218 0.110088
      endloop
   endfacet
   facet normal 1 0 0
      outer loop
         vertex 0 -0.0462983 0.138614
         vertex 0 -0.0447895 0.139215
         vertex 0 -0.06 0.145
      endloop
   endfacet
   facet normal 1 0 0
      outer loop
         vertex 0 -0.04 0.11
         vertex 0 -0.06 0.105
         vertex 0 -0.02 0.105
      endloop
   endfacet
   facet normal 0 -1 0
      outer loop
         vertex 0 -0.06 0.105
         vertex 0 -0.06 0.145
         vertex -0.06 -0.06 0.145
      endloop
   endfacet
   facet normal 0 -1 0
      outer loop
         vertex -0.06 -0.06 0.145
         vertex -0.06 -0.06 0.105
         vertex 0 -0.06 0.105
      endloop
   endfacet
   facet normal 0 1 0
      outer loop
         vertex -0.1 -0.02 0.145
         vertex 0 -0.02 0.145
         vertex 0 -0.02 0.105
      endloop
   endfacet
   facet normal 0 1 0
      outer loop
         vertex 0 -0.02 0.105
         vertex -0.1 -0.02 0.105
         vertex -0.1 -0.02 0.145
      endloop
   endfacet
   facet normal 0 0 1
      outer loop
         vertex 0 -0.02 0.145
         vertex -0.1 -0.02 0.145
         vertex -0.06 -0.06 0.145
      endloop
   endfacet
   facet normal 0 0 1
      outer loop
         vertex -0.1 -0.02 0.145
         vertex -0.1 -0.06 0.145
         vertex -0.06 -0.06 0.145
      endloop
   endfacet
   facet normal 0 0 1
      outer loop
         vertex -0.06 -0.06 0.145
         vertex 0 -0.06 0.145
         vertex 0 -0.02 0.145
      endloop
   endfacet
   facet normal 0 0 -1
      outer loop
         vertex 0 -0.02 0.105
         vertex 0 -0.06 0.105
         vertex -0.06 -0.06 0.105
      endloop
   endfacet
   facet normal 0 0 -1
      outer loop
         vertex -0.06 -0.06 0.105
         vertex -0.1 -0.02 0.105
         vertex 0 -0.02 0.105
      endloop
   endfacet
   facet normal 0 0 -1
      outer loop
         vertex -0.06 -0.06 0.105
         vertex -0.1 -0.06 0.105
         vertex -0.1 -0.02 0.105
      endloop
   endfacet
   facet normal 0 1 0
      outer loop
         vertex -0.06 -0.06 -0.205
         vertex -0.1 -0.06 -0.205
         vertex -0.1 -0.06 0.105
      endloop
   endfacet
   facet normal 0 1 0
      outer loop
         vertex -0.1 -0.06 0.105
         vertex -0.06 -0.06 0.105
         vertex -0.06 -0.06 -0.205
      endloop
   endfacet
   facet normal 0 0 -1
      outer loop
         vertex -0.06 -0.1 -0.205
         vertex -0.1 -0.1 -0.205
         vertex -0.1 -0.06 -0.205
      endloop
   endfacet
   facet normal 0 0 -1
      outer loop
         vertex -0.1 -0.06 -0.205
         vertex -0.06 -0.06 -0.205
         vertex -0.06 -0.1 -0.205
      endloop
   endfacet
   facet normal -1 0 0
      outer loop
         vertex -0.1 -0.02 0.105
         vertex -0.1 -0.06 0.105
         vertex -0.1 -0.06 0.145
      endloop
   endfacet
   facet normal -1 0 0
      outer loop
         vertex -0.1 -0.1 0.495
         vertex -0.1 -0.06 0.495
         vertex -0.1 -0.06 0.145
      endloop
   endfacet
   facet normal -1 0 0
      outer loop
         vertex -0.1 -0.1 -0.205
         vertex -0.1 -0.1 0.495
         vertex -0.1 -0.06 0.105
      endloop
   endfacet
   facet normal -1 0 0
      outer loop
         vertex -0.1 -0.06 0.145
         vertex -0.1 -0.06 0.105
         vertex -0.1 -0.1 0.495
      endloop
   endfacet
   facet normal -1 0 0
      outer loop
         vertex -0.1 -0.06 0.145
         vertex -0.1 -0.02 0.145
         vertex -0.1 -0.02 0.105
      endloop
   endfacet
   facet normal -1 0 0
      outer loop
         vertex -0.1 -0.06 0.105
         vertex -0.1 -0.06 -0.205
         vertex -0.1 -0.1 -0.205
      endloop
   endfacet
   facet normal 1 0 0
      outer loop
         vertex -0.06 -0.1 0.455
         vertex -0.06 -0.1 -0.205
         vertex -0.06 -0.06 0.105
      endloop
   endfacet
   facet normal 1 0 0
      outer loop
         vertex -0.06 -0.06 0.105
         vertex -0.06 -0.06 0.145
         vertex -0.06 -0.1 0.455
      endloop
   endfacet
   facet normal 1 0 0
      outer loop
         vertex -0.06 -0.1 -0.205
         vertex -0.06 -0.06 -0.205
         vertex -0.06 -0.06 0.105
      endloop
   endfacet
   facet normal 1 0 0
      outer loop
         vertex -0.06 -0.06 0.145
         vertex -0.06 -0.06 0.455
         vertex -0.06 -0.1 0.455
      endloop
   endfacet
   facet normal 0 0 1
      outer loop
         vertex 0.1 -0.06 0.495
         vertex -0.1 -0.06 0.495
         vertex -0.1 -0.1 0.495
      endloop
   endfacet
   facet normal 0 0 1
      outer loop
         vertex -0.1 -0.1 0.495
         vertex 0.1 -0.1 0.495
         vertex 0.1 -0.06 0.495
      endloop
   endfacet
   facet normal 1 0 0
      outer loop
         vertex 0.1 -0.1 0.495
         vertex 0.1 -0.1 -0.205
         vertex 0.1 -0.06 -0.205
      endloop
   endfacet
   facet normal 1 0 0
      outer loop
         vertex 0.1 -0.06 -0.205
         vertex 0.1 -0.06 0.495
         vertex 0.1 -0.1 0.495
      endloop
   endfacet
   facet normal 0 1 0
      outer loop
         vertex -0.1 -0.06 0.145
         vertex -0.1 -0.06 0.495
         vertex -0.06 -0.06 0.455
      endloop
   endfacet
   facet normal 0 1 0
      outer loop
         vertex -0.1 -0.06 0.495
         vertex 0.1 -0.06 0.495
         vertex 0.06 -0.06 0.455
      endloop
   endfacet
   facet normal 0 1 0
      outer loop
         vertex 0.06 -0.06 0.455
         vertex -0.06 -0.06 0.455
         vertex -0.1 -0.06 0.495
      endloop
   endfacet
   facet normal 0 1 0
      outer loop
         vertex 0.1 -0.06 -0.205
         vertex 0.06 -0.06 -0.205
         vertex 0.06 -0.06 0.455
      endloop
   endfacet
   facet normal 0 1 0
      outer loop
         vertex 0.06 -0.06 0.455
         vertex 0.1 -0.06 0.495
         vertex 0.1 -0.06 -0.205
      endloop
   endfacet
   facet normal 0 1 0
      outer loop
         vertex -0.06 -0.06 0.455
         vertex -0.06 -0.06 0.145
         vertex -0.1 -0.06 0.145
      endloop
   endfacet
   facet normal 0 -1 0
      outer loop
         vertex 0.1 -0.1 -0.205
         vertex 0.1 -0.1 0.495
         vertex 0.06 -0.1 0.455
      endloop
   endfacet
   facet normal 0 -1 0
      outer loop
         vertex 0.1 -0.1 0.495
         vertex -0.1 -0.1 0.495
         vertex -0.06 -0.1 0.455
      endloop
   endfacet
   facet normal 0 -1 0
      outer loop
         vertex -0.06 -0.1 0.455
         vertex 0.06 -0.1 0.455
         vertex 0.1 -0.1 0.495
      endloop
   endfacet
   facet normal 0 -1 0
      outer loop
         vertex -0.1 -0.1 -0.205
         vertex -0.06 -0.1 -0.205
         vertex -0.06 -0.1 0.455
      endloop
   endfacet
   facet normal 0 -1 0
      outer loop
         vertex -0.06 -0.1 0.455
         vertex -0.1 -0.1 0.495
         vertex -0.1 -0.1 -0.205
      endloop
   endfacet
   facet normal 0 -1 0
      outer loop
         vertex 0.06 -0.1 0.455
         vertex 0.06 -0.1 -0.205
         vertex 0.1 -0.1 -0.205
      endloop
   endfacet
   facet normal -1 0 0
      outer loop
         vertex 0.06 -0.1 -0.205
         vertex 0.06 -0.1 0.455
         vertex 0.06 -0.06 0.455
      endloop
   endfacet
   facet normal -1 0 0
      outer loop
         vertex 0.06 -0.06 0.455
         vertex 0.06 -0.06 -0.205
         vertex 0.06 -0.1 -0.205
      endloop
   endfacet
   facet normal 0 0 -1
      outer loop
         vertex 0.1 -0.06 -0.205
         vertex 0.1 -0.1 -0.205
         vertex 0.06 -0.1 -0.205
      endloop
   endfacet
   facet normal 0 0 -1
      outer loop
         vertex 0.06 -0.1 -0.205
         vertex 0.06 -0.06 -0.205
         vertex 0.1 -0.06 -0.205
      endloop
   endfacet
   facet normal 0 0 -1
      outer loop
         vertex -0.06 -0.06 0.455
         vertex -0.0162803 -0.0702045 0.455
         vertex -0.0172439 -0.0720221 0.455
      endloop
   endfacet
   facet normal 0 0 -1
      outer loop
         vertex -0.06 -0.06 0.455
         vertex -0.0151258 -0.0685017 0.455
         vertex -0.0162803 -0.0702045 0.455
      endloop
   endfacet
   facet normal 0 0 -1
      outer loop
         vertex -0.06 -0.06 0.455
         vertex -0.0123003 -0.0655189 0.455
         vertex -0.0137939 -0.0669337 0.455
      endloop
   endfacet
   facet normal 0 0 -1
      outer loop
         vertex 0.06 -0.06 0.455
         vertex 0.0123003 -0.0655189 0.455
         vertex 0.0106626 -0.0642739 0.455
      endloop
   endfacet
   facet normal 0 0 -1
      outer loop
         vertex 0.06 -0.06 0.455
         vertex 0.0151258 -0.0685017 0.455
         vertex 0.0137939 -0.0669337 0.455
      endloop
   endfacet
   facet normal 0 0 -1
      outer loop
         vertex 0.06 -0.06 0.455
         vertex 0.0188886 -0.0779457 0.455
         vertex 0.0185558 -0.0759156 0.455
      endloop
   endfacet
   facet normal 0 0 -1
      outer loop
         vertex -0.06 -0.06 0.455
         vertex -0.0180054 -0.0739333 0.455
         vertex -0.0185558 -0.0759156 0.455
      endloop
   endfacet
   facet normal 0 0 -1
      outer loop
         vertex -0.0137939 -0.0669337 0.455
         vertex -0.0151258 -0.0685017 0.455
         vertex -0.06 -0.06 0.455
      endloop
   endfacet
   facet normal 0 0 -1
      outer loop
         vertex 0.0137939 -0.0669337 0.455
         vertex 0.0123003 -0.0655189 0.455
         vertex 0.06 -0.06 0.455
      endloop
   endfacet
   facet normal 0 0 -1
      outer loop
         vertex 0.0185558 -0.0759156 0.455
         vertex 0.0180054 -0.0739333 0.455
         vertex 0.06 -0.06 0.455
      endloop
   endfacet
   facet normal 0 0 -1
      outer loop
         vertex -0.0172439 -0.0720221 0.455
         vertex -0.0180054 -0.0739333 0.455
         vertex -0.06 -0.06 0.455
      endloop
   endfacet
   facet normal 0 0 -1
      outer loop
         vertex -0.06 -0.06 0.455
         vertex -0.00889976 -0.0632133 0.455
         vertex -0.0106626 -0.0642739 0.455
      endloop
   endfacet
   facet normal 0 0 -1
      outer loop
         vertex 0.06 -0.06 0.455
         vertex 0.0162803 -0.0702045 0.455
         vertex 0.0151258 -0.0685017 0.455
      endloop
   endfacet
   facet normal 0 0 -1
      outer loop
         vertex 0.0180054 -0.0739333 0.455
         vertex 0.0172439 -0.0720221 0.455
         vertex 0.06 -0.06 0.455
      endloop
   endfacet
   facet normal 0 0 -1
      outer loop
         vertex 0.06 -0.06 0.455
         vertex 0.06 -0.1 0.455
         vertex 0.019 -0.08 0.455
      endloop
   endfacet
   facet normal 0 0 -1
      outer loop
         vertex -0.0106626 -0.0642739 0.455
         vertex -0.0123003 -0.0655189 0.455
         vertex -0.06 -0.06 0.455
      endloop
   endfacet
   facet normal 0 0 -1
      outer loop
         vertex -0.06 -0.06 0.455
         vertex -0.00508304 -0.0616926 0.455
         vertex -0.00703262 -0.0623494 0.455
      endloop
   endfacet
   facet normal 0 0 -1
      outer loop
         vertex -0.06 -0.06 0.455
         vertex -0.00102864 -0.0610279 0.455
         vertex -0.00307386 -0.0612503 0.455
      endloop
   endfacet
   facet normal 0 0 -1
      outer loop
         vertex 0.0172439 -0.0720221 0.455
         vertex 0.0162803 -0.0702045 0.455
         vertex 0.06 -0.06 0.455
      endloop
   endfacet
   facet normal 0 0 -1
      outer loop
         vertex 0.06 -0.1 0.455
         vertex 0.0188886 -0.0820543 0.455
         vertex 0.019 -0.08 0.455
      endloop
   endfacet
   facet normal 0 0 -1
      outer loop
         vertex 0.06 -0.1 0.455
         vertex 0.0180054 -0.0860667 0.455
         vertex 0.0185558 -0.0840844 0.455
      endloop
   endfacet
   facet normal 0 0 -1
      outer loop
         vertex 0.06 -0.1 0.455
         vertex 0.0162803 -0.0897955 0.455
         vertex 0.0172439 -0.0879779 0.455
      endloop
   endfacet
   facet normal 0 0 -1
      outer loop
         vertex 0.06 -0.1 0.455
         vertex 0.0123003 -0.0944811 0.455
         vertex 0.0137939 -0.0930663 0.455
      endloop
   endfacet
   facet normal 0 0 -1
      outer loop
         vertex -0.06 -0.1 0.455
         vertex -0.0188886 -0.0820543 0.455
         vertex -0.0185558 -0.0840844 0.455
      endloop
   endfacet
   facet normal 0 0 -1
      outer loop
         vertex -0.0185558 -0.0759156 0.455
         vertex -0.0188886 -0.0779457 0.455
         vertex -0.06 -0.06 0.455
      endloop
   endfacet
   facet normal 0 0 -1
      outer loop
         vertex -0.00307386 -0.0612503 0.455
         vertex -0.00508304 -0.0616926 0.455
         vertex -0.06 -0.06 0.455
      endloop
   endfacet
   facet normal 0 0 -1
      outer loop
         vertex 0.019 -0.08 0.455
         vertex 0.0188886 -0.0779457 0.455
         vertex 0.06 -0.06 0.455
      endloop
   endfacet
   facet normal 0 0 -1
      outer loop
         vertex 0.0172439 -0.0879779 0.455
         vertex 0.0180054 -0.0860667 0.455
         vertex 0.06 -0.1 0.455
      endloop
   endfacet
   facet normal 0 0 -1
      outer loop
         vertex 0.06 -0.1 0.455
         vertex 0.0106626 -0.0957261 0.455
         vertex 0.0123003 -0.0944811 0.455
      endloop
   endfacet
   facet normal 0 0 -1
      outer loop
         vertex 0.06 -0.1 0.455
         vertex 0.00508304 -0.0983074 0.455
         vertex 0.00703262 -0.0976506 0.455
      endloop
   endfacet
   facet normal 0 0 -1
      outer loop
         vertex 0.06 -0.1 0.455
         vertex 0.00102864 -0.0989721 0.455
         vertex 0.00307386 -0.0987497 0.455
      endloop
   endfacet
   facet normal 0 0 -1
      outer loop
         vertex 0.06 -0.1 0.455
         vertex -0.06 -0.1 0.455
         vertex -0.00102864 -0.0989721 0.455
      endloop
   endfacet
   facet normal 0 0 -1
      outer loop
         vertex -0.06 -0.1 0.455
         vertex -0.0123003 -0.0944811 0.455
         vertex -0.0106626 -0.0957261 0.455
      endloop
   endfacet
   facet normal 0 0 -1
      outer loop
         vertex -0.06 -0.1 0.455
         vertex -0.0151258 -0.0914983 0.455
         vertex -0.0137939 -0.0930663 0.455
      endloop
   endfacet
   facet normal 0 0 -1
      outer loop
         vertex -0.0185558 -0.0840844 0.455
         vertex -0.0180054 -0.0860667 0.455
         vertex -0.06 -0.1 0.455
      endloop
   endfacet
   facet normal 0 0 -1
      outer loop
         vertex -0.00703262 -0.0623494 0.455
         vertex -0.00889976 -0.0632133 0.455
         vertex -0.06 -0.06 0.455
      endloop
   endfacet
   facet normal 0 0 -1
      outer loop
         vertex -0.06 -0.06 0.455
         vertex 0.06 -0.06 0.455
         vertex 0.00102864 -0.0610279 0.455
      endloop
   endfacet
   facet normal 0 0 -1
      outer loop
         vertex 0.06 -0.06 0.455
         vertex 0.00889976 -0.0632133 0.455
         vertex 0.00703262 -0.0623494 0.455
      endloop
   endfacet
   facet normal 0 0 -1
      outer loop
         vertex 0.0185558 -0.0840844 0.455
         vertex 0.0188886 -0.0820543 0.455
         vertex 0.06 -0.1 0.455
      endloop
   endfacet
   facet normal 0 0 -1
      outer loop
         vertex 0.0137939 -0.0930663 0.455
         vertex 0.0151258 -0.0914983 0.455
         vertex 0.06 -0.1 0.455
      endloop
   endfacet
   facet normal 0 0 -1
      outer loop
         vertex 0.00703262 -0.0976506 0.455
         vertex 0.00889976 -0.0967867 0.455
         vertex 0.06 -0.1 0.455
      endloop
   endfacet
   facet normal 0 0 -1
      outer loop
         vertex -0.00102864 -0.0989721 0.455
         vertex 0.00102864 -0.0989721 0.455
         vertex 0.06 -0.1 0.455
      endloop
   endfacet
   facet normal 0 0 -1
      outer loop
         vertex -0.06 -0.1 0.455
         vertex -0.00508304 -0.0983074 0.455
         vertex -0.00307386 -0.0987497 0.455
      endloop
   endfacet
   facet normal 0 0 -1
      outer loop
         vertex -0.0106626 -0.0957261 0.455
         vertex -0.00889976 -0.0967867 0.455
         vertex -0.06 -0.1 0.455
      endloop
   endfacet
   facet normal 0 0 -1
      outer loop
         vertex -0.06 -0.1 0.455
         vertex -0.0162803 -0.0897955 0.455
         vertex -0.0151258 -0.0914983 0.455
      endloop
   endfacet
   facet normal 0 0 -1
      outer loop
         vertex -0.0180054 -0.0860667 0.455
         vertex -0.0172439 -0.0879779 0.455
         vertex -0.06 -0.1 0.455
      endloop
   endfacet
   facet normal 0 0 -1
      outer loop
         vertex 0.00102864 -0.0610279 0.455
         vertex -0.00102864 -0.0610279 0.455
         vertex -0.06 -0.06 0.455
      endloop
   endfacet
   facet normal 0 0 -1
      outer loop
         vertex 0.06 -0.06 0.455
         vertex 0.00508304 -0.0616926 0.455
         vertex 0.00307386 -0.0612503 0.455
      endloop
   endfacet
   facet normal 0 0 -1
      outer loop
         vertex 0.0106626 -0.0642739 0.455
         vertex 0.00889976 -0.0632133 0.455
         vertex 0.06 -0.06 0.455
      endloop
   endfacet
   facet normal 0 0 -1
      outer loop
         vertex 0.00889976 -0.0967867 0.455
         vertex 0.0106626 -0.0957261 0.455
         vertex 0.06 -0.1 0.455
      endloop
   endfacet
   facet normal 0 0 -1
      outer loop
         vertex -0.00307386 -0.0987497 0.455
         vertex -0.00102864 -0.0989721 0.455
         vertex -0.06 -0.1 0.455
      endloop
   endfacet
   facet normal 0 0 -1
      outer loop
         vertex -0.00889976 -0.0967867 0.455
         vertex -0.00703262 -0.0976506 0.455
         vertex -0.06 -0.1 0.455
      endloop
   endfacet
   facet normal 0 0 -1
      outer loop
         vertex -0.0172439 -0.0879779 0.455
         vertex -0.0162803 -0.0897955 0.455
         vertex -0.06 -0.1 0.455
      endloop
   endfacet
   facet normal 0 0 -1
      outer loop
         vertex -0.06 -0.1 0.455
         vertex -0.06 -0.06 0.455
         vertex -0.019 -0.08 0.455
      endloop
   endfacet
   facet normal 0 0 -1
      outer loop
         vertex 0.00307386 -0.0612503 0.455
         vertex 0.00102864 -0.0610279 0.455
         vertex 0.06 -0.06 0.455
      endloop
   endfacet
   facet normal 0 0 -1
      outer loop
         vertex 0.0151258 -0.0914983 0.455
         vertex 0.0162803 -0.0897955 0.455
         vertex 0.06 -0.1 0.455
      endloop
   endfacet
   facet normal 0 0 -1
      outer loop
         vertex -0.00703262 -0.0976506 0.455
         vertex -0.00508304 -0.0983074 0.455
         vertex -0.06 -0.1 0.455
      endloop
   endfacet
   facet normal 0 0 -1
      outer loop
         vertex -0.019 -0.08 0.455
         vertex -0.0188886 -0.0820543 0.455
         vertex -0.06 -0.1 0.455
      endloop
   endfacet
   facet normal 0 0 -1
      outer loop
         vertex 0.00703262 -0.0623494 0.455
         vertex 0.00508304 -0.0616926 0.455
         vertex 0.06 -0.06 0.455
      endloop
   endfacet
   facet normal 0 0 -1
      outer loop
         vertex -0.0137939 -0.0930663 0.455
         vertex -0.0123003 -0.0944811 0.455
         vertex -0.06 -0.1 0.455
      endloop
   endfacet
   facet normal 0 0 -1
      outer loop
         vertex 0.00307386 -0.0987497 0.455
         vertex 0.00508304 -0.0983074 0.455
         vertex 0.06 -0.1 0.455
      endloop
   endfacet
   facet normal 0 0 -1
      outer loop
         vertex -0.0188886 -0.0779457 0.455
         vertex -0.019 -0.08 0.455
         vertex -0.06 -0.06 0.455
      endloop
   endfacet
   facet normal 1 0 0
      outer loop
         vertex 0.019 -0.08 0.455
         vertex 0.019 -0.08 0.155
         vertex 0.0188886 -0.0779457 0.155
      endloop
   endfacet
   facet normal 0.994138 0.108119 0
      outer loop
         vertex 0.0188886 -0.0779457 0.455
         vertex 0.0188886 -0.0779457 0.155
         vertex 0.0185558 -0.0759156 0.155
      endloop
   endfacet
   facet normal 0.976621 0.21497 0
      outer loop
         vertex 0.0185558 -0.0759156 0.455
         vertex 0.0185558 -0.0759156 0.155
         vertex 0.0180054 -0.0739333 0.155
      endloop
   endfacet
   facet normal 0.947653 0.319302 0
      outer loop
         vertex 0.0180054 -0.0739333 0.455
         vertex 0.0180054 -0.0739333 0.155
         vertex 0.0172439 -0.0720221 0.155
      endloop
   endfacet
   facet normal 0.907575 0.419889 0
      outer loop
         vertex 0.0172439 -0.0720221 0.455
         vertex 0.0172439 -0.0720221 0.155
         vertex 0.0162803 -0.0702045 0.155
      endloop
   endfacet
   facet normal 0.856857 0.515554 0
      outer loop
         vertex 0.0162803 -0.0702045 0.455
         vertex 0.0162803 -0.0702045 0.155
         vertex 0.0151258 -0.0685017 0.155
      endloop
   endfacet
   facet normal 0.796093 0.605174 0
      outer loop
         vertex 0.0151258 -0.0685017 0.455
         vertex 0.0151258 -0.0685017 0.155
         vertex 0.0137939 -0.0669337 0.155
      endloop
   endfacet
   facet normal 0.725995 0.687699 0
      outer loop
         vertex 0.0137939 -0.0669337 0.455
         vertex 0.0137939 -0.0669337 0.155
         vertex 0.0123003 -0.0655189 0.155
      endloop
   endfacet
   facet normal 0.647386 0.762162 0
      outer loop
         vertex 0.0123003 -0.0655189 0.455
         vertex 0.0123003 -0.0655189 0.155
         vertex 0.0106626 -0.0642739 0.155
      endloop
   endfacet
   facet normal 0.561187 0.827689 0
      outer loop
         vertex 0.0106626 -0.0642739 0.455
         vertex 0.0106626 -0.0642739 0.155
         vertex 0.00889976 -0.0632133 0.155
      endloop
   endfacet
   facet normal 0.468408 0.883512 0
      outer loop
         vertex 0.00889976 -0.0632133 0.455
         vertex 0.00889976 -0.0632133 0.155
         vertex 0.00703262 -0.0623494 0.155
      endloop
   endfacet
   facet normal 0.370138 0.928977 0
      outer loop
         vertex 0.00703262 -0.0623494 0.455
         vertex 0.00703262 -0.0623494 0.155
         vertex 0.00508304 -0.0616926 0.155
      endloop
   endfacet
   facet normal 0.267528 0.96355 0
      outer loop
         vertex 0.00508304 -0.0616926 0.455
         vertex 0.00508304 -0.0616926 0.155
         vertex 0.00307386 -0.0612503 0.155
      endloop
   endfacet
   facet normal 0.161782 0.986827 0
      outer loop
         vertex 0.00307386 -0.0612503 0.455
         vertex 0.00307386 -0.0612503 0.155
         vertex 0.00102864 -0.0610279 0.155
      endloop
   endfacet
   facet normal 0.0541389 0.998533 0
      outer loop
         vertex 0.00102864 -0.0610279 0.455
         vertex 0.00102864 -0.0610279 0.155
         vertex -0.00102864 -0.0610279 0.155
      endloop
   endfacet
   facet normal -0.0541389 0.998533 0
      outer loop
         vertex -0.00102864 -0.0610279 0.455
         vertex -0.00102864 -0.0610279 0.155
         vertex -0.00307386 -0.0612503 0.155
      endloop
   endfacet
   facet normal -0.161782 0.986827 0
      outer loop
         vertex -0.00307386 -0.0612503 0.455
         vertex -0.00307386 -0.0612503 0.155
         vertex -0.00508304 -0.0616926 0.155
      endloop
   endfacet
   facet normal -0.267528 0.96355 0
      outer loop
         vertex -0.00508304 -0.0616926 0.455
         vertex -0.00508304 -0.0616926 0.155
         vertex -0.00703262 -0.0623494 0.155
      endloop
   endfacet
   facet normal -0.370138 0.928977 0
      outer loop
         vertex -0.00703262 -0.0623494 0.455
         vertex -0.00703262 -0.0623494 0.155
         vertex -0.00889976 -0.0632133 0.155
      endloop
   endfacet
   facet normal -0.468408 0.883512 0
      outer loop
         vertex -0.00889976 -0.0632133 0.455
         vertex -0.00889976 -0.0632133 0.155
         vertex -0.0106626 -0.0642739 0.155
      endloop
   endfacet
   facet normal -0.561187 0.827689 0
      outer loop
         vertex -0.0106626 -0.0642739 0.455
         vertex -0.0106626 -0.0642739 0.155
         vertex -0.0123003 -0.0655189 0.155
      endloop
   endfacet
   facet normal -0.647386 0.762162 0
      outer loop
         vertex -0.0123003 -0.0655189 0.455
         vertex -0.0123003 -0.0655189 0.155
         vertex -0.0137939 -0.0669337 0.155
      endloop
   endfacet
   facet normal -0.725995 0.687699 0
      outer loop
         vertex -0.0137939 -0.0669337 0.455
         vertex -0.0137939 -0.0669337 0.155
         vertex -0.0151258 -0.0685017 0.155
      endloop
   endfacet
   facet normal -0.796093 0.605174 0
      outer loop
         vertex -0.0151258 -0.0685017 0.455
         vertex -0.0151258 -0.0685017 0.155
         vertex -0.0162803 -0.0702045 0.155
      endloop
   endfacet
   facet normal -0.856857 0.515554 0
      outer loop
         vertex -0.0162803 -0.0702045 0.455
         vertex -0.0162803 -0.0702045 0.155
         vertex -0.0172439 -0.0720221 0.155
      endloop
   endfacet
   facet normal -0.907575 0.419889 0
      outer loop
         vertex -0.0172439 -0.0720221 0.455
         vertex -0.0172439 -0.0720221 0.155
         vertex -0.0180054 -0.0739333 0.155
      endloop
   endfacet
   facet normal -0.947653 0.319302 0
      outer loop
         vertex -0.0180054 -0.0739333 0.455
         vertex -0.0180054 -0.0739333 0.155
         vertex -0.0185558 -0.0759156 0.155
      endloop
   endfacet
   facet normal -0.976621 0.21497 0
      outer loop
         vertex -0.0185558 -0.0759156 0.455
         vertex -0.0185558 -0.0759156 0.155
         vertex -0.0188886 -0.0779457 0.155
      endloop
   endfacet
   facet normal -0.994138 0.108119 0
      outer loop
         vertex -0.0188886 -0.0779457 0.455
         vertex -0.0188886 -0.0779457 0.155
         vertex -0.019 -0.08 0.155
      endloop
   endfacet
   facet normal -1 1.22465e-16 0
      outer loop
         vertex -0.019 -0.08 0.455
         vertex -0.019 -0.08 0.155
         vertex -0.0188886 -0.0820543 0.155
      endloop
   endfacet
   facet normal -0.994138 -0.108119 0
      outer loop
         vertex -0.0188886 -0.0820543 0.455
         vertex -0.0188886 -0.0820543 0.155
         vertex -0.0185558 -0.0840844 0.155
      endloop
   endfacet
   facet normal -0.976621 -0.21497 0
      outer loop
         vertex -0.0185558 -0.0840844 0.455
         vertex -0.0185558 -0.0840844 0.155
         vertex -0.0180054 -0.0860667 0.155
      endloop
   endfacet
   facet normal -0.947653 -0.319302 0
      outer loop
         vertex -0.0180054 -0.0860667 0.455
         vertex -0.0180054 -0.0860667 0.155
         vertex -0.0172439 -0.0879779 0.155
      endloop
   endfacet
   facet normal -0.907575 -0.419889 0
      outer loop
         vertex -0.0172439 -0.0879779 0.455
         vertex -0.0172439 -0.0879779 0.155
         vertex -0.0162803 -0.0897955 0.155
      endloop
   endfacet
   facet normal -0.856857 -0.515554 0
      outer loop
         vertex -0.0162803 -0.0897955 0.455
         vertex -0.0162803 -0.0897955 0.155
         vertex -0.0151258 -0.0914983 0.155
      endloop
   endfacet
   facet normal -0.796093 -0.605174 0
      outer loop
         vertex -0.0151258 -0.0914983 0.455
         vertex -0.0151258 -0.0914983 0.155
         vertex -0.0137939 -0.0930663 0.155
      endloop
   endfacet
   facet normal -0.725995 -0.687699 0
      outer loop
         vertex -0.0137939 -0.0930663 0.455
         vertex -0.0137939 -0.0930663 0.155
         vertex -0.0123003 -0.0944811 0.155
      endloop
   endfacet
   facet normal -0.647386 -0.762162 0
      outer loop
         vertex -0.0123003 -0.0944811 0.455
         vertex -0.0123003 -0.0944811 0.155
         vertex -0.0106626 -0.0957261 0.155
      endloop
   endfacet
   facet normal -0.561187 -0.827689 0
      outer loop
         vertex -0.0106626 -0.0957261 0.455
         vertex -0.0106626 -0.0957261 0.155
         vertex -0.00889976 -0.0967867 0.155
      endloop
   endfacet
   facet normal -0.468408 -0.883512 0
      outer loop
         vertex -0.00889976 -0.0967867 0.455
         vertex -0.00889976 -0.0967867 0.155
         vertex -0.00703262 -0.0976506 0.155
      endloop
   endfacet
   facet normal -0.370138 -0.928977 0
      outer loop
         vertex -0.00703262 -0.0976506 0.455
         vertex -0.00703262 -0.0976506 0.155
         vertex -0.00508304 -0.0983074 0.155
      endloop
   endfacet
   facet normal -0.267528 -0.96355 0
      outer loop
         vertex -0.00508304 -0.0983074 0.455
         vertex -0.00508304 -0.0983074 0.155
         vertex -0.00307386 -0.0987497 0.155
      endloop
   endfacet
   facet normal -0.161782 -0.986827 0
      outer loop
         vertex -0.00307386 -0.0987497 0.455
         vertex -0.00307386 -0.0987497 0.155
         vertex -0.00102864 -0.0989721 0.155
      endloop
   endfacet
   facet normal -0.0541389 -0.998533 0
      outer loop
         vertex -0.00102864 -0.0989721 0.455
         vertex -0.00102864 -0.0989721 0.155
         vertex 0.00102864 -0.0989721 0.155
      endloop
   endfacet
   facet normal 0.0541389 -0.998533 0
      outer loop
         vertex 0.00102864 -0.0989721 0.455
         vertex 0.00102864 -0.0989721 0.155
         vertex 0.00307386 -0.0987497 0.155
      endloop
   endfacet
   facet normal 0.161782 -0.986827 0
      outer loop
         vertex 0.00307386 -0.0987497 0.455
         vertex 0.00307386 -0.0987497 0.155
         vertex 0.00508304 -0.0983074 0.155
      endloop
   endfacet
   facet normal 0.267528 -0.96355 0
      outer loop
         vertex 0.00508304 -0.0983074 0.455
         vertex 0.00508304 -0.0983074 0.155
         vertex 0.00703262 -0.0976506 0.155
      endloop
   endfacet
   facet normal 0.370138 -0.928977 0
      outer loop
         vertex 0.00703262 -0.0976506 0.455
         vertex 0.00703262 -0.0976506 0.155
         vertex 0.00889976 -0.0967867 0.155
      endloop
   endfacet
   facet normal 0.468408 -0.883512 0
      outer loop
         vertex 0.00889976 -0.0967867 0.455
         vertex 0.00889976 -0.0967867 0.155
         vertex 0.0106626 -0.0957261 0.155
      endloop
   endfacet
   facet normal 0.561187 -0.827689 0
      outer loop
         vertex 0.0106626 -0.0957261 0.455
         vertex 0.0106626 -0.0957261 0.155
         vertex 0.0123003 -0.0944811 0.155
      endloop
   endfacet
   facet normal 0.647386 -0.762162 0
      outer loop
         vertex 0.0123003 -0.0944811 0.455
         vertex 0.0123003 -0.0944811 0.155
         vertex 0.0137939 -0.0930663 0.155
      endloop
   endfacet
   facet normal 0.725995 -0.687699 0
      outer loop
         vertex 0.0137939 -0.0930663 0.455
         vertex 0.0137939 -0.0930663 0.155
         vertex 0.0151258 -0.0914983 0.155
      endloop
   endfacet
   facet normal 0.796093 -0.605174 0
      outer loop
         vertex 0.0151258 -0.0914983 0.455
         vertex 0.0151258 -0.0914983 0.155
         vertex 0.0162803 -0.0897955 0.155
      endloop
   endfacet
   facet normal 0.856857 -0.515554 0
      outer loop
         vertex 0.0162803 -0.0897955 0.455
         vertex 0.0162803 -0.0897955 0.155
         vertex 0.0172439 -0.0879779 0.155
      endloop
   endfacet
   facet normal 0.907575 -0.419889 0
      outer loop
         vertex 0.0172439 -0.0879779 0.455
         vertex 0.0172439 -0.0879779 0.155
         vertex 0.0180054 -0.0860667 0.155
      endloop
   endfacet
   facet normal 0.947653 -0.319302 0
      outer loop
         vertex 0.0180054 -0.0860667 0.455
         vertex 0.0180054 -0.0860667 0.155
         vertex 0.0185558 -0.0840844 0.155
      endloop
   endfacet
   facet normal 0.976621 -0.21497 0
      outer loop
         vertex 0.0185558 -0.0840844 0.455
         vertex 0.0185558 -0.0840844 0.155
         vertex 0.0188886 -0.0820543 0.155
      endloop
   endfacet
   facet normal 0.994138 -0.108119 0
      outer loop
         vertex 0.0188886 -0.0820543 0.455
         vertex 0.0188886 -0.0820543 0.155
         vertex 0.019 -0.08 0.155
      endloop
   endfacet
   facet normal 1 0 0
      outer loop
         vertex 0.019 -0.08 0.155
         vertex 0.019 -0.08 0.455
         vertex 0.0188886 -0.0820543 0.455
      endloop
   endfacet
   facet normal 0.994138 -0.108119 0
      outer loop
         vertex 0.0188886 -0.0820543 0.155
         vertex 0.0188886 -0.0820543 0.455
         vertex 0.0185558 -0.0840844 0.455
      endloop
   endfacet
   facet normal 0.976621 -0.21497 0
      outer loop
         vertex 0.0185558 -0.0840844 0.155
         vertex 0.0185558 -0.0840844 0.455
         vertex 0.0180054 -0.0860667 0.455
      endloop
   endfacet
   facet normal 0.947653 -0.319302 0
      outer loop
         vertex 0.0180054 -0.0860667 0.155
         vertex 0.0180054 -0.0860667 0.455
         vertex 0.0172439 -0.0879779 0.455
      endloop
   endfacet
   facet normal 0.907575 -0.419889 0
      outer loop
         vertex 0.0172439 -0.0879779 0.155
         vertex 0.0172439 -0.0879779 0.455
         vertex 0.0162803 -0.0897955 0.455
      endloop
   endfacet
   facet normal 0.856857 -0.515554 0
      outer loop
         vertex 0.0162803 -0.0897955 0.155
         vertex 0.0162803 -0.0897955 0.455
         vertex 0.0151258 -0.0914983 0.455
      endloop
   endfacet
   facet normal 0.796093 -0.605174 0
      outer loop
         vertex 0.0151258 -0.0914983 0.155
         vertex 0.0151258 -0.0914983 0.455
         vertex 0.0137939 -0.0930663 0.455
      endloop
   endfacet
   facet normal 0.725995 -0.687699 0
      outer loop
         vertex 0.0137939 -0.0930663 0.155
         vertex 0.0137939 -0.0930663 0.455
         vertex 0.0123003 -0.0944811 0.455
      endloop
   endfacet
   facet normal 0.647386 -0.762162 0
      outer loop
         vertex 0.0123003 -0.0944811 0.155
         vertex 0.0123003 -0.0944811 0.455
         vertex 0.0106626 -0.0957261 0.455
      endloop
   endfacet
   facet normal 0.561187 -0.827689 0
      outer loop
         vertex 0.0106626 -0.0957261 0.155
         vertex 0.0106626 -0.0957261 0.455
         vertex 0.00889976 -0.0967867 0.455
      endloop
   endfacet
   facet normal 0.468408 -0.883512 0
      outer loop
         vertex 0.00889976 -0.0967867 0.155
         vertex 0.00889976 -0.0967867 0.455
         vertex 0.00703262 -0.0976506 0.455
      endloop
   endfacet
   facet normal 0.370138 -0.928977 0
      outer loop
         vertex 0.00703262 -0.0976506 0.155
         vertex 0.00703262 -0.0976506 0.455
         vertex 0.00508304 -0.0983074 0.455
      endloop
   endfacet
   facet normal 0.267528 -0.96355 0
      outer loop
         vertex 0.00508304 -0.0983074 0.155
         vertex 0.00508304 -0.0983074 0.455
         vertex 0.00307386 -0.0987497 0.455
      endloop
   endfacet
   facet normal 0.161782 -0.986827 0
      outer loop
         vertex 0.00307386 -0.0987497 0.155
         vertex 0.00307386 -0.0987497 0.455
         vertex 0.00102864 -0.0989721 0.455
      endloop
   endfacet
   facet normal 0.0541389 -0.998533 0
      outer loop
         vertex 0.00102864 -0.0989721 0.155
         vertex 0.00102864 -0.0989721 0.455
         vertex -0.00102864 -0.0989721 0.455
      endloop
   endfacet
   facet normal -0.0541389 -0.998533 0
      outer loop
         vertex -0.00102864 -0.0989721 0.155
         vertex -0.00102864 -0.0989721 0.455
         vertex -0.00307386 -0.0987497 0.455
      endloop
   endfacet
   facet normal -0.161782 -0.986827 0
      outer loop
         vertex -0.00307386 -0.0987497 0.155
         vertex -0.00307386 -0.0987497 0.455
         vertex -0.00508304 -0.0983074 0.455
      endloop
   endfacet
   facet normal -0.267528 -0.96355 0
      outer loop
         vertex -0.00508304 -0.0983074 0.155
         vertex -0.00508304 -0.0983074 0.455
         vertex -0.00703262 -0.0976506 0.455
      endloop
   endfacet
   facet normal -0.370138 -0.928977 0
      outer loop
         vertex -0.00703262 -0.0976506 0.155
         vertex -0.00703262 -0.0976506 0.455
         vertex -0.00889976 -0.0967867 0.455
      endloop
   endfacet
   facet normal -0.468408 -0.883512 0
      outer loop
         vertex -0.00889976 -0.0967867 0.155
         vertex -0.00889976 -0.0967867 0.455
         vertex -0.0106626 -0.0957261 0.455
      endloop
   endfacet
   facet normal -0.561187 -0.827689 0
      outer loop
         vertex -0.0106626 -0.0957261 0.155
         vertex -0.0106626 -0.0957261 0.455
         vertex -0.0123003 -0.0944811 0.455
      endloop
   endfacet
   facet normal -0.647386 -0.762162 0
      outer loop
         vertex -0.0123003 -0.0944811 0.155
         vertex -0.0123003 -0.0944811 0.455
         vertex -0.0137939 -0.0930663 0.455
      endloop
   endfacet
   facet normal -0.725995 -0.687699 0
      outer loop
         vertex -0.0137939 -0.0930663 0.155
         vertex -0.0137939 -0.0930663 0.455
         vertex -0.0151258 -0.0914983 0.455
      endloop
   endfacet
   facet normal -0.796093 -0.605174 0
      outer loop
         vertex -0.0151258 -0.0914983 0.155
         vertex -0.0151258 -0.0914983 0.455
         vertex -0.0162803 -0.0897955 0.455
      endloop
   endfacet
   facet normal -0.856857 -0.515554 0
      outer loop
         vertex -0.0162803 -0.0897955 0.155
         vertex -0.0162803 -0.0897955 0.455
         vertex -0.0172439 -0.0879779 0.455
      endloop
   endfacet
   facet normal -0.907575 -0.419889 0
      outer loop
         vertex -0.0172439 -0.0879779 0.155
         vertex -0.0172439 -0.0879779 0.455
         vertex -0.0180054 -0.0860667 0.455
      endloop
   endfacet
   facet normal -0.947653 -0.319302 0
      outer loop
         vertex -0.0180054 -0.0860667 0.155
         vertex -0.0180054 -0.0860667 0.455
         vertex -0.0185558 -0.0840844 0.455
      endloop
   endfacet
   facet normal -0.976621 -0.21497 0
      outer loop
         vertex -0.0185558 -0.0840844 0.155
         vertex -0.0185558 -0.0840844 0.455
         vertex -0.0188886 -0.0820543 0.455
      endloop
   endfacet
   facet normal -0.994138 -0.108119 0
      outer loop
         vertex -0.0188886 -0.0820543 0.155
         vertex -0.0188886 -0.0820543 0.455
         vertex -0.019 -0.08 0.455
      endloop
   endfacet
   facet normal -1 1.22465e-16 0
      outer loop
         vertex -0.019 -0.08 0.155
         vertex -0.019 -0.08 0.455
         vertex -0.0188886 -0.0779457 0.455
      endloop
   endfacet
   facet normal -0.994138 0.108119 0
      outer loop
         vertex -0.0188886 -0.0779457 0.155
         vertex -0.0188886 -0.0779457 0.455
         vertex -0.0185558 -0.0759156 0.455
      endloop
   endfacet
   facet normal -0.976621 0.21497 0
      outer loop
         vertex -0.0185558 -0.0759156 0.155
         vertex -0.0185558 -0.0759156 0.455
         vertex -0.0180054 -0.0739333 0.455
      endloop
   endfacet
   facet normal -0.947653 0.319302 0
      outer loop
         vertex -0.0180054 -0.0739333 0.155
         vertex -0.0180054 -0.0739333 0.455
         vertex -0.0172439 -0.0720221 0.455
      endloop
   endfacet
   facet normal -0.907575 0.419889 0
      outer loop
         vertex -0.0172439 -0.0720221 0.155
         vertex -0.0172439 -0.0720221 0.455
         vertex -0.0162803 -0.0702045 0.455
      endloop
   endfacet
   facet normal -0.856857 0.515554 0
      outer loop
         vertex -0.0162803 -0.0702045 0.155
         vertex -0.0162803 -0.0702045 0.455
         vertex -0.0151258 -0.0685017 0.455
      endloop
   endfacet
   facet normal -0.796093 0.605174 0
      outer loop
         vertex -0.0151258 -0.0685017 0.155
         vertex -0.0151258 -0.0685017 0.455
         vertex -0.0137939 -0.0669337 0.455
      endloop
   endfacet
   facet normal -0.725995 0.687699 0
      outer loop
         vertex -0.0137939 -0.0669337 0.155
         vertex -0.0137939 -0.0669337 0.455
         vertex -0.0123003 -0.0655189 0.455
      endloop
   endfacet
   facet normal -0.647386 0.762162 0
      outer loop
         vertex -0.0123003 -0.0655189 0.155
         vertex -0.0123003 -0.0655189 0.455
         vertex -0.0106626 -0.0642739 0.455
      endloop
   endfacet
   facet normal -0.561187 0.827689 0
      outer loop
         vertex -0.0106626 -0.0642739 0.155
         vertex -0.0106626 -0.0642739 0.455
         vertex -0.00889976 -0.0632133 0.455
      endloop
   endfacet
   facet normal -0.468408 0.883512 0
      outer loop
         vertex -0.00889976 -0.0632133 0.155
         vertex -0.00889976 -0.0632133 0.455
         vertex -0.00703262 -0.0623494 0.455
      endloop
   endfacet
   facet normal -0.370138 0.928977 0
      outer loop
         vertex -0.00703262 -0.0623494 0.155
         vertex -0.00703262 -0.0623494 0.455
         vertex -0.00508304 -0.0616926 0.455
      endloop
   endfacet
   facet normal -0.267528 0.96355 0
      outer loop
         vertex -0.00508304 -0.0616926 0.155
         vertex -0.00508304 -0.0616926 0.455
         vertex -0.00307386 -0.0612503 0.455
      endloop
   endfacet
   facet normal -0.161782 0.986827 0
      outer loop
         vertex -0.00307386 -0.0612503 0.155
         vertex -0.00307386 -0.0612503 0.455
         vertex -0.00102864 -0.0610279 0.455
      endloop
   endfacet
   facet normal -0.0541389 0.998533 0
      outer loop
         vertex -0.00102864 -0.0610279 0.155
         vertex -0.00102864 -0.0610279 0.455
         vertex 0.00102864 -0.0610279 0.455
      endloop
   endfacet
   facet normal 0.0541389 0.998533 0
      outer loop
         vertex 0.00102864 -0.0610279 0.155
         vertex 0.00102864 -0.0610279 0.455
         vertex 0.00307386 -0.0612503 0.455
      endloop
   endfacet
   facet normal 0.161782 0.986827 0
      outer loop
         vertex 0.00307386 -0.0612503 0.155
         vertex 0.00307386 -0.0612503 0.455
         vertex 0.00508304 -0.0616926 0.455
      endloop
   endfacet
   facet normal 0.267528 0.96355 0
      outer loop
         vertex 0.00508304 -0.0616926 0.155
         vertex 0.00508304 -0.0616926 0.455
         vertex 0.00703262 -0.0623494 0.455
      endloop
   endfacet
   facet normal 0.370138 0.928977 0
      outer loop
         vertex 0.00703262 -0.0623494 0.155
         vertex 0.00703262 -0.0623494 0.455
         vertex 0.00889976 -0.0632133 0.455
      endloop
   endfacet
   facet normal 0.468408 0.883512 0
      outer loop
         vertex 0.00889976 -0.0632133 0.155
         vertex 0.00889976 -0.0632133 0.455
         vertex 0.0106626 -0.0642739 0.455
      endloop
   endfacet
   facet normal 0.561187 0.827689 0
      outer loop
         vertex 0.0106626 -0.0642739 0.155
         vertex 0.0106626 -0.0642739 0.455
         vertex 0.0123003 -0.0655189 0.455
      endloop
   endfacet
   facet normal 0.647386 0.762162 0
      outer loop
         vertex 0.0123003 -0.0655189 0.155
         vertex 0.0123003 -0.0655189 0.455
         vertex 0.0137939 -0.0669337 0.455
      endloop
   endfacet
   facet normal 0.725995 0.687699 0
      outer loop
         vertex 0.0137939 -0.0669337 0.155
         vertex 0.0137939 -0.0669337 0.455
         vertex 0.0151258 -0.0685017 0.455
      endloop
   endfacet
   facet normal 0.796093 0.605174 0
      outer loop
         vertex 0.0151258 -0.0685017 0.155
         vertex 0.0151258 -0.0685017 0.455
         vertex 0.0162803 -0.0702045 0.455
      endloop
   endfacet
   facet normal 0.856857 0.515554 0
      outer loop
         vertex 0.0162803 -0.0702045 0.155
         vertex 0.0162803 -0.0702045 0.455
         vertex 0.0172439 -0.0720221 0.455
      endloop
   endfacet
   facet normal 0.907575 0.419889 0
      outer loop
         vertex 0.0172439 -0.0720221 0.155
         vertex 0.0172439 -0.0720221 0.455
         vertex 0.0180054 -0.0739333 0.455
      endloop
   endfacet
   facet normal 0.947653 0.319302 0
      outer loop
         vertex 0.0180054 -0.0739333 0.155
         vertex 0.0180054 -0.0739333 0.455
         vertex 0.0185558 -0.0759156 0.455
      endloop
   endfacet
   facet normal 0.976621 0.21497 0
      outer loop
         vertex 0.0185558 -0.0759156 0.155
         vertex 0.0185558 -0.0759156 0.455
         vertex 0.0188886 -0.0779457 0.455
      endloop
   endfacet
   facet normal 0.994138 0.108119 0
      outer loop
         vertex 0.0188886 -0.0779457 0.155
         vertex 0.0188886 -0.0779457 0.455
         vertex 0.019 -0.08 0.455
      endloop
   endfacet
   facet normal 0 0 -1
      outer loop
         vertex 2.42861e-17 -0.08 0.155
         vertex -0.0188886 -0.0779457 0.155
         vertex -0.0185558 -0.0759156 0.155
      endloop
   endfacet
   facet normal 0 0 -1
      outer loop
         vertex -0.0185558 -0.0759156 0.155
         vertex -0.0180054 -0.0739333 0.155
         vertex 2.42861e-17 -0.08 0.155
      endloop
   endfacet
   facet normal 0 0 -1
      outer loop
         vertex -0.0180054 -0.0739333 0.155
         vertex -0.0172439 -0.0720221 0.155
         vertex 2.42861e-17 -0.08 0.155
      endloop
   endfacet
   facet normal 0 0 -1
      outer loop
         vertex -0.0172439 -0.0720221 0.155
         vertex -0.0162803 -0.0702045 0.155
         vertex 2.42861e-17 -0.08 0.155
      endloop
   endfacet
   facet normal 0 0 -1
      outer loop
         vertex -0.0162803 -0.0702045 0.155
         vertex -0.0151258 -0.0685017 0.155
         vertex 2.42861e-17 -0.08 0.155
      endloop
   endfacet
   facet normal 0 0 -1
      outer loop
         vertex -0.0151258 -0.0685017 0.155
         vertex -0.0137939 -0.0669337 0.155
         vertex 2.42861e-17 -0.08 0.155
      endloop
   endfacet
   facet normal 0 0 -1
      outer loop
         vertex -0.0137939 -0.0669337 0.155
         vertex -0.0123003 -0.0655189 0.155
         vertex 2.42861e-17 -0.08 0.155
      endloop
   endfacet
   facet normal 0 0 -1
      outer loop
         vertex -0.0123003 -0.0655189 0.155
         vertex -0.0106626 -0.0642739 0.155
         vertex 2.42861e-17 -0.08 0.155
      endloop
   endfacet
   facet normal 0 0 -1
      outer loop
         vertex -0.0106626 -0.0642739 0.155
         vertex -0.00889976 -0.0632133 0.155
         vertex 2.42861e-17 -0.08 0.155
      endloop
   endfacet
   facet normal 0 0 -1
      outer loop
         vertex -0.00889976 -0.0632133 0.155
         vertex -0.00703262 -0.0623494 0.155
         vertex 2.42861e-17 -0.08 0.155
      endloop
   endfacet
   facet normal 0 0 -1
      outer loop
         vertex -0.00703262 -0.0623494 0.155
         vertex -0.00508304 -0.0616926 0.155
         vertex 2.42861e-17 -0.08 0.155
      endloop
   endfacet
   facet normal 0 0 -1
      outer loop
         vertex -0.00508304 -0.0616926 0.155
         vertex -0.00307386 -0.0612503 0.155
         vertex 2.42861e-17 -0.08 0.155
      endloop
   endfacet
   facet normal 0 0 -1
      outer loop
         vertex -0.00307386 -0.0612503 0.155
         vertex -0.00102864 -0.0610279 0.155
         vertex 2.42861e-17 -0.08 0.155
      endloop
   endfacet
   facet normal 0 0 -1
      outer loop
         vertex -0.00102864 -0.0610279 0.155
         vertex 0.00102864 -0.0610279 0.155
         vertex 2.42861e-17 -0.08 0.155
      endloop
   endfacet
   facet normal 0 0 -1
      outer loop
         vertex 0.00102864 -0.0610279 0.155
         vertex 0.00307386 -0.0612503 0.155
         vertex 2.42861e-17 -0.08 0.155
      endloop
   endfacet
   facet normal 0 0 -1
      outer loop
         vertex 0.00307386 -0.0612503 0.155
         vertex 0.00508304 -0.0616926 0.155
         vertex 2.42861e-17 -0.08 0.155
      endloop
   endfacet
   facet normal 0 0 -1
      outer loop
         vertex 0.00508304 -0.0616926 0.155
         vertex 0.00703262 -0.0623494 0.155
         vertex 2.42861e-17 -0.08 0.155
      endloop
   endfacet
   facet normal 0 0 -1
      outer loop
         vertex 0.00703262 -0.0623494 0.155
         vertex 0.00889976 -0.0632133 0.155
         vertex 2.42861e-17 -0.08 0.155
      endloop
   endfacet
   facet normal 0 0 -1
      outer loop
         vertex 0.00889976 -0.0632133 0.155
         vertex 0.0106626 -0.0642739 0.155
         vertex 2.42861e-17 -0.08 0.155
      endloop
   endfacet
   facet normal 0 0 -1
      outer loop
         vertex 0.0106626 -0.0642739 0.155
         vertex 0.0123003 -0.0655189 0.155
         vertex 2.42861e-17 -0.08 0.155
      endloop
   endfacet
   facet normal 0 0 -1
      outer loop
         vertex 0.0123003 -0.0655189 0.155
         vertex 0.0137939 -0.0669337 0.155
         vertex 2.42861e-17 -0.08 0.155
      endloop
   endfacet
   facet normal 0 0 -1
      outer loop
         vertex 0.0137939 -0.0669337 0.155
         vertex 0.0151258 -0.0685017 0.155
         vertex 2.42861e-17 -0.08 0.155
      endloop
   endfacet
   facet normal 0 0 -1
      outer loop
         vertex 0.0151258 -0.0685017 0.155
         vertex 0.0162803 -0.0702045 0.155
         vertex 2.42861e-17 -0.08 0.155
      endloop
   endfacet
   facet normal 0 0 -1
      outer loop
         vertex 0.0162803 -0.0702045 0.155
         vertex 0.0172439 -0.0720221 0.155
         vertex 2.42861e-17 -0.08 0.155
      endloop
   endfacet
   facet normal 0 0 -1
      outer loop
         vertex 0.0172439 -0.0720221 0.155
         vertex 0.0180054 -0.0739333 0.155
         vertex 2.42861e-17 -0.08 0.155
      endloop
   endfacet
   facet normal 0 0 -1
      outer loop
         vertex 0.0180054 -0.0739333 0.155
         vertex 0.0185558 -0.0759156 0.155
         vertex 2.42861e-17 -0.08 0.155
      endloop
   endfacet
   facet normal 0 0 -1
      outer loop
         vertex 0.0185558 -0.0759156 0.155
         vertex 0.0188886 -0.0779457 0.155
         vertex 2.42861e-17 -0.08 0.155
      endloop
   endfacet
   facet normal 0 0 -1
      outer loop
         vertex 0.0188886 -0.0779457 0.155
         vertex 0.019 -0.08 0.155
         vertex 2.42861e-17 -0.08 0.155
      endloop
   endfacet
   facet normal 0 0 -1
      outer loop
         vertex 0.019 -0.08 0.155
         vertex 0.0188886 -0.0820543 0.155
         vertex 2.42861e-17 -0.08 0.155
      endloop
   endfacet
   facet normal 0 0 -1
      outer loop
         vertex 0.0188886 -0.0820543 0.155
         vertex 0.0185558 -0.0840844 0.155
         vertex 2.42861e-17 -0.08 0.155
      endloop
   endfacet
   facet normal 0 0 -1
      outer loop
         vertex 0.0185558 -0.0840844 0.155
         vertex 0.0180054 -0.0860667 0.155
         vertex 2.42861e-17 -0.08 0.155
      endloop
   endfacet
   facet normal 0 0 -1
      outer loop
         vertex 0.0180054 -0.0860667 0.155
         vertex 0.0172439 -0.0879779 0.155
         vertex 2.42861e-17 -0.08 0.155
      endloop
   endfacet
   facet normal 0 0 -1
      outer loop
         vertex 0.0172439 -0.0879779 0.155
         vertex 0.0162803 -0.0897955 0.155
         vertex 2.42861e-17 -0.08 0.155
      endloop
   endfacet
   facet normal 0 0 -1
      outer loop
         vertex 0.0162803 -0.0897955 0.155
         vertex 0.0151258 -0.0914983 0.155
         vertex 2.42861e-17 -0.08 0.155
      endloop
   endfacet
   facet normal 0 0 -1
      outer loop
         vertex 0.0151258 -0.0914983 0.155
         vertex 0.0137939 -0.0930663 0.155
         vertex 2.42861e-17 -0.08 0.155
      endloop
   endfacet
   facet normal 0 0 -1
      outer loop
         vertex 0.0137939 -0.0930663 0.155
         vertex 0.0123003 -0.0944811 0.155
         vertex 2.42861e-17 -0.08 0.155
      endloop
   endfacet
   facet normal 0 0 -1
      outer loop
         vertex 0.0123003 -0.0944811 0.155
         vertex 0.0106626 -0.0957261 0.155
         vertex 2.42861e-17 -0.08 0.155
      endloop
   endfacet
   facet normal 0 0 -1
      outer loop
         vertex 0.0106626 -0.0957261 0.155
         vertex 0.00889976 -0.0967867 0.155
         vertex 2.42861e-17 -0.08 0.155
      endloop
   endfacet
   facet normal 0 0 -1
      outer loop
         vertex 0.00889976 -0.0967867 0.155
         vertex 0.00703262 -0.0976506 0.155
         vertex 2.42861e-17 -0.08 0.155
      endloop
   endfacet
   facet normal 0 0 -1
      outer loop
         vertex 0.00703262 -0.0976506 0.155
         vertex 0.00508304 -0.0983074 0.155
         vertex 2.42861e-17 -0.08 0.155
      endloop
   endfacet
   facet normal 0 0 -1
      outer loop
         vertex 0.00508304 -0.0983074 0.155
         vertex 0.00307386 -0.0987497 0.155
         vertex 2.42861e-17 -0.08 0.155
      endloop
   endfacet
   facet normal 0 0 -1
      outer loop
         vertex 0.00307386 -0.0987497 0.155
         vertex 0.00102864 -0.0989721 0.155
         vertex 2.42861e-17 -0.08 0.155
      endloop
   endfacet
   facet normal 0 0 -1
      outer loop
         vertex 0.00102864 -0.0989721 0.155
         vertex -0.00102864 -0.0989721 0.155
         vertex 2.42861e-17 -0.08 0.155
      endloop
   endfacet
   facet normal 0 0 -1
      outer loop
         vertex -0.00102864 -0.0989721 0.155
         vertex -0.00307386 -0.0987497 0.155
         vertex 2.42861e-17 -0.08 0.155
      endloop
   endfacet
   facet normal 0 0 -1
      outer loop
         vertex -0.00307386 -0.0987497 0.155
         vertex -0.00508304 -0.0983074 0.155
         vertex 2.42861e-17 -0.08 0.155
      endloop
   endfacet
   facet normal 0 0 -1
      outer loop
         vertex -0.00508304 -0.0983074 0.155
         vertex -0.00703262 -0.0976506 0.155
         vertex 2.42861e-17 -0.08 0.155
      endloop
   endfacet
   facet normal 0 0 -1
      outer loop
         vertex -0.00703262 -0.0976506 0.155
         vertex -0.00889976 -0.0967867 0.155
         vertex 2.42861e-17 -0.08 0.155
      endloop
   endfacet
   facet normal 0 0 -1
      outer loop
         vertex -0.00889976 -0.0967867 0.155
         vertex -0.0106626 -0.0957261 0.155
         vertex 2.42861e-17 -0.08 0.155
      endloop
   endfacet
   facet normal 0 0 -1
      outer loop
         vertex -0.0106626 -0.0957261 0.155
         vertex -0.0123003 -0.0944811 0.155
         vertex 2.42861e-17 -0.08 0.155
      endloop
   endfacet
   facet normal 0 0 -1
      outer loop
         vertex -0.0123003 -0.0944811 0.155
         vertex -0.0137939 -0.0930663 0.155
         vertex 2.42861e-17 -0.08 0.155
      endloop
   endfacet
   facet normal 0 0 -1
      outer loop
         vertex -0.0137939 -0.0930663 0.155
         vertex -0.0151258 -0.0914983 0.155
         vertex 2.42861e-17 -0.08 0.155
      endloop
   endfacet
   facet normal 0 0 -1
      outer loop
         vertex -0.0151258 -0.0914983 0.155
         vertex -0.0162803 -0.0897955 0.155
         vertex 2.42861e-17 -0.08 0.155
      endloop
   endfacet
   facet normal 0 0 -1
      outer loop
         vertex -0.0162803 -0.0897955 0.155
         vertex -0.0172439 -0.0879779 0.155
         vertex 2.42861e-17 -0.08 0.155
      endloop
   endfacet
   facet normal 0 0 -1
      outer loop
         vertex -0.0172439 -0.0879779 0.155
         vertex -0.0180054 -0.0860667 0.155
         vertex 2.42861e-17 -0.08 0.155
      endloop
   endfacet
   facet normal 0 0 -1
      outer loop
         vertex -0.0180054 -0.0860667 0.155
         vertex -0.0185558 -0.0840844 0.155
         vertex 2.42861e-17 -0.08 0.155
      endloop
   endfacet
   facet normal 0 0 -1
      outer loop
         vertex -0.0185558 -0.0840844 0.155
         vertex -0.0188886 -0.0820543 0.155
         vertex 2.42861e-17 -0.08 0.155
      endloop
   endfacet
   facet normal 0 0 -1
      outer loop
         vertex -0.0188886 -0.0820543 0.155
         vertex -0.019 -0.08 0.155
         vertex 2.42861e-17 -0.08 0.155
      endloop
   endfacet
   facet normal 0 0 -1
      outer loop
         vertex -0.019 -0.08 0.155
         vertex -0.0188886 -0.0779457 0.155
         vertex 2.42861e-17 -0.08 0.155
      endloop
   endfacet
endsolid Probe_frame. Units = meters